<svg xmlns="http://www.w3.org/2000/svg" viewBox="0 0 760 300" width="760" height="300" role="img">
      <rect width="760" height="300" fill="#f7f9f7" />
      <line x1="44" y1="40.00" x2="740" y2="40.00" stroke="#e6ece8" stroke-width="1" /><line x1="44" y1="96.50" x2="740" y2="96.50" stroke="#e6ece8" stroke-width="1" /><line x1="44" y1="153.00" x2="740" y2="153.00" stroke="#e6ece8" stroke-width="1" /><line x1="44" y1="209.50" x2="740" y2="209.50" stroke="#e6ece8" stroke-width="1" /><line x1="44" y1="266.00" x2="740" y2="266.00" stroke="#e6ece8" stroke-width="1" />
      <line x1="44.00" y1="40" x2="44.00" y2="266" stroke="#d1dbd5" stroke-width="1" /><line x1="87.50" y1="40" x2="87.50" y2="266" stroke="#d1dbd5" stroke-width="1" /><line x1="131.00" y1="40" x2="131.00" y2="266" stroke="#d1dbd5" stroke-width="1" /><line x1="174.50" y1="40" x2="174.50" y2="266" stroke="#d1dbd5" stroke-width="1" /><line x1="218.00" y1="40" x2="218.00" y2="266" stroke="#d1dbd5" stroke-width="1" /><line x1="261.50" y1="40" x2="261.50" y2="266" stroke="#d1dbd5" stroke-width="1" /><line x1="305.00" y1="40" x2="305.00" y2="266" stroke="#d1dbd5" stroke-width="1" /><line x1="348.50" y1="40" x2="348.50" y2="266" stroke="#d1dbd5" stroke-width="1" /><line x1="392.00" y1="40" x2="392.00" y2="266" stroke="#d1dbd5" stroke-width="1" /><line x1="435.50" y1="40" x2="435.50" y2="266" stroke="#d1dbd5" stroke-width="1" /><line x1="479.00" y1="40" x2="479.00" y2="266" stroke="#d1dbd5" stroke-width="1" /><line x1="522.50" y1="40" x2="522.50" y2="266" stroke="#d1dbd5" stroke-width="1" /><line x1="566.00" y1="40" x2="566.00" y2="266" stroke="#d1dbd5" stroke-width="1" /><line x1="609.50" y1="40" x2="609.50" y2="266" stroke="#d1dbd5" stroke-width="1" /><line x1="653.00" y1="40" x2="653.00" y2="266" stroke="#d1dbd5" stroke-width="1" /><line x1="696.50" y1="40" x2="696.50" y2="266" stroke="#d1dbd5" stroke-width="1" /><line x1="740.00" y1="40" x2="740.00" y2="266" stroke="#d1dbd5" stroke-width="1.2" />
      <rect x="54.00" y="97.51" width="23.50" height="168.49" rx="6" fill="#9db8ad" /><rect x="97.50" y="130.13" width="23.50" height="135.87" rx="6" fill="#9db8ad" /><rect x="141.00" y="115.93" width="23.50" height="150.07" rx="6" fill="#9db8ad" /><rect x="184.50" y="109.71" width="23.50" height="156.29" rx="6" fill="#9db8ad" /><rect x="228.00" y="68.63" width="23.50" height="197.37" rx="6" fill="#9db8ad" /><rect x="271.50" y="91.50" width="23.50" height="174.50" rx="6" fill="#9db8ad" /><rect x="315.00" y="65.31" width="23.50" height="200.69" rx="6" fill="#9db8ad" /><rect x="358.50" y="88.40" width="23.50" height="177.60" rx="6" fill="#9db8ad" /><rect x="402.00" y="156.33" width="23.50" height="109.67" rx="6" fill="#9db8ad" /><rect x="445.50" y="241.14" width="23.50" height="24.86" rx="6" fill="#9db8ad" /><rect x="489.00" y="139.90" width="23.50" height="126.10" rx="6" fill="#9db8ad" /><rect x="532.50" y="241.14" width="23.50" height="24.86" rx="6" fill="#9db8ad" /><rect x="576.00" y="202.06" width="23.50" height="63.94" rx="6" fill="#9db8ad" /><rect x="619.50" y="65.08" width="23.50" height="200.92" rx="6" fill="#9db8ad" /><rect x="663.00" y="75.08" width="23.50" height="190.92" rx="6" fill="#9db8ad" /><rect x="706.50" y="40.00" width="23.50" height="226.00" rx="6" fill="#9db8ad" />
      <path d="M 65.75 85.20 L 109.25 107.80 L 152.75 107.80 L 196.25 85.20 L 239.75 85.20 L 283.25 85.20 L 326.75 85.20 L 370.25 85.20 L 413.75 153.00 L 457.25 220.80 L 500.75 130.40 L 544.25 220.80 L 587.75 220.80 L 631.25 62.60 L 674.75 85.20 L 718.25 40.00" fill="none" stroke="#28536a" stroke-width="2" />
      <path d="M 65.75 190.77 L 109.25 198.75 L 152.75 204.76 L 196.25 151.20 L 239.75 171.16 L 283.25 190.21 L 326.75 213.01 L 370.25 151.25 L 413.75 219.22 L 457.25 263.38 L 500.75 210.09 L 544.25 262.95 L 587.75 266.00 L 631.25 174.25 L 674.75 174.72 L 718.25 40.00" fill="none" stroke="#9a5b4f" stroke-width="2" stroke-dasharray="6 4" />
      <text x="18" y="22" font-size="14" fill="#51656d">Bar Density</text>
      <text x="18" y="40" font-size="11" fill="#7a8a83">Density bars, onset contour, and cadence contour</text>
      <text x="65.75" y="290" text-anchor="middle" font-size="11" fill="#71827b">1</text><text x="109.25" y="290" text-anchor="middle" font-size="11" fill="#71827b">2</text><text x="152.75" y="290" text-anchor="middle" font-size="11" fill="#71827b">3</text><text x="196.25" y="290" text-anchor="middle" font-size="11" fill="#71827b">4</text><text x="239.75" y="290" text-anchor="middle" font-size="11" fill="#71827b">5</text><text x="283.25" y="290" text-anchor="middle" font-size="11" fill="#71827b">6</text><text x="326.75" y="290" text-anchor="middle" font-size="11" fill="#71827b">7</text><text x="370.25" y="290" text-anchor="middle" font-size="11" fill="#71827b">8</text><text x="413.75" y="290" text-anchor="middle" font-size="11" fill="#71827b">9</text><text x="457.25" y="290" text-anchor="middle" font-size="11" fill="#71827b">10</text><text x="500.75" y="290" text-anchor="middle" font-size="11" fill="#71827b">11</text><text x="544.25" y="290" text-anchor="middle" font-size="11" fill="#71827b">12</text><text x="587.75" y="290" text-anchor="middle" font-size="11" fill="#71827b">13</text><text x="631.25" y="290" text-anchor="middle" font-size="11" fill="#71827b">14</text><text x="674.75" y="290" text-anchor="middle" font-size="11" fill="#71827b">15</text><text x="718.25" y="290" text-anchor="middle" font-size="11" fill="#71827b">16</text>
      
        <rect x="44" y="274" width="12" height="12" rx="3" fill="#9db8ad" />
        <text x="62" y="284" font-size="11" fill="#51656d">Density</text>
      
        <rect x="166" y="274" width="12" height="12" rx="3" fill="#28536a" />
        <text x="184" y="284" font-size="11" fill="#51656d">Onsets</text>
      
        <rect x="288" y="274" width="12" height="12" rx="3" fill="#9a5b4f" />
        <text x="306" y="284" font-size="11" fill="#51656d">Cadence</text>
      
    </svg>