<svg xmlns="http://www.w3.org/2000/svg" viewBox="0 0 960 400" width="960" height="400" role="img">
      <rect width="960" height="400" fill="#f7f9f7" />
      <rect x="54.00" y="40" width="55.50" height="318" fill="#fafcfa" /><rect x="109.50" y="40" width="55.50" height="318" fill="#f4f7f4" /><rect x="165.00" y="40" width="55.50" height="318" fill="#fafcfa" /><rect x="220.50" y="40" width="55.50" height="318" fill="#f4f7f4" /><rect x="276.00" y="40" width="55.50" height="318" fill="#fafcfa" /><rect x="331.50" y="40" width="55.50" height="318" fill="#f4f7f4" /><rect x="387.00" y="40" width="55.50" height="318" fill="#fafcfa" /><rect x="442.50" y="40" width="55.50" height="318" fill="#f4f7f4" /><rect x="498.00" y="40" width="55.50" height="318" fill="#fafcfa" /><rect x="553.50" y="40" width="55.50" height="318" fill="#f4f7f4" /><rect x="609.00" y="40" width="55.50" height="318" fill="#fafcfa" /><rect x="664.50" y="40" width="55.50" height="318" fill="#f4f7f4" /><rect x="720.00" y="40" width="55.50" height="318" fill="#fafcfa" /><rect x="775.50" y="40" width="55.50" height="318" fill="#f4f7f4" /><rect x="831.00" y="40" width="55.50" height="318" fill="#fafcfa" /><rect x="886.50" y="40" width="55.50" height="318" fill="#f4f7f4" />
      <line x1="54.00" y1="40" x2="54.00" y2="358" stroke="#c7d2cb" stroke-width="1.2" /><line x1="67.88" y1="40" x2="67.88" y2="358" stroke="#e5ebe7" stroke-width="0.8" /><line x1="81.75" y1="40" x2="81.75" y2="358" stroke="#e5ebe7" stroke-width="0.8" /><line x1="95.63" y1="40" x2="95.63" y2="358" stroke="#e5ebe7" stroke-width="0.8" /><line x1="109.50" y1="40" x2="109.50" y2="358" stroke="#c7d2cb" stroke-width="1.2" /><line x1="123.38" y1="40" x2="123.38" y2="358" stroke="#e5ebe7" stroke-width="0.8" /><line x1="137.25" y1="40" x2="137.25" y2="358" stroke="#e5ebe7" stroke-width="0.8" /><line x1="151.13" y1="40" x2="151.13" y2="358" stroke="#e5ebe7" stroke-width="0.8" /><line x1="165.00" y1="40" x2="165.00" y2="358" stroke="#c7d2cb" stroke-width="1.2" /><line x1="178.88" y1="40" x2="178.88" y2="358" stroke="#e5ebe7" stroke-width="0.8" /><line x1="192.75" y1="40" x2="192.75" y2="358" stroke="#e5ebe7" stroke-width="0.8" /><line x1="206.63" y1="40" x2="206.63" y2="358" stroke="#e5ebe7" stroke-width="0.8" /><line x1="220.50" y1="40" x2="220.50" y2="358" stroke="#c7d2cb" stroke-width="1.2" /><line x1="234.38" y1="40" x2="234.38" y2="358" stroke="#e5ebe7" stroke-width="0.8" /><line x1="248.25" y1="40" x2="248.25" y2="358" stroke="#e5ebe7" stroke-width="0.8" /><line x1="262.13" y1="40" x2="262.13" y2="358" stroke="#e5ebe7" stroke-width="0.8" /><line x1="276.00" y1="40" x2="276.00" y2="358" stroke="#c7d2cb" stroke-width="1.2" /><line x1="289.88" y1="40" x2="289.88" y2="358" stroke="#e5ebe7" stroke-width="0.8" /><line x1="303.75" y1="40" x2="303.75" y2="358" stroke="#e5ebe7" stroke-width="0.8" /><line x1="317.63" y1="40" x2="317.63" y2="358" stroke="#e5ebe7" stroke-width="0.8" /><line x1="331.50" y1="40" x2="331.50" y2="358" stroke="#c7d2cb" stroke-width="1.2" /><line x1="345.38" y1="40" x2="345.38" y2="358" stroke="#e5ebe7" stroke-width="0.8" /><line x1="359.25" y1="40" x2="359.25" y2="358" stroke="#e5ebe7" stroke-width="0.8" /><line x1="373.13" y1="40" x2="373.13" y2="358" stroke="#e5ebe7" stroke-width="0.8" /><line x1="387.00" y1="40" x2="387.00" y2="358" stroke="#c7d2cb" stroke-width="1.2" /><line x1="400.88" y1="40" x2="400.88" y2="358" stroke="#e5ebe7" stroke-width="0.8" /><line x1="414.75" y1="40" x2="414.75" y2="358" stroke="#e5ebe7" stroke-width="0.8" /><line x1="428.63" y1="40" x2="428.63" y2="358" stroke="#e5ebe7" stroke-width="0.8" /><line x1="442.50" y1="40" x2="442.50" y2="358" stroke="#c7d2cb" stroke-width="1.2" /><line x1="456.38" y1="40" x2="456.38" y2="358" stroke="#e5ebe7" stroke-width="0.8" /><line x1="470.25" y1="40" x2="470.25" y2="358" stroke="#e5ebe7" stroke-width="0.8" /><line x1="484.13" y1="40" x2="484.13" y2="358" stroke="#e5ebe7" stroke-width="0.8" /><line x1="498.00" y1="40" x2="498.00" y2="358" stroke="#c7d2cb" stroke-width="1.2" /><line x1="511.88" y1="40" x2="511.88" y2="358" stroke="#e5ebe7" stroke-width="0.8" /><line x1="525.75" y1="40" x2="525.75" y2="358" stroke="#e5ebe7" stroke-width="0.8" /><line x1="539.63" y1="40" x2="539.63" y2="358" stroke="#e5ebe7" stroke-width="0.8" /><line x1="553.50" y1="40" x2="553.50" y2="358" stroke="#c7d2cb" stroke-width="1.2" /><line x1="567.38" y1="40" x2="567.38" y2="358" stroke="#e5ebe7" stroke-width="0.8" /><line x1="581.25" y1="40" x2="581.25" y2="358" stroke="#e5ebe7" stroke-width="0.8" /><line x1="595.13" y1="40" x2="595.13" y2="358" stroke="#e5ebe7" stroke-width="0.8" /><line x1="609.00" y1="40" x2="609.00" y2="358" stroke="#c7d2cb" stroke-width="1.2" /><line x1="622.88" y1="40" x2="622.88" y2="358" stroke="#e5ebe7" stroke-width="0.8" /><line x1="636.75" y1="40" x2="636.75" y2="358" stroke="#e5ebe7" stroke-width="0.8" /><line x1="650.63" y1="40" x2="650.63" y2="358" stroke="#e5ebe7" stroke-width="0.8" /><line x1="664.50" y1="40" x2="664.50" y2="358" stroke="#c7d2cb" stroke-width="1.2" /><line x1="678.38" y1="40" x2="678.38" y2="358" stroke="#e5ebe7" stroke-width="0.8" /><line x1="692.25" y1="40" x2="692.25" y2="358" stroke="#e5ebe7" stroke-width="0.8" /><line x1="706.13" y1="40" x2="706.13" y2="358" stroke="#e5ebe7" stroke-width="0.8" /><line x1="720.00" y1="40" x2="720.00" y2="358" stroke="#c7d2cb" stroke-width="1.2" /><line x1="733.88" y1="40" x2="733.88" y2="358" stroke="#e5ebe7" stroke-width="0.8" /><line x1="747.75" y1="40" x2="747.75" y2="358" stroke="#e5ebe7" stroke-width="0.8" /><line x1="761.63" y1="40" x2="761.63" y2="358" stroke="#e5ebe7" stroke-width="0.8" /><line x1="775.50" y1="40" x2="775.50" y2="358" stroke="#c7d2cb" stroke-width="1.2" /><line x1="789.38" y1="40" x2="789.38" y2="358" stroke="#e5ebe7" stroke-width="0.8" /><line x1="803.25" y1="40" x2="803.25" y2="358" stroke="#e5ebe7" stroke-width="0.8" /><line x1="817.13" y1="40" x2="817.13" y2="358" stroke="#e5ebe7" stroke-width="0.8" /><line x1="831.00" y1="40" x2="831.00" y2="358" stroke="#c7d2cb" stroke-width="1.2" /><line x1="844.88" y1="40" x2="844.88" y2="358" stroke="#e5ebe7" stroke-width="0.8" /><line x1="858.75" y1="40" x2="858.75" y2="358" stroke="#e5ebe7" stroke-width="0.8" /><line x1="872.63" y1="40" x2="872.63" y2="358" stroke="#e5ebe7" stroke-width="0.8" /><line x1="886.50" y1="40" x2="886.50" y2="358" stroke="#c7d2cb" stroke-width="1.2" /><line x1="900.38" y1="40" x2="900.38" y2="358" stroke="#e5ebe7" stroke-width="0.8" /><line x1="914.25" y1="40" x2="914.25" y2="358" stroke="#e5ebe7" stroke-width="0.8" /><line x1="928.13" y1="40" x2="928.13" y2="358" stroke="#e5ebe7" stroke-width="0.8" /><line x1="942.00" y1="40" x2="942.00" y2="358" stroke="#c7d2cb" stroke-width="1.2" />
      <rect x="54.00" y="297.70" width="4.44" height="9" rx="3" fill="#7d5c3c" opacity="0.82" /><rect x="54.00" y="187.09" width="55.50" height="9" rx="3" fill="#a9b8b0" opacity="0.28" /><rect x="54.00" y="83.39" width="8.67" height="9" rx="3" fill="#4a7d77" opacity="0.82" /><rect x="54.00" y="83.39" width="7.21" height="9" rx="3" fill="#245464" opacity="0.82" /><rect x="54.20" y="166.35" width="55.50" height="9" rx="3" fill="#a9b8b0" opacity="0.28" /><rect x="54.41" y="131.78" width="55.50" height="9" rx="3" fill="#a9b8b0" opacity="0.28" /><rect x="64.41" y="83.39" width="4.72" height="9" rx="3" fill="#245464" opacity="0.82" /><rect x="74.81" y="48.83" width="8.60" height="9" rx="3" fill="#245464" opacity="0.82" /><rect x="81.75" y="332.26" width="3.61" height="9" rx="3" fill="#7d5c3c" opacity="0.82" /><rect x="88.69" y="69.57" width="4.99" height="9" rx="3" fill="#245464" opacity="0.82" /><rect x="99.09" y="104.13" width="11.38" height="9" rx="3" fill="#245464" opacity="0.82" /><rect x="109.50" y="318.43" width="4.44" height="9" rx="3" fill="#7d5c3c" opacity="0.82" /><rect x="109.50" y="235.48" width="55.50" height="9" rx="3" fill="#a9b8b0" opacity="0.28" /><rect x="109.50" y="104.13" width="6.38" height="9" rx="3" fill="#245464" opacity="0.82" /><rect x="109.70" y="214.74" width="55.50" height="9" rx="3" fill="#a9b8b0" opacity="0.28" /><rect x="109.91" y="187.09" width="55.50" height="9" rx="3" fill="#a9b8b0" opacity="0.28" /><rect x="110.11" y="166.35" width="55.50" height="9" rx="3" fill="#a9b8b0" opacity="0.28" /><rect x="119.91" y="83.39" width="4.72" height="9" rx="3" fill="#245464" opacity="0.82" /><rect x="130.31" y="104.13" width="6.38" height="9" rx="3" fill="#245464" opacity="0.82" /><rect x="137.25" y="270.04" width="3.61" height="9" rx="3" fill="#7d5c3c" opacity="0.82" /><rect x="144.19" y="117.96" width="5.55" height="9" rx="3" fill="#245464" opacity="0.82" /><rect x="154.59" y="48.83" width="13.32" height="9" rx="3" fill="#245464" opacity="0.82" /><rect x="165.00" y="346.09" width="4.44" height="9" rx="3" fill="#7d5c3c" opacity="0.82" /><rect x="165.00" y="235.48" width="55.50" height="9" rx="3" fill="#a9b8b0" opacity="0.28" /><rect x="165.00" y="69.57" width="6.10" height="9" rx="3" fill="#245464" opacity="0.82" /><rect x="165.20" y="214.74" width="55.50" height="9" rx="3" fill="#a9b8b0" opacity="0.28" /><rect x="165.41" y="166.35" width="55.50" height="9" rx="3" fill="#a9b8b0" opacity="0.28" /><rect x="165.61" y="180.17" width="55.50" height="9" rx="3" fill="#a9b8b0" opacity="0.28" /><rect x="175.41" y="48.83" width="5.27" height="9" rx="3" fill="#245464" opacity="0.82" /><rect x="185.81" y="35.00" width="9.43" height="9" rx="3" fill="#245464" opacity="0.82" /><rect x="192.75" y="297.70" width="3.61" height="9" rx="3" fill="#7d5c3c" opacity="0.82" /><rect x="199.69" y="35.00" width="4.72" height="9" rx="3" fill="#245464" opacity="0.82" /><rect x="210.09" y="48.83" width="11.38" height="9" rx="3" fill="#245464" opacity="0.82" /><rect x="220.50" y="332.26" width="4.44" height="9" rx="3" fill="#7d5c3c" opacity="0.82" /><rect x="220.50" y="249.30" width="55.50" height="9" rx="3" fill="#a9b8b0" opacity="0.28" /><rect x="220.50" y="35.00" width="6.10" height="9" rx="3" fill="#245464" opacity="0.82" /><rect x="220.70" y="214.74" width="55.50" height="9" rx="3" fill="#a9b8b0" opacity="0.28" /><rect x="220.91" y="200.91" width="55.50" height="9" rx="3" fill="#a9b8b0" opacity="0.28" /><rect x="230.91" y="48.83" width="4.99" height="9" rx="3" fill="#245464" opacity="0.82" /><rect x="244.78" y="83.39" width="6.66" height="9" rx="3" fill="#245464" opacity="0.82" /><rect x="248.25" y="283.87" width="3.61" height="9" rx="3" fill="#7d5c3c" opacity="0.82" /><rect x="255.19" y="83.39" width="4.72" height="9" rx="3" fill="#245464" opacity="0.82" /><rect x="265.59" y="83.39" width="12.49" height="9" rx="3" fill="#245464" opacity="0.82" /><rect x="269.06" y="69.57" width="8.67" height="9" rx="3" fill="#4a7d77" opacity="0.82" /><rect x="276.00" y="297.70" width="4.44" height="9" rx="3" fill="#7d5c3c" opacity="0.82" /><rect x="276.00" y="187.09" width="55.50" height="9" rx="3" fill="#a9b8b0" opacity="0.28" /><rect x="276.00" y="83.39" width="7.21" height="9" rx="3" fill="#245464" opacity="0.82" /><rect x="276.20" y="166.35" width="55.50" height="9" rx="3" fill="#a9b8b0" opacity="0.28" /><rect x="276.41" y="131.78" width="55.50" height="9" rx="3" fill="#a9b8b0" opacity="0.28" /><rect x="286.41" y="83.39" width="4.72" height="9" rx="3" fill="#245464" opacity="0.82" /><rect x="296.81" y="187.09" width="13.88" height="9" rx="3" fill="#64757d" opacity="0.82" /><rect x="296.81" y="48.83" width="8.60" height="9" rx="3" fill="#245464" opacity="0.82" /><rect x="303.75" y="332.26" width="3.61" height="9" rx="3" fill="#7d5c3c" opacity="0.82" /><rect x="310.69" y="48.83" width="4.99" height="9" rx="3" fill="#245464" opacity="0.82" /><rect x="321.09" y="83.39" width="13.04" height="9" rx="3" fill="#245464" opacity="0.82" /><rect x="331.50" y="353.00" width="4.44" height="9" rx="3" fill="#7d5c3c" opacity="0.82" /><rect x="331.50" y="270.04" width="55.50" height="9" rx="3" fill="#a9b8b0" opacity="0.28" /><rect x="331.50" y="83.39" width="6.38" height="9" rx="3" fill="#245464" opacity="0.82" /><rect x="331.70" y="249.30" width="55.50" height="9" rx="3" fill="#a9b8b0" opacity="0.28" /><rect x="331.91" y="221.65" width="55.50" height="9" rx="3" fill="#a9b8b0" opacity="0.28" /><rect x="332.11" y="200.91" width="55.50" height="9" rx="3" fill="#a9b8b0" opacity="0.28" /><rect x="341.91" y="69.57" width="4.72" height="9" rx="3" fill="#245464" opacity="0.82" /><rect x="352.31" y="166.35" width="10.41" height="9" rx="3" fill="#64757d" opacity="0.82" /><rect x="352.31" y="83.39" width="6.38" height="9" rx="3" fill="#245464" opacity="0.82" /><rect x="359.25" y="304.61" width="3.61" height="9" rx="3" fill="#7d5c3c" opacity="0.82" /><rect x="366.19" y="104.13" width="5.55" height="9" rx="3" fill="#245464" opacity="0.82" /><rect x="376.59" y="35.00" width="14.98" height="9" rx="3" fill="#245464" opacity="0.82" /><rect x="387.00" y="346.09" width="4.44" height="9" rx="3" fill="#7d5c3c" opacity="0.82" /><rect x="387.00" y="235.48" width="55.50" height="9" rx="3" fill="#a9b8b0" opacity="0.28" /><rect x="387.00" y="69.57" width="6.11" height="9" rx="3" fill="#245464" opacity="0.82" /><rect x="387.20" y="214.74" width="55.50" height="9" rx="3" fill="#a9b8b0" opacity="0.28" /><rect x="387.41" y="166.35" width="55.50" height="9" rx="3" fill="#a9b8b0" opacity="0.28" /><rect x="387.61" y="180.17" width="55.50" height="9" rx="3" fill="#a9b8b0" opacity="0.28" /><rect x="397.41" y="48.83" width="5.27" height="9" rx="3" fill="#245464" opacity="0.82" /><rect x="407.81" y="152.52" width="13.04" height="9" rx="3" fill="#64757d" opacity="0.82" /><rect x="407.81" y="35.00" width="10.55" height="9" rx="3" fill="#245464" opacity="0.82" /><rect x="414.75" y="297.70" width="3.61" height="9" rx="3" fill="#7d5c3c" opacity="0.82" /><rect x="421.69" y="35.00" width="4.72" height="9" rx="3" fill="#245464" opacity="0.82" /><rect x="432.09" y="48.83" width="12.77" height="9" rx="3" fill="#245464" opacity="0.82" /><rect x="442.50" y="332.26" width="4.44" height="9" rx="3" fill="#7d5c3c" opacity="0.82" /><rect x="442.50" y="249.30" width="55.50" height="9" rx="3" fill="#a9b8b0" opacity="0.28" /><rect x="442.50" y="35.00" width="6.11" height="9" rx="3" fill="#245464" opacity="0.82" /><rect x="442.70" y="214.74" width="55.50" height="9" rx="3" fill="#a9b8b0" opacity="0.28" /><rect x="442.91" y="200.91" width="55.50" height="9" rx="3" fill="#a9b8b0" opacity="0.28" /><rect x="452.91" y="48.83" width="4.99" height="9" rx="3" fill="#245464" opacity="0.82" /><rect x="463.31" y="166.35" width="12.21" height="9" rx="3" fill="#64757d" opacity="0.82" /><rect x="466.78" y="83.39" width="6.66" height="9" rx="3" fill="#245464" opacity="0.82" /><rect x="470.25" y="283.87" width="3.61" height="9" rx="3" fill="#7d5c3c" opacity="0.82" /><rect x="477.19" y="83.39" width="4.72" height="9" rx="3" fill="#245464" opacity="0.82" /><rect x="487.59" y="83.39" width="12.49" height="9" rx="3" fill="#245464" opacity="0.82" /><rect x="498.00" y="318.43" width="4.72" height="9" rx="3" fill="#7d5c3c" opacity="0.82" /><rect x="498.00" y="235.48" width="55.50" height="9" rx="3" fill="#a9b8b0" opacity="0.28" /><rect x="498.20" y="214.74" width="55.50" height="9" rx="3" fill="#a9b8b0" opacity="0.28" /><rect x="498.41" y="187.09" width="55.50" height="9" rx="3" fill="#a9b8b0" opacity="0.28" /><rect x="498.61" y="166.35" width="55.50" height="9" rx="3" fill="#a9b8b0" opacity="0.28" /><rect x="504.94" y="104.13" width="6.38" height="9" rx="3" fill="#245464" opacity="0.82" /><rect x="522.28" y="117.96" width="4.99" height="9" rx="3" fill="#245464" opacity="0.82" /><rect x="539.63" y="270.04" width="3.05" height="9" rx="3" fill="#7d5c3c" opacity="0.82" /><rect x="539.63" y="131.78" width="13.04" height="9" rx="3" fill="#245464" opacity="0.82" /><rect x="553.50" y="346.09" width="4.72" height="9" rx="3" fill="#7d5c3c" opacity="0.82" /><rect x="553.50" y="235.48" width="55.50" height="9" rx="3" fill="#a9b8b0" opacity="0.28" /><rect x="553.70" y="214.74" width="55.50" height="9" rx="3" fill="#a9b8b0" opacity="0.28" /><rect x="553.91" y="166.35" width="55.50" height="9" rx="3" fill="#a9b8b0" opacity="0.28" /><rect x="554.11" y="180.17" width="55.50" height="9" rx="3" fill="#a9b8b0" opacity="0.28" /><rect x="595.13" y="297.70" width="3.05" height="9" rx="3" fill="#7d5c3c" opacity="0.82" /><rect x="609.00" y="297.70" width="4.72" height="9" rx="3" fill="#7d5c3c" opacity="0.82" /><rect x="609.00" y="187.09" width="55.50" height="9" rx="3" fill="#a9b8b0" opacity="0.28" /><rect x="609.20" y="166.35" width="55.50" height="9" rx="3" fill="#a9b8b0" opacity="0.28" /><rect x="609.41" y="131.78" width="55.50" height="9" rx="3" fill="#a9b8b0" opacity="0.28" /><rect x="612.47" y="69.57" width="7.77" height="9" rx="3" fill="#4a7d77" opacity="0.82" /><rect x="615.94" y="83.39" width="5.83" height="9" rx="3" fill="#245464" opacity="0.82" /><rect x="633.28" y="117.96" width="5.83" height="9" rx="3" fill="#245464" opacity="0.82" /><rect x="650.63" y="332.26" width="3.05" height="9" rx="3" fill="#7d5c3c" opacity="0.82" /><rect x="650.63" y="83.39" width="12.21" height="9" rx="3" fill="#245464" opacity="0.82" /><rect x="664.50" y="332.26" width="4.72" height="9" rx="3" fill="#7d5c3c" opacity="0.82" /><rect x="664.50" y="249.30" width="55.50" height="9" rx="3" fill="#a9b8b0" opacity="0.28" /><rect x="664.70" y="214.74" width="55.50" height="9" rx="3" fill="#a9b8b0" opacity="0.28" /><rect x="664.91" y="200.91" width="55.50" height="9" rx="3" fill="#a9b8b0" opacity="0.28" /><rect x="706.13" y="283.87" width="3.05" height="9" rx="3" fill="#7d5c3c" opacity="0.82" /><rect x="720.00" y="346.09" width="6.10" height="9" rx="3" fill="#7d5c3c" opacity="0.82" /><rect x="720.00" y="235.48" width="55.50" height="9" rx="3" fill="#a9b8b0" opacity="0.28" /><rect x="720.20" y="214.74" width="55.50" height="9" rx="3" fill="#a9b8b0" opacity="0.28" /><rect x="720.41" y="166.35" width="55.50" height="9" rx="3" fill="#a9b8b0" opacity="0.28" /><rect x="720.61" y="180.17" width="55.50" height="9" rx="3" fill="#a9b8b0" opacity="0.28" /><rect x="740.81" y="187.09" width="13.88" height="9" rx="3" fill="#64757d" opacity="0.82" /><rect x="775.50" y="297.70" width="4.72" height="9" rx="3" fill="#7d5c3c" opacity="0.82" /><rect x="775.50" y="187.09" width="55.50" height="9" rx="3" fill="#a9b8b0" opacity="0.28" /><rect x="775.50" y="83.39" width="8.67" height="9" rx="3" fill="#4a7d77" opacity="0.82" /><rect x="775.50" y="83.39" width="7.22" height="9" rx="3" fill="#245464" opacity="0.82" /><rect x="775.70" y="166.35" width="55.50" height="9" rx="3" fill="#a9b8b0" opacity="0.28" /><rect x="775.91" y="131.78" width="55.50" height="9" rx="3" fill="#a9b8b0" opacity="0.28" /><rect x="785.91" y="83.39" width="4.72" height="9" rx="3" fill="#245464" opacity="0.82" /><rect x="796.31" y="166.35" width="10.41" height="9" rx="3" fill="#64757d" opacity="0.82" /><rect x="796.31" y="48.83" width="8.60" height="9" rx="3" fill="#245464" opacity="0.82" /><rect x="810.19" y="332.26" width="3.05" height="9" rx="3" fill="#7d5c3c" opacity="0.82" /><rect x="810.19" y="69.57" width="4.99" height="9" rx="3" fill="#245464" opacity="0.82" /><rect x="820.59" y="104.13" width="10.82" height="9" rx="3" fill="#245464" opacity="0.82" /><rect x="831.00" y="332.26" width="4.72" height="9" rx="3" fill="#7d5c3c" opacity="0.82" /><rect x="831.00" y="249.30" width="55.50" height="9" rx="3" fill="#a9b8b0" opacity="0.28" /><rect x="831.00" y="83.39" width="6.10" height="9" rx="3" fill="#245464" opacity="0.82" /><rect x="831.20" y="214.74" width="55.50" height="9" rx="3" fill="#a9b8b0" opacity="0.28" /><rect x="831.41" y="200.91" width="55.50" height="9" rx="3" fill="#a9b8b0" opacity="0.28" /><rect x="841.41" y="48.83" width="5.27" height="9" rx="3" fill="#245464" opacity="0.82" /><rect x="851.81" y="69.57" width="10.82" height="9" rx="3" fill="#245464" opacity="0.82" /><rect x="855.28" y="152.52" width="14.15" height="9" rx="3" fill="#64757d" opacity="0.82" /><rect x="865.69" y="283.87" width="3.05" height="9" rx="3" fill="#7d5c3c" opacity="0.82" /><rect x="865.69" y="35.00" width="4.72" height="9" rx="3" fill="#245464" opacity="0.82" /><rect x="876.09" y="48.83" width="10.54" height="9" rx="3" fill="#245464" opacity="0.82" /><rect x="886.50" y="297.70" width="4.72" height="9" rx="3" fill="#7d5c3c" opacity="0.82" /><rect x="886.50" y="187.09" width="55.50" height="9" rx="3" fill="#a9b8b0" opacity="0.28" /><rect x="886.50" y="35.00" width="6.10" height="9" rx="3" fill="#245464" opacity="0.82" /><rect x="886.70" y="166.35" width="55.50" height="9" rx="3" fill="#a9b8b0" opacity="0.28" /><rect x="886.91" y="131.78" width="55.50" height="9" rx="3" fill="#a9b8b0" opacity="0.28" /><rect x="896.91" y="48.83" width="4.72" height="9" rx="3" fill="#245464" opacity="0.82" /><rect x="914.25" y="83.39" width="5.83" height="9" rx="3" fill="#245464" opacity="0.82" /><rect x="921.19" y="332.26" width="3.05" height="9" rx="3" fill="#7d5c3c" opacity="0.82" /><rect x="921.19" y="180.17" width="14.43" height="9" rx="3" fill="#64757d" opacity="0.82" /><rect x="921.19" y="48.83" width="4.72" height="9" rx="3" fill="#245464" opacity="0.82" /><rect x="924.66" y="297.70" width="6.10" height="9" rx="3" fill="#7d5c3c" opacity="0.82" /><rect x="928.13" y="48.83" width="10.41" height="9" rx="3" fill="#4a7d77" opacity="0.82" /><rect x="931.59" y="48.83" width="10.41" height="9" rx="3" fill="#245464" opacity="0.82" />
      <text x="18" y="22" font-size="14" fill="#51656d">Piano Roll</text>
      <text x="18" y="40" font-size="11" fill="#7a8a83">Raw notes + expanded chord tones</text>
      <text x="81.75" y="26" text-anchor="middle" font-size="11" fill="#71827b">Bar 1</text><text x="137.25" y="26" text-anchor="middle" font-size="11" fill="#71827b">Bar 2</text><text x="192.75" y="26" text-anchor="middle" font-size="11" fill="#71827b">Bar 3</text><text x="248.25" y="26" text-anchor="middle" font-size="11" fill="#71827b">Bar 4</text><text x="303.75" y="26" text-anchor="middle" font-size="11" fill="#71827b">Bar 5</text><text x="359.25" y="26" text-anchor="middle" font-size="11" fill="#71827b">Bar 6</text><text x="414.75" y="26" text-anchor="middle" font-size="11" fill="#71827b">Bar 7</text><text x="470.25" y="26" text-anchor="middle" font-size="11" fill="#71827b">Bar 8</text><text x="525.75" y="26" text-anchor="middle" font-size="11" fill="#71827b">Bar 9</text><text x="581.25" y="26" text-anchor="middle" font-size="11" fill="#71827b">Bar 10</text><text x="636.75" y="26" text-anchor="middle" font-size="11" fill="#71827b">Bar 11</text><text x="692.25" y="26" text-anchor="middle" font-size="11" fill="#71827b">Bar 12</text><text x="747.75" y="26" text-anchor="middle" font-size="11" fill="#71827b">Bar 13</text><text x="803.25" y="26" text-anchor="middle" font-size="11" fill="#71827b">Bar 14</text><text x="858.75" y="26" text-anchor="middle" font-size="11" fill="#71827b">Bar 15</text><text x="914.25" y="26" text-anchor="middle" font-size="11" fill="#71827b">Bar 16</text>
      <text x="18" y="46" font-size="11" fill="#71827b">High: 86</text>
      <text x="18" y="358" font-size="11" fill="#71827b">Low: 40</text>
      
        <rect x="54" y="376" width="12" height="12" rx="3" fill="#245464" />
        <text x="72" y="386" font-size="11" fill="#51656d">Lead</text>
      
        <rect x="176" y="376" width="12" height="12" rx="3" fill="#4a7d77" />
        <text x="194" y="386" font-size="11" fill="#51656d">Accent</text>
      
        <rect x="298" y="376" width="12" height="12" rx="3" fill="#7d5c3c" />
        <text x="316" y="386" font-size="11" fill="#51656d">Bass</text>
      
        <rect x="420" y="376" width="12" height="12" rx="3" fill="#a9b8b0" />
        <text x="438" y="386" font-size="11" fill="#51656d">Pad/Drone</text>
      
    </svg>