<svg xmlns="http://www.w3.org/2000/svg" viewBox="0 0 960 240" width="960" height="240" role="img">
      <rect width="960" height="240" fill="#f7f9f7" />
      <line x1="40" y1="34.00" x2="942" y2="34.00" stroke="#e6ece8" stroke-width="1" /><line x1="40" y1="78.50" x2="942" y2="78.50" stroke="#e6ece8" stroke-width="1" /><line x1="40" y1="123.00" x2="942" y2="123.00" stroke="#e6ece8" stroke-width="1" /><line x1="40" y1="167.50" x2="942" y2="167.50" stroke="#e6ece8" stroke-width="1" /><line x1="40" y1="212.00" x2="942" y2="212.00" stroke="#e6ece8" stroke-width="1" />
      <line x1="40.00" y1="34" x2="40.00" y2="212" stroke="#d1dbd5" stroke-width="1" /><line x1="96.38" y1="34" x2="96.38" y2="212" stroke="#d1dbd5" stroke-width="1" /><line x1="152.75" y1="34" x2="152.75" y2="212" stroke="#d1dbd5" stroke-width="1" /><line x1="209.13" y1="34" x2="209.13" y2="212" stroke="#d1dbd5" stroke-width="1" /><line x1="265.50" y1="34" x2="265.50" y2="212" stroke="#d1dbd5" stroke-width="1" /><line x1="321.88" y1="34" x2="321.88" y2="212" stroke="#d1dbd5" stroke-width="1" /><line x1="378.25" y1="34" x2="378.25" y2="212" stroke="#d1dbd5" stroke-width="1" /><line x1="434.63" y1="34" x2="434.63" y2="212" stroke="#d1dbd5" stroke-width="1" /><line x1="491.00" y1="34" x2="491.00" y2="212" stroke="#d1dbd5" stroke-width="1" /><line x1="547.38" y1="34" x2="547.38" y2="212" stroke="#d1dbd5" stroke-width="1" /><line x1="603.75" y1="34" x2="603.75" y2="212" stroke="#d1dbd5" stroke-width="1" /><line x1="660.13" y1="34" x2="660.13" y2="212" stroke="#d1dbd5" stroke-width="1" /><line x1="716.50" y1="34" x2="716.50" y2="212" stroke="#d1dbd5" stroke-width="1" /><line x1="772.88" y1="34" x2="772.88" y2="212" stroke="#d1dbd5" stroke-width="1" /><line x1="829.25" y1="34" x2="829.25" y2="212" stroke="#d1dbd5" stroke-width="1" /><line x1="885.63" y1="34" x2="885.63" y2="212" stroke="#d1dbd5" stroke-width="1" /><line x1="942.00" y1="34" x2="942.00" y2="212" stroke="#d1dbd5" stroke-width="1.2" />
      <rect x="40" y="34" width="902" height="128.16" fill="transparent" />
      <line
        x1="40"
        y1="83.84"
        x2="942"
        y2="83.84"
        stroke="#c79a91"
        stroke-width="1"
        stroke-dasharray="5 5"
      />
      <path d="M 40.00 163.56 L 41.00 159.67 L 42.00 170.96 L 43.00 181.67 L 44.00 200.69 L 45.00 189.55 L 46.00 185.08 L 47.00 191.39 L 48.00 202.96 L 49.00 202.96 L 50.00 197.54 L 51.00 190.42 L 52.00 189.07 L 53.00 187.79 L 54.00 183.43 L 55.00 198.26 L 56.00 201.75 L 57.00 183.36 L 58.00 158.18 L 59.00 162.05 L 60.00 200.51 L 61.00 202.96 L 62.00 199.82 L 63.00 185.19 L 64.00 185.19 L 65.00 185.19 L 66.00 185.19 L 67.00 185.19 L 68.00 144.08 L 69.00 145.65 L 70.00 157.96 L 71.00 180.01 L 72.00 187.33 L 73.00 169.73 L 74.00 157.40 L 75.00 163.01 L 76.00 187.33 L 77.00 187.33 L 78.00 180.38 L 79.00 163.55 L 80.00 159.67 L 81.00 157.50 L 82.00 168.44 L 83.00 166.38 L 84.00 182.87 L 85.00 166.04 L 86.00 100.35 L 87.00 104.52 L 88.00 142.46 L 89.00 187.33 L 90.00 187.33 L 91.00 174.59 L 92.00 173.80 L 93.00 173.80 L 94.00 173.80 L 95.00 173.80 L 96.00 97.18 L 97.00 73.19 L 98.00 121.10 L 99.00 157.06 L 100.00 177.15 L 101.00 170.78 L 102.00 161.69 L 103.00 161.69 L 104.00 172.60 L 105.00 177.15 L 106.00 174.03 L 107.00 146.33 L 108.00 141.14 L 109.00 136.78 L 110.00 123.89 L 111.00 130.81 L 112.00 168.83 L 113.00 173.51 L 114.00 149.67 L 115.00 150.71 L 116.00 168.57 L 117.00 177.15 L 118.00 177.15 L 119.00 165.46 L 120.00 161.86 L 121.00 161.86 L 122.00 161.86 L 123.00 161.86 L 124.00 80.29 L 125.00 166.53 L 126.00 171.42 L 127.00 184.13 L 128.00 193.65 L 129.00 189.68 L 130.00 172.47 L 131.00 172.47 L 132.00 187.03 L 133.00 193.65 L 134.00 193.65 L 135.00 193.45 L 136.00 188.76 L 137.00 176.51 L 138.00 162.67 L 139.00 142.27 L 140.00 175.50 L 141.00 192.20 L 142.00 182.67 L 143.00 180.54 L 144.00 187.01 L 145.00 193.65 L 146.00 193.65 L 147.00 186.24 L 148.00 180.47 L 149.00 98.29 L 150.00 74.69 L 151.00 74.69 L 152.00 36.39 L 153.00 34.00 L 154.00 172.89 L 155.00 183.15 L 156.00 195.80 L 157.00 203.03 L 158.00 185.72 L 159.00 185.36 L 160.00 195.96 L 161.00 203.39 L 162.00 203.39 L 163.00 185.20 L 164.00 175.19 L 165.00 172.88 L 166.00 170.13 L 167.00 171.94 L 168.00 191.26 L 169.00 195.67 L 170.00 194.68 L 171.00 193.53 L 172.00 195.64 L 173.00 203.39 L 174.00 203.39 L 175.00 195.28 L 176.00 183.71 L 177.00 183.71 L 178.00 183.71 L 179.00 183.71 L 180.00 182.85 L 181.00 149.71 L 182.00 154.26 L 183.00 173.57 L 184.00 186.45 L 185.00 188.51 L 186.00 162.54 L 187.00 154.56 L 188.00 167.29 L 189.00 188.51 L 190.00 188.51 L 191.00 176.80 L 192.00 161.69 L 193.00 158.60 L 194.00 159.05 L 195.00 152.16 L 196.00 160.52 L 197.00 185.27 L 198.00 170.23 L 199.00 149.88 L 200.00 152.59 L 201.00 176.52 L 202.00 188.51 L 203.00 186.26 L 204.00 176.50 L 205.00 176.50 L 206.00 176.50 L 207.00 176.50 L 208.00 176.50 L 209.00 64.53 L 210.00 56.15 L 211.00 105.35 L 212.00 169.74 L 213.00 177.15 L 214.00 167.89 L 215.00 162.84 L 216.00 162.84 L 217.00 176.30 L 218.00 177.15 L 219.00 160.04 L 220.00 110.78 L 221.00 104.99 L 222.00 97.16 L 223.00 77.43 L 224.00 79.93 L 225.00 141.18 L 226.00 161.60 L 227.00 152.15 L 228.00 153.74 L 229.00 174.54 L 230.00 177.15 L 231.00 176.87 L 232.00 163.53 L 233.00 163.25 L 234.00 163.25 L 235.00 163.25 L 236.00 163.25 L 237.00 54.88 L 238.00 102.75 L 239.00 174.71 L 240.00 187.89 L 241.00 193.65 L 242.00 184.59 L 243.00 172.95 L 244.00 172.95 L 245.00 191.06 L 246.00 193.65 L 247.00 192.12 L 248.00 183.51 L 249.00 176.28 L 250.00 164.17 L 251.00 140.44 L 252.00 128.52 L 253.00 173.68 L 254.00 191.36 L 255.00 180.80 L 256.00 181.36 L 257.00 190.09 L 258.00 193.65 L 259.00 193.65 L 260.00 183.41 L 261.00 181.04 L 262.00 181.04 L 263.00 181.04 L 264.00 181.04 L 265.00 163.94 L 266.00 156.67 L 267.00 181.12 L 268.00 190.57 L 269.00 176.24 L 270.00 175.93 L 271.00 175.93 L 272.00 187.13 L 273.00 190.86 L 274.00 190.86 L 275.00 190.86 L 276.00 190.63 L 277.00 176.57 L 278.00 117.91 L 279.00 115.71 L 280.00 161.07 L 281.00 187.82 L 282.00 189.22 L 283.00 190.86 L 284.00 190.86 L 285.00 190.86 L 286.00 176.64 L 287.00 156.32 L 288.00 166.40 L 289.00 168.56 L 290.00 168.56 L 291.00 168.56 L 292.00 168.56 L 293.00 180.09 L 294.00 174.61 L 295.00 174.60 L 296.00 182.92 L 297.00 183.48 L 298.00 183.48 L 299.00 183.48 L 300.00 183.48 L 301.00 183.48 L 302.00 183.48 L 303.00 183.48 L 304.00 183.48 L 305.00 179.98 L 306.00 178.51 L 307.00 176.35 L 308.00 176.35 L 309.00 178.80 L 310.00 180.31 L 311.00 183.48 L 312.00 183.48 L 313.00 183.48 L 314.00 182.38 L 315.00 177.27 L 316.00 181.15 L 317.00 183.48 L 318.00 183.48 L 319.00 183.48 L 320.00 183.48 L 321.00 181.57 L 322.00 194.37 L 323.00 196.23 L 324.00 192.26 L 325.00 152.83 L 326.00 128.19 L 327.00 154.92 L 328.00 199.86 L 329.00 204.68 L 330.00 204.68 L 331.00 204.68 L 332.00 204.68 L 333.00 203.89 L 334.00 145.23 L 335.00 127.26 L 336.00 127.26 L 337.00 189.77 L 338.00 203.75 L 339.00 204.68 L 340.00 204.68 L 341.00 204.68 L 342.00 204.34 L 343.00 187.56 L 344.00 188.32 L 345.00 189.93 L 346.00 189.93 L 347.00 189.93 L 348.00 189.93 L 349.00 201.92 L 350.00 196.44 L 351.00 192.62 L 352.00 195.08 L 353.00 196.99 L 354.00 196.99 L 355.00 196.99 L 356.00 196.99 L 357.00 196.99 L 358.00 196.99 L 359.00 196.99 L 360.00 196.99 L 361.00 195.84 L 362.00 194.83 L 363.00 193.31 L 364.00 193.23 L 365.00 193.94 L 366.00 194.85 L 367.00 196.78 L 368.00 196.99 L 369.00 196.99 L 370.00 196.99 L 371.00 186.29 L 372.00 186.29 L 373.00 196.99 L 374.00 196.99 L 375.00 196.99 L 376.00 196.99 L 377.00 196.99 L 378.00 184.54 L 379.00 174.07 L 380.00 174.07 L 381.00 180.16 L 382.00 183.48 L 383.00 183.48 L 384.00 183.48 L 385.00 183.48 L 386.00 183.48 L 387.00 183.48 L 388.00 178.16 L 389.00 152.65 L 390.00 146.99 L 391.00 142.42 L 392.00 140.90 L 393.00 142.69 L 394.00 146.99 L 395.00 155.75 L 396.00 183.48 L 397.00 183.48 L 398.00 183.48 L 399.00 183.48 L 400.00 183.48 L 401.00 183.48 L 402.00 183.48 L 403.00 183.48 L 404.00 183.48 L 405.00 183.48 L 406.00 142.76 L 407.00 152.90 L 408.00 155.71 L 409.00 168.82 L 410.00 193.16 L 411.00 196.63 L 412.00 182.49 L 413.00 182.49 L 414.00 200.17 L 415.00 202.52 L 416.00 201.93 L 417.00 170.53 L 418.00 166.96 L 419.00 164.53 L 420.00 164.36 L 421.00 181.63 L 422.00 198.48 L 423.00 201.88 L 424.00 145.53 L 425.00 146.57 L 426.00 175.06 L 427.00 202.52 L 428.00 202.52 L 429.00 190.10 L 430.00 182.64 L 431.00 182.64 L 432.00 182.64 L 433.00 182.64 L 434.00 171.54 L 435.00 171.99 L 436.00 171.99 L 437.00 182.32 L 438.00 192.82 L 439.00 191.42 L 440.00 169.01 L 441.00 169.01 L 442.00 177.41 L 443.00 192.82 L 444.00 192.82 L 445.00 174.75 L 446.00 163.82 L 447.00 140.03 L 448.00 137.18 L 449.00 137.16 L 450.00 147.71 L 451.00 171.14 L 452.00 133.59 L 453.00 123.82 L 454.00 178.61 L 455.00 192.82 L 456.00 192.82 L 457.00 183.18 L 458.00 169.41 L 459.00 169.41 L 460.00 169.41 L 461.00 169.41 L 462.00 150.95 L 463.00 104.01 L 464.00 102.71 L 465.00 122.58 L 466.00 201.24 L 467.00 201.24 L 468.00 191.15 L 469.00 189.71 L 470.00 195.14 L 471.00 201.24 L 472.00 201.24 L 473.00 201.24 L 474.00 200.04 L 475.00 199.51 L 476.00 196.80 L 477.00 168.90 L 478.00 169.84 L 479.00 176.01 L 480.00 156.50 L 481.00 122.04 L 482.00 134.39 L 483.00 152.28 L 484.00 143.68 L 485.00 141.28 L 486.00 121.86 L 487.00 132.40 L 488.00 181.59 L 489.00 185.30 L 490.00 186.54 L 491.00 210.22 L 492.00 212.00 L 493.00 212.00 L 494.00 212.00 L 495.00 212.00 L 496.00 212.00 L 497.00 212.00 L 498.00 212.00 L 499.00 212.00 L 500.00 212.00 L 501.00 212.00 L 502.00 212.00 L 503.00 212.00 L 504.00 212.00 L 505.00 212.00 L 506.00 212.00 L 507.00 212.00 L 508.00 212.00 L 509.00 212.00 L 510.00 212.00 L 511.00 212.00 L 512.00 212.00 L 513.00 212.00 L 514.00 212.00 L 515.00 212.00 L 516.00 212.00 L 517.00 212.00 L 518.00 212.00 L 519.00 212.00 L 520.00 212.00 L 521.00 212.00 L 522.00 212.00 L 523.00 212.00 L 524.00 212.00 L 525.00 212.00 L 526.00 212.00 L 527.00 212.00 L 528.00 212.00 L 529.00 212.00 L 530.00 212.00 L 531.00 212.00 L 532.00 212.00 L 533.00 212.00 L 534.00 212.00 L 535.00 212.00 L 536.00 212.00 L 537.00 212.00 L 538.00 212.00 L 539.00 212.00 L 540.00 212.00 L 541.00 212.00 L 542.00 212.00 L 543.00 212.00 L 544.00 212.00 L 545.00 212.00 L 546.00 212.00 L 547.00 212.00 L 548.00 212.00 L 549.00 212.00 L 550.00 212.00 L 551.00 212.00 L 552.00 212.00 L 553.00 212.00 L 554.00 212.00 L 555.00 212.00 L 556.00 212.00 L 557.00 212.00 L 558.00 212.00 L 559.00 212.00 L 560.00 212.00 L 561.00 212.00 L 562.00 212.00 L 563.00 212.00 L 564.00 212.00 L 565.00 212.00 L 566.00 212.00 L 567.00 212.00 L 568.00 212.00 L 569.00 212.00 L 570.00 212.00 L 571.00 212.00 L 572.00 212.00 L 573.00 212.00 L 574.00 212.00 L 575.00 212.00 L 576.00 212.00 L 577.00 212.00 L 578.00 212.00 L 579.00 212.00 L 580.00 212.00 L 581.00 212.00 L 582.00 212.00 L 583.00 212.00 L 584.00 212.00 L 585.00 212.00 L 586.00 212.00 L 587.00 212.00 L 588.00 212.00 L 589.00 212.00 L 590.00 212.00 L 591.00 212.00 L 592.00 212.00 L 593.00 212.00 L 594.00 212.00 L 595.00 212.00 L 596.00 212.00 L 597.00 212.00 L 598.00 212.00 L 599.00 212.00 L 600.00 212.00 L 601.00 212.00 L 602.00 212.00 L 603.00 212.00 L 604.00 212.00 L 605.00 212.00 L 606.00 212.00 L 607.00 212.00 L 608.00 212.00 L 609.00 212.00 L 610.00 212.00 L 611.00 212.00 L 612.00 212.00 L 613.00 212.00 L 614.00 212.00 L 615.00 212.00 L 616.00 212.00 L 617.00 212.00 L 618.00 212.00 L 619.00 212.00 L 620.00 212.00 L 621.00 212.00 L 622.00 212.00 L 623.00 212.00 L 624.00 212.00 L 625.00 212.00 L 626.00 212.00 L 627.00 212.00 L 628.00 212.00 L 629.00 212.00 L 630.00 212.00 L 631.00 212.00 L 632.00 212.00 L 633.00 212.00 L 634.00 212.00 L 635.00 212.00 L 636.00 212.00 L 637.00 212.00 L 638.00 212.00 L 639.00 212.00 L 640.00 212.00 L 641.00 212.00 L 642.00 212.00 L 643.00 212.00 L 644.00 212.00 L 645.00 212.00 L 646.00 212.00 L 647.00 212.00 L 648.00 212.00 L 649.00 212.00 L 650.00 212.00 L 651.00 212.00 L 652.00 212.00 L 653.00 212.00 L 654.00 212.00 L 655.00 212.00 L 656.00 212.00 L 657.00 212.00 L 658.00 212.00 L 659.00 212.00 L 660.00 212.00 L 661.00 212.00 L 662.00 212.00 L 663.00 212.00 L 664.00 212.00 L 665.00 212.00 L 666.00 212.00 L 667.00 212.00 L 668.00 212.00 L 669.00 212.00 L 670.00 212.00 L 671.00 212.00 L 672.00 212.00 L 673.00 212.00 L 674.00 212.00 L 675.00 212.00 L 676.00 212.00 L 677.00 212.00 L 678.00 212.00 L 679.00 212.00 L 680.00 212.00 L 681.00 212.00 L 682.00 212.00 L 683.00 212.00 L 684.00 212.00 L 685.00 212.00 L 686.00 212.00 L 687.00 212.00 L 688.00 212.00 L 689.00 212.00 L 690.00 212.00 L 691.00 212.00 L 692.00 212.00 L 693.00 212.00 L 694.00 212.00 L 695.00 212.00 L 696.00 212.00 L 697.00 212.00 L 698.00 212.00 L 699.00 212.00 L 700.00 212.00 L 701.00 212.00 L 702.00 212.00 L 703.00 212.00 L 704.00 212.00 L 705.00 212.00 L 706.00 212.00 L 707.00 212.00 L 708.00 212.00 L 709.00 212.00 L 710.00 212.00 L 711.00 212.00 L 712.00 212.00 L 713.00 212.00 L 714.00 212.00 L 715.00 212.00 L 716.00 212.00 L 717.00 212.00 L 718.00 212.00 L 719.00 212.00 L 720.00 212.00 L 721.00 212.00 L 722.00 212.00 L 723.00 212.00 L 724.00 212.00 L 725.00 212.00 L 726.00 212.00 L 727.00 212.00 L 728.00 212.00 L 729.00 212.00 L 730.00 212.00 L 731.00 212.00 L 732.00 212.00 L 733.00 212.00 L 734.00 212.00 L 735.00 212.00 L 736.00 212.00 L 737.00 212.00 L 738.00 212.00 L 739.00 212.00 L 740.00 212.00 L 741.00 212.00 L 742.00 212.00 L 743.00 212.00 L 744.00 212.00 L 745.00 212.00 L 746.00 212.00 L 747.00 212.00 L 748.00 212.00 L 749.00 212.00 L 750.00 212.00 L 751.00 212.00 L 752.00 212.00 L 753.00 212.00 L 754.00 212.00 L 755.00 212.00 L 756.00 212.00 L 757.00 212.00 L 758.00 212.00 L 759.00 212.00 L 760.00 212.00 L 761.00 212.00 L 762.00 212.00 L 763.00 212.00 L 764.00 212.00 L 765.00 212.00 L 766.00 212.00 L 767.00 212.00 L 768.00 212.00 L 769.00 212.00 L 770.00 212.00 L 771.00 212.00 L 772.00 212.00 L 773.00 212.00 L 774.00 212.00 L 775.00 212.00 L 776.00 212.00 L 777.00 212.00 L 778.00 212.00 L 779.00 212.00 L 780.00 212.00 L 781.00 212.00 L 782.00 212.00 L 783.00 212.00 L 784.00 212.00 L 785.00 212.00 L 786.00 212.00 L 787.00 212.00 L 788.00 212.00 L 789.00 212.00 L 790.00 212.00 L 791.00 212.00 L 792.00 212.00 L 793.00 212.00 L 794.00 212.00 L 795.00 212.00 L 796.00 212.00 L 797.00 212.00 L 798.00 212.00 L 799.00 212.00 L 800.00 212.00 L 801.00 212.00 L 802.00 212.00 L 803.00 212.00 L 804.00 212.00 L 805.00 212.00 L 806.00 212.00 L 807.00 212.00 L 808.00 212.00 L 809.00 212.00 L 810.00 212.00 L 811.00 212.00 L 812.00 212.00 L 813.00 212.00 L 814.00 212.00 L 815.00 212.00 L 816.00 212.00 L 817.00 212.00 L 818.00 212.00 L 819.00 212.00 L 820.00 212.00 L 821.00 212.00 L 822.00 212.00 L 823.00 212.00 L 824.00 212.00 L 825.00 212.00 L 826.00 212.00 L 827.00 212.00 L 828.00 212.00 L 829.00 212.00 L 830.00 212.00 L 831.00 212.00 L 832.00 212.00 L 833.00 212.00 L 834.00 212.00 L 835.00 212.00 L 836.00 212.00 L 837.00 212.00 L 838.00 212.00 L 839.00 212.00 L 840.00 212.00 L 841.00 212.00 L 842.00 212.00 L 843.00 212.00 L 844.00 212.00 L 845.00 212.00 L 846.00 212.00 L 847.00 212.00 L 848.00 212.00 L 849.00 212.00 L 850.00 212.00 L 851.00 212.00 L 852.00 212.00 L 853.00 212.00 L 854.00 212.00 L 855.00 212.00 L 856.00 212.00 L 857.00 212.00 L 858.00 212.00 L 859.00 212.00 L 860.00 212.00 L 861.00 212.00 L 862.00 212.00 L 863.00 212.00 L 864.00 212.00 L 865.00 212.00 L 866.00 212.00 L 867.00 212.00 L 868.00 212.00 L 869.00 212.00 L 870.00 212.00 L 871.00 212.00 L 872.00 212.00 L 873.00 212.00 L 874.00 212.00 L 875.00 212.00 L 876.00 212.00 L 877.00 212.00 L 878.00 212.00 L 879.00 212.00 L 880.00 212.00 L 881.00 212.00 L 882.00 212.00 L 883.00 212.00 L 884.00 212.00 L 885.00 212.00 L 886.00 212.00 L 887.00 212.00 L 888.00 212.00 L 889.00 212.00 L 890.00 212.00 L 891.00 212.00 L 892.00 212.00 L 893.00 212.00 L 894.00 212.00 L 895.00 212.00 L 896.00 212.00 L 897.00 212.00 L 898.00 212.00 L 899.00 212.00 L 900.00 212.00 L 901.00 212.00 L 902.00 212.00 L 903.00 212.00 L 904.00 212.00 L 905.00 212.00 L 906.00 212.00 L 907.00 212.00 L 908.00 212.00 L 909.00 212.00 L 910.00 212.00 L 911.00 212.00 L 912.00 212.00 L 913.00 212.00 L 914.00 212.00 L 915.00 212.00 L 916.00 212.00 L 917.00 212.00 L 918.00 212.00 L 919.00 212.00 L 920.00 212.00 L 921.00 212.00 L 922.00 212.00 L 923.00 212.00 L 924.00 212.00 L 925.00 212.00 L 926.00 212.00 L 927.00 212.00 L 928.00 212.00 L 929.00 212.00 L 930.00 212.00 L 931.00 212.00 L 932.00 212.00 L 933.00 212.00 L 934.00 212.00 L 935.00 212.00 L 936.00 212.00 L 937.00 212.00 L 938.00 212.00 L 939.00 212.00 L 940.00 212.00 L 941.00 212.00" fill="none" stroke="#9a5b4f" stroke-width="1.8" />
      <text x="18" y="22" font-size="14" fill="#51656d">Roughness</text>
      <text x="18" y="40" font-size="11" fill="#7a8a83">Windowed symbolic roughness aligned to the render</text>
      <text x="40.00" y="230" text-anchor="middle" font-size="11" fill="#71827b">0.0s</text><text x="265.50" y="230" text-anchor="middle" font-size="11" fill="#71827b">22.2s</text><text x="491.00" y="230" text-anchor="middle" font-size="11" fill="#71827b">44.4s</text><text x="716.50" y="230" text-anchor="middle" font-size="11" fill="#71827b">66.7s</text><text x="942.00" y="230" text-anchor="middle" font-size="11" fill="#71827b">88.9s</text>
    </svg>