<svg xmlns="http://www.w3.org/2000/svg" viewBox="0 0 960 400" width="960" height="400" role="img">
      <rect width="960" height="400" fill="#f7f9f7" />
      <rect x="54.00" y="40" width="55.50" height="318" fill="#fafcfa" /><rect x="109.50" y="40" width="55.50" height="318" fill="#f4f7f4" /><rect x="165.00" y="40" width="55.50" height="318" fill="#fafcfa" /><rect x="220.50" y="40" width="55.50" height="318" fill="#f4f7f4" /><rect x="276.00" y="40" width="55.50" height="318" fill="#fafcfa" /><rect x="331.50" y="40" width="55.50" height="318" fill="#f4f7f4" /><rect x="387.00" y="40" width="55.50" height="318" fill="#fafcfa" /><rect x="442.50" y="40" width="55.50" height="318" fill="#f4f7f4" /><rect x="498.00" y="40" width="55.50" height="318" fill="#fafcfa" /><rect x="553.50" y="40" width="55.50" height="318" fill="#f4f7f4" /><rect x="609.00" y="40" width="55.50" height="318" fill="#fafcfa" /><rect x="664.50" y="40" width="55.50" height="318" fill="#f4f7f4" /><rect x="720.00" y="40" width="55.50" height="318" fill="#fafcfa" /><rect x="775.50" y="40" width="55.50" height="318" fill="#f4f7f4" /><rect x="831.00" y="40" width="55.50" height="318" fill="#fafcfa" /><rect x="886.50" y="40" width="55.50" height="318" fill="#f4f7f4" />
      <line x1="54.00" y1="40" x2="54.00" y2="358" stroke="#c7d2cb" stroke-width="1.2" /><line x1="72.50" y1="40" x2="72.50" y2="358" stroke="#e5ebe7" stroke-width="0.8" /><line x1="91.00" y1="40" x2="91.00" y2="358" stroke="#e5ebe7" stroke-width="0.8" /><line x1="109.50" y1="40" x2="109.50" y2="358" stroke="#c7d2cb" stroke-width="1.2" /><line x1="128.00" y1="40" x2="128.00" y2="358" stroke="#e5ebe7" stroke-width="0.8" /><line x1="146.50" y1="40" x2="146.50" y2="358" stroke="#e5ebe7" stroke-width="0.8" /><line x1="165.00" y1="40" x2="165.00" y2="358" stroke="#c7d2cb" stroke-width="1.2" /><line x1="183.50" y1="40" x2="183.50" y2="358" stroke="#e5ebe7" stroke-width="0.8" /><line x1="202.00" y1="40" x2="202.00" y2="358" stroke="#e5ebe7" stroke-width="0.8" /><line x1="220.50" y1="40" x2="220.50" y2="358" stroke="#c7d2cb" stroke-width="1.2" /><line x1="239.00" y1="40" x2="239.00" y2="358" stroke="#e5ebe7" stroke-width="0.8" /><line x1="257.50" y1="40" x2="257.50" y2="358" stroke="#e5ebe7" stroke-width="0.8" /><line x1="276.00" y1="40" x2="276.00" y2="358" stroke="#c7d2cb" stroke-width="1.2" /><line x1="294.50" y1="40" x2="294.50" y2="358" stroke="#e5ebe7" stroke-width="0.8" /><line x1="313.00" y1="40" x2="313.00" y2="358" stroke="#e5ebe7" stroke-width="0.8" /><line x1="331.50" y1="40" x2="331.50" y2="358" stroke="#c7d2cb" stroke-width="1.2" /><line x1="350.00" y1="40" x2="350.00" y2="358" stroke="#e5ebe7" stroke-width="0.8" /><line x1="368.50" y1="40" x2="368.50" y2="358" stroke="#e5ebe7" stroke-width="0.8" /><line x1="387.00" y1="40" x2="387.00" y2="358" stroke="#c7d2cb" stroke-width="1.2" /><line x1="405.50" y1="40" x2="405.50" y2="358" stroke="#e5ebe7" stroke-width="0.8" /><line x1="424.00" y1="40" x2="424.00" y2="358" stroke="#e5ebe7" stroke-width="0.8" /><line x1="442.50" y1="40" x2="442.50" y2="358" stroke="#c7d2cb" stroke-width="1.2" /><line x1="461.00" y1="40" x2="461.00" y2="358" stroke="#e5ebe7" stroke-width="0.8" /><line x1="479.50" y1="40" x2="479.50" y2="358" stroke="#e5ebe7" stroke-width="0.8" /><line x1="498.00" y1="40" x2="498.00" y2="358" stroke="#c7d2cb" stroke-width="1.2" /><line x1="516.50" y1="40" x2="516.50" y2="358" stroke="#e5ebe7" stroke-width="0.8" /><line x1="535.00" y1="40" x2="535.00" y2="358" stroke="#e5ebe7" stroke-width="0.8" /><line x1="553.50" y1="40" x2="553.50" y2="358" stroke="#c7d2cb" stroke-width="1.2" /><line x1="572.00" y1="40" x2="572.00" y2="358" stroke="#e5ebe7" stroke-width="0.8" /><line x1="590.50" y1="40" x2="590.50" y2="358" stroke="#e5ebe7" stroke-width="0.8" /><line x1="609.00" y1="40" x2="609.00" y2="358" stroke="#c7d2cb" stroke-width="1.2" /><line x1="627.50" y1="40" x2="627.50" y2="358" stroke="#e5ebe7" stroke-width="0.8" /><line x1="646.00" y1="40" x2="646.00" y2="358" stroke="#e5ebe7" stroke-width="0.8" /><line x1="664.50" y1="40" x2="664.50" y2="358" stroke="#c7d2cb" stroke-width="1.2" /><line x1="683.00" y1="40" x2="683.00" y2="358" stroke="#e5ebe7" stroke-width="0.8" /><line x1="701.50" y1="40" x2="701.50" y2="358" stroke="#e5ebe7" stroke-width="0.8" /><line x1="720.00" y1="40" x2="720.00" y2="358" stroke="#c7d2cb" stroke-width="1.2" /><line x1="738.50" y1="40" x2="738.50" y2="358" stroke="#e5ebe7" stroke-width="0.8" /><line x1="757.00" y1="40" x2="757.00" y2="358" stroke="#e5ebe7" stroke-width="0.8" /><line x1="775.50" y1="40" x2="775.50" y2="358" stroke="#c7d2cb" stroke-width="1.2" /><line x1="794.00" y1="40" x2="794.00" y2="358" stroke="#e5ebe7" stroke-width="0.8" /><line x1="812.50" y1="40" x2="812.50" y2="358" stroke="#e5ebe7" stroke-width="0.8" /><line x1="831.00" y1="40" x2="831.00" y2="358" stroke="#c7d2cb" stroke-width="1.2" /><line x1="849.50" y1="40" x2="849.50" y2="358" stroke="#e5ebe7" stroke-width="0.8" /><line x1="868.00" y1="40" x2="868.00" y2="358" stroke="#e5ebe7" stroke-width="0.8" /><line x1="886.50" y1="40" x2="886.50" y2="358" stroke="#c7d2cb" stroke-width="1.2" /><line x1="905.00" y1="40" x2="905.00" y2="358" stroke="#e5ebe7" stroke-width="0.8" /><line x1="923.50" y1="40" x2="923.50" y2="358" stroke="#e5ebe7" stroke-width="0.8" /><line x1="942.00" y1="40" x2="942.00" y2="358" stroke="#c7d2cb" stroke-width="1.2" />
      <rect x="54.00" y="323.00" width="7.77" height="9" rx="3" fill="#7d5c3c" opacity="0.82" /><rect x="54.00" y="251.00" width="55.50" height="9" rx="3" fill="#a9b8b0" opacity="0.28" /><rect x="54.00" y="107.00" width="16.65" height="9" rx="3" fill="#245464" opacity="0.82" /><rect x="54.00" y="65.00" width="13.88" height="9" rx="3" fill="#4a7d77" opacity="0.82" /><rect x="54.22" y="233.00" width="55.50" height="9" rx="3" fill="#a9b8b0" opacity="0.28" /><rect x="54.44" y="209.00" width="55.50" height="9" rx="3" fill="#a9b8b0" opacity="0.28" /><rect x="54.67" y="167.00" width="55.50" height="9" rx="3" fill="#a9b8b0" opacity="0.28" /><rect x="72.50" y="353.00" width="7.77" height="9" rx="3" fill="#7d5c3c" opacity="0.82" /><rect x="72.50" y="89.00" width="8.32" height="9" rx="3" fill="#245464" opacity="0.82" /><rect x="81.75" y="95.00" width="7.40" height="9" rx="3" fill="#245464" opacity="0.82" /><rect x="91.00" y="305.00" width="7.77" height="9" rx="3" fill="#7d5c3c" opacity="0.82" /><rect x="91.00" y="107.00" width="15.17" height="9" rx="3" fill="#245464" opacity="0.82" /><rect x="109.50" y="293.00" width="7.77" height="9" rx="3" fill="#7d5c3c" opacity="0.82" /><rect x="109.50" y="221.00" width="55.50" height="9" rx="3" fill="#a9b8b0" opacity="0.28" /><rect x="109.50" y="107.00" width="16.28" height="9" rx="3" fill="#245464" opacity="0.82" /><rect x="109.72" y="203.00" width="55.50" height="9" rx="3" fill="#a9b8b0" opacity="0.28" /><rect x="109.94" y="179.00" width="55.50" height="9" rx="3" fill="#a9b8b0" opacity="0.28" /><rect x="110.17" y="161.00" width="55.50" height="9" rx="3" fill="#a9b8b0" opacity="0.28" /><rect x="128.00" y="323.00" width="7.77" height="9" rx="3" fill="#7d5c3c" opacity="0.82" /><rect x="128.00" y="77.00" width="7.77" height="9" rx="3" fill="#245464" opacity="0.82" /><rect x="137.25" y="89.00" width="6.66" height="9" rx="3" fill="#245464" opacity="0.82" /><rect x="146.50" y="347.00" width="7.77" height="9" rx="3" fill="#7d5c3c" opacity="0.82" /><rect x="146.50" y="107.00" width="16.28" height="9" rx="3" fill="#245464" opacity="0.82" /><rect x="165.00" y="305.00" width="7.77" height="9" rx="3" fill="#7d5c3c" opacity="0.82" /><rect x="165.00" y="209.00" width="55.50" height="9" rx="3" fill="#a9b8b0" opacity="0.28" /><rect x="165.00" y="119.00" width="12.95" height="9" rx="3" fill="#245464" opacity="0.82" /><rect x="165.22" y="191.00" width="55.50" height="9" rx="3" fill="#a9b8b0" opacity="0.28" /><rect x="165.44" y="161.00" width="55.50" height="9" rx="3" fill="#a9b8b0" opacity="0.28" /><rect x="183.50" y="335.00" width="7.77" height="9" rx="3" fill="#7d5c3c" opacity="0.82" /><rect x="183.50" y="119.00" width="8.33" height="9" rx="3" fill="#245464" opacity="0.82" /><rect x="192.75" y="119.00" width="7.40" height="9" rx="3" fill="#245464" opacity="0.82" /><rect x="202.00" y="353.00" width="7.77" height="9" rx="3" fill="#7d5c3c" opacity="0.82" /><rect x="202.00" y="137.00" width="18.50" height="9" rx="3" fill="#245464" opacity="0.82" /><rect x="220.50" y="353.00" width="7.77" height="9" rx="3" fill="#7d5c3c" opacity="0.82" /><rect x="220.50" y="281.00" width="55.50" height="9" rx="3" fill="#a9b8b0" opacity="0.28" /><rect x="220.50" y="95.00" width="15.17" height="9" rx="3" fill="#245464" opacity="0.82" /><rect x="220.72" y="257.00" width="55.50" height="9" rx="3" fill="#a9b8b0" opacity="0.28" /><rect x="220.94" y="239.00" width="55.50" height="9" rx="3" fill="#a9b8b0" opacity="0.28" /><rect x="239.00" y="311.00" width="7.77" height="9" rx="3" fill="#7d5c3c" opacity="0.82" /><rect x="239.00" y="95.00" width="7.03" height="9" rx="3" fill="#245464" opacity="0.82" /><rect x="248.25" y="95.00" width="5.92" height="9" rx="3" fill="#245464" opacity="0.82" /><rect x="257.50" y="329.00" width="7.77" height="9" rx="3" fill="#7d5c3c" opacity="0.82" /><rect x="257.50" y="95.00" width="17.02" height="9" rx="3" fill="#245464" opacity="0.82" /><rect x="276.00" y="347.00" width="7.77" height="9" rx="3" fill="#7d5c3c" opacity="0.82" /><rect x="276.00" y="275.00" width="55.50" height="9" rx="3" fill="#a9b8b0" opacity="0.28" /><rect x="276.00" y="89.00" width="18.13" height="9" rx="3" fill="#245464" opacity="0.82" /><rect x="276.22" y="251.00" width="55.50" height="9" rx="3" fill="#a9b8b0" opacity="0.28" /><rect x="276.44" y="233.00" width="55.50" height="9" rx="3" fill="#a9b8b0" opacity="0.28" /><rect x="276.67" y="209.00" width="55.50" height="9" rx="3" fill="#a9b8b0" opacity="0.28" /><rect x="285.25" y="179.00" width="18.50" height="9" rx="3" fill="#64757d" opacity="0.82" /><rect x="294.50" y="305.00" width="7.77" height="9" rx="3" fill="#7d5c3c" opacity="0.82" /><rect x="294.50" y="89.00" width="8.32" height="9" rx="3" fill="#245464" opacity="0.82" /><rect x="303.75" y="89.00" width="13.88" height="9" rx="3" fill="#4a7d77" opacity="0.82" /><rect x="303.75" y="89.00" width="7.40" height="9" rx="3" fill="#245464" opacity="0.82" /><rect x="313.00" y="323.00" width="7.77" height="9" rx="3" fill="#7d5c3c" opacity="0.82" /><rect x="313.00" y="89.00" width="14.80" height="9" rx="3" fill="#245464" opacity="0.82" /><rect x="331.50" y="305.00" width="7.77" height="9" rx="3" fill="#7d5c3c" opacity="0.82" /><rect x="331.50" y="209.00" width="55.50" height="9" rx="3" fill="#a9b8b0" opacity="0.28" /><rect x="331.50" y="137.00" width="16.28" height="9" rx="3" fill="#245464" opacity="0.82" /><rect x="331.72" y="191.00" width="55.50" height="9" rx="3" fill="#a9b8b0" opacity="0.28" /><rect x="331.94" y="161.00" width="55.50" height="9" rx="3" fill="#a9b8b0" opacity="0.28" /><rect x="350.00" y="335.00" width="7.77" height="9" rx="3" fill="#7d5c3c" opacity="0.82" /><rect x="350.00" y="137.00" width="7.77" height="9" rx="3" fill="#245464" opacity="0.82" /><rect x="354.63" y="191.00" width="13.88" height="9" rx="3" fill="#64757d" opacity="0.82" /><rect x="359.25" y="137.00" width="6.66" height="9" rx="3" fill="#245464" opacity="0.82" /><rect x="368.50" y="353.00" width="7.77" height="9" rx="3" fill="#7d5c3c" opacity="0.82" /><rect x="368.50" y="89.00" width="15.54" height="9" rx="3" fill="#245464" opacity="0.82" /><rect x="387.00" y="293.00" width="7.77" height="9" rx="3" fill="#7d5c3c" opacity="0.82" /><rect x="387.00" y="221.00" width="55.50" height="9" rx="3" fill="#a9b8b0" opacity="0.28" /><rect x="387.22" y="203.00" width="55.50" height="9" rx="3" fill="#a9b8b0" opacity="0.28" /><rect x="387.44" y="179.00" width="55.50" height="9" rx="3" fill="#a9b8b0" opacity="0.28" /><rect x="387.67" y="161.00" width="55.50" height="9" rx="3" fill="#a9b8b0" opacity="0.28" /><rect x="389.77" y="107.00" width="14.80" height="9" rx="3" fill="#245464" opacity="0.82" /><rect x="405.50" y="323.00" width="7.77" height="9" rx="3" fill="#7d5c3c" opacity="0.82" /><rect x="405.50" y="167.00" width="19.98" height="9" rx="3" fill="#64757d" opacity="0.82" /><rect x="408.27" y="119.00" width="8.33" height="9" rx="3" fill="#245464" opacity="0.82" /><rect x="417.52" y="131.00" width="7.40" height="9" rx="3" fill="#245464" opacity="0.82" /><rect x="424.00" y="347.00" width="7.77" height="9" rx="3" fill="#7d5c3c" opacity="0.82" /><rect x="426.77" y="77.00" width="12.95" height="9" rx="3" fill="#245464" opacity="0.82" /><rect x="442.50" y="353.00" width="7.77" height="9" rx="3" fill="#7d5c3c" opacity="0.82" /><rect x="442.50" y="281.00" width="55.50" height="9" rx="3" fill="#a9b8b0" opacity="0.28" /><rect x="442.50" y="95.00" width="15.17" height="9" rx="3" fill="#245464" opacity="0.82" /><rect x="442.72" y="257.00" width="55.50" height="9" rx="3" fill="#a9b8b0" opacity="0.28" /><rect x="442.94" y="239.00" width="55.50" height="9" rx="3" fill="#a9b8b0" opacity="0.28" /><rect x="461.00" y="311.00" width="7.77" height="9" rx="3" fill="#7d5c3c" opacity="0.82" /><rect x="461.00" y="95.00" width="7.03" height="9" rx="3" fill="#245464" opacity="0.82" /><rect x="470.25" y="95.00" width="5.92" height="9" rx="3" fill="#245464" opacity="0.82" /><rect x="479.50" y="329.00" width="7.77" height="9" rx="3" fill="#7d5c3c" opacity="0.82" /><rect x="479.50" y="95.00" width="17.02" height="9" rx="3" fill="#245464" opacity="0.82" /><rect x="498.00" y="305.00" width="11.10" height="9" rx="3" fill="#7d5c3c" opacity="0.82" /><rect x="498.00" y="233.00" width="111.00" height="9" rx="3" fill="#8f9e98" opacity="0.82" /><rect x="498.00" y="209.00" width="55.50" height="9" rx="3" fill="#a9b8b0" opacity="0.28" /><rect x="498.00" y="119.00" width="20.53" height="9" rx="3" fill="#245464" opacity="0.82" /><rect x="498.22" y="191.00" width="55.50" height="9" rx="3" fill="#a9b8b0" opacity="0.28" /><rect x="498.44" y="167.00" width="55.50" height="9" rx="3" fill="#a9b8b0" opacity="0.28" /><rect x="498.67" y="161.00" width="55.50" height="9" rx="3" fill="#a9b8b0" opacity="0.28" /><rect x="517.42" y="137.00" width="7.40" height="9" rx="3" fill="#245464" opacity="0.82" /><rect x="525.75" y="335.00" width="11.10" height="9" rx="3" fill="#7d5c3c" opacity="0.82" /><rect x="525.75" y="161.00" width="8.32" height="9" rx="3" fill="#245464" opacity="0.82" /><rect x="535.92" y="119.00" width="12.58" height="9" rx="3" fill="#245464" opacity="0.82" /><rect x="553.50" y="335.00" width="11.10" height="9" rx="3" fill="#7d5c3c" opacity="0.82" /><rect x="553.50" y="251.00" width="55.50" height="9" rx="3" fill="#a9b8b0" opacity="0.28" /><rect x="553.50" y="149.00" width="23.31" height="9" rx="3" fill="#245464" opacity="0.82" /><rect x="553.72" y="221.00" width="55.50" height="9" rx="3" fill="#a9b8b0" opacity="0.28" /><rect x="553.94" y="191.00" width="55.50" height="9" rx="3" fill="#a9b8b0" opacity="0.28" /><rect x="576.07" y="161.00" width="6.66" height="9" rx="3" fill="#245464" opacity="0.82" /><rect x="581.25" y="293.00" width="11.10" height="9" rx="3" fill="#7d5c3c" opacity="0.82" /><rect x="584.21" y="149.00" width="7.77" height="9" rx="3" fill="#245464" opacity="0.82" /><rect x="594.20" y="149.00" width="13.32" height="9" rx="3" fill="#245464" opacity="0.82" /><rect x="609.00" y="293.00" width="11.10" height="9" rx="3" fill="#7d5c3c" opacity="0.82" /><rect x="609.00" y="281.00" width="111.00" height="9" rx="3" fill="#8f9e98" opacity="0.82" /><rect x="609.00" y="221.00" width="55.50" height="9" rx="3" fill="#a9b8b0" opacity="0.28" /><rect x="609.22" y="203.00" width="55.50" height="9" rx="3" fill="#a9b8b0" opacity="0.28" /><rect x="609.44" y="179.00" width="55.50" height="9" rx="3" fill="#a9b8b0" opacity="0.28" /><rect x="609.67" y="161.00" width="55.50" height="9" rx="3" fill="#a9b8b0" opacity="0.28" /><rect x="618.25" y="131.00" width="17.02" height="9" rx="3" fill="#245464" opacity="0.82" /><rect x="636.75" y="323.00" width="11.10" height="9" rx="3" fill="#7d5c3c" opacity="0.82" /><rect x="641.38" y="137.00" width="16.28" height="9" rx="3" fill="#245464" opacity="0.82" /><rect x="664.50" y="353.00" width="11.10" height="9" rx="3" fill="#7d5c3c" opacity="0.82" /><rect x="664.50" y="281.00" width="55.50" height="9" rx="3" fill="#a9b8b0" opacity="0.28" /><rect x="664.72" y="257.00" width="55.50" height="9" rx="3" fill="#a9b8b0" opacity="0.28" /><rect x="664.94" y="239.00" width="55.50" height="9" rx="3" fill="#a9b8b0" opacity="0.28" /><rect x="692.25" y="311.00" width="11.10" height="9" rx="3" fill="#7d5c3c" opacity="0.82" /><rect x="692.25" y="119.00" width="12.21" height="9" rx="3" fill="#4a7d77" opacity="0.82" /><rect x="710.75" y="65.00" width="13.88" height="9" rx="3" fill="#4a7d77" opacity="0.82" /><rect x="720.00" y="347.00" width="24.98" height="9" rx="3" fill="#7d5c3c" opacity="0.82" /><rect x="720.00" y="275.00" width="55.50" height="9" rx="3" fill="#a9b8b0" opacity="0.28" /><rect x="720.00" y="203.00" width="18.50" height="9" rx="3" fill="#64757d" opacity="0.82" /><rect x="720.22" y="251.00" width="55.50" height="9" rx="3" fill="#a9b8b0" opacity="0.28" /><rect x="720.44" y="233.00" width="55.50" height="9" rx="3" fill="#a9b8b0" opacity="0.28" /><rect x="720.67" y="209.00" width="55.50" height="9" rx="3" fill="#a9b8b0" opacity="0.28" /><rect x="729.25" y="179.00" width="18.50" height="9" rx="3" fill="#64757d" opacity="0.82" /><rect x="747.75" y="305.00" width="21.27" height="9" rx="3" fill="#7d5c3c" opacity="0.82" /><rect x="775.50" y="323.00" width="8.88" height="9" rx="3" fill="#7d5c3c" opacity="0.82" /><rect x="775.50" y="251.00" width="55.50" height="9" rx="3" fill="#a9b8b0" opacity="0.28" /><rect x="775.50" y="107.00" width="18.87" height="9" rx="3" fill="#245464" opacity="0.82" /><rect x="775.72" y="233.00" width="55.50" height="9" rx="3" fill="#a9b8b0" opacity="0.28" /><rect x="775.94" y="209.00" width="55.50" height="9" rx="3" fill="#a9b8b0" opacity="0.28" /><rect x="776.17" y="191.00" width="55.50" height="9" rx="3" fill="#a9b8b0" opacity="0.28" /><rect x="794.00" y="305.00" width="8.88" height="9" rx="3" fill="#7d5c3c" opacity="0.82" /><rect x="794.00" y="89.00" width="8.33" height="9" rx="3" fill="#245464" opacity="0.82" /><rect x="798.63" y="191.00" width="13.88" height="9" rx="3" fill="#64757d" opacity="0.82" /><rect x="803.25" y="95.00" width="7.40" height="9" rx="3" fill="#245464" opacity="0.82" /><rect x="812.50" y="353.00" width="8.88" height="9" rx="3" fill="#7d5c3c" opacity="0.82" /><rect x="812.50" y="107.00" width="17.76" height="9" rx="3" fill="#245464" opacity="0.82" /><rect x="831.00" y="353.00" width="8.88" height="9" rx="3" fill="#7d5c3c" opacity="0.82" /><rect x="831.00" y="281.00" width="55.50" height="9" rx="3" fill="#a9b8b0" opacity="0.28" /><rect x="831.22" y="257.00" width="55.50" height="9" rx="3" fill="#a9b8b0" opacity="0.28" /><rect x="831.44" y="239.00" width="55.50" height="9" rx="3" fill="#a9b8b0" opacity="0.28" /><rect x="832.85" y="95.00" width="12.95" height="9" rx="3" fill="#245464" opacity="0.82" /><rect x="849.50" y="329.00" width="8.88" height="9" rx="3" fill="#7d5c3c" opacity="0.82" /><rect x="849.50" y="95.00" width="8.33" height="9" rx="3" fill="#245464" opacity="0.82" /><rect x="858.75" y="95.00" width="7.40" height="9" rx="3" fill="#245464" opacity="0.82" /><rect x="868.00" y="311.00" width="8.88" height="9" rx="3" fill="#7d5c3c" opacity="0.82" /><rect x="868.00" y="95.00" width="15.91" height="9" rx="3" fill="#245464" opacity="0.82" /><rect x="886.50" y="323.00" width="12.58" height="9" rx="3" fill="#7d5c3c" opacity="0.82" /><rect x="886.50" y="251.00" width="55.50" height="9" rx="3" fill="#a9b8b0" opacity="0.28" /><rect x="886.50" y="89.00" width="10.36" height="9" rx="3" fill="#245464" opacity="0.82" /><rect x="886.72" y="233.00" width="55.50" height="9" rx="3" fill="#a9b8b0" opacity="0.28" /><rect x="886.94" y="209.00" width="55.50" height="9" rx="3" fill="#a9b8b0" opacity="0.28" /><rect x="887.17" y="191.00" width="55.50" height="9" rx="3" fill="#a9b8b0" opacity="0.28" /><rect x="902.23" y="95.00" width="6.29" height="9" rx="3" fill="#245464" opacity="0.82" /><rect x="905.00" y="281.00" width="8.51" height="9" rx="3" fill="#7d5c3c" opacity="0.82" /><rect x="914.25" y="107.00" width="7.77" height="9" rx="3" fill="#245464" opacity="0.82" /><rect x="923.50" y="323.00" width="17.02" height="9" rx="3" fill="#7d5c3c" opacity="0.82" /><rect x="923.50" y="107.00" width="18.50" height="9" rx="3" fill="#245464" opacity="0.82" /><rect x="923.50" y="35.00" width="18.50" height="9" rx="3" fill="#4a7d77" opacity="0.82" />
      <text x="18" y="22" font-size="14" fill="#51656d">Piano Roll</text>
      <text x="18" y="40" font-size="11" fill="#7a8a83">Raw notes + expanded chord tones</text>
      <text x="81.75" y="26" text-anchor="middle" font-size="11" fill="#71827b">Bar 1</text><text x="137.25" y="26" text-anchor="middle" font-size="11" fill="#71827b">Bar 2</text><text x="192.75" y="26" text-anchor="middle" font-size="11" fill="#71827b">Bar 3</text><text x="248.25" y="26" text-anchor="middle" font-size="11" fill="#71827b">Bar 4</text><text x="303.75" y="26" text-anchor="middle" font-size="11" fill="#71827b">Bar 5</text><text x="359.25" y="26" text-anchor="middle" font-size="11" fill="#71827b">Bar 6</text><text x="414.75" y="26" text-anchor="middle" font-size="11" fill="#71827b">Bar 7</text><text x="470.25" y="26" text-anchor="middle" font-size="11" fill="#71827b">Bar 8</text><text x="525.75" y="26" text-anchor="middle" font-size="11" fill="#71827b">Bar 9</text><text x="581.25" y="26" text-anchor="middle" font-size="11" fill="#71827b">Bar 10</text><text x="636.75" y="26" text-anchor="middle" font-size="11" fill="#71827b">Bar 11</text><text x="692.25" y="26" text-anchor="middle" font-size="11" fill="#71827b">Bar 12</text><text x="747.75" y="26" text-anchor="middle" font-size="11" fill="#71827b">Bar 13</text><text x="803.25" y="26" text-anchor="middle" font-size="11" fill="#71827b">Bar 14</text><text x="858.75" y="26" text-anchor="middle" font-size="11" fill="#71827b">Bar 15</text><text x="914.25" y="26" text-anchor="middle" font-size="11" fill="#71827b">Bar 16</text>
      <text x="18" y="46" font-size="11" fill="#71827b">High: 93</text>
      <text x="18" y="358" font-size="11" fill="#71827b">Low: 40</text>
      
        <rect x="54" y="376" width="12" height="12" rx="3" fill="#245464" />
        <text x="72" y="386" font-size="11" fill="#51656d">Lead</text>
      
        <rect x="176" y="376" width="12" height="12" rx="3" fill="#4a7d77" />
        <text x="194" y="386" font-size="11" fill="#51656d">Accent</text>
      
        <rect x="298" y="376" width="12" height="12" rx="3" fill="#7d5c3c" />
        <text x="316" y="386" font-size="11" fill="#51656d">Bass</text>
      
        <rect x="420" y="376" width="12" height="12" rx="3" fill="#a9b8b0" />
        <text x="438" y="386" font-size="11" fill="#51656d">Pad/Drone</text>
      
    </svg>