<svg xmlns="http://www.w3.org/2000/svg" viewBox="0 0 960 240" width="960" height="240" role="img">
      <rect width="960" height="240" fill="#f7f9f7" />
      <line x1="40" y1="34.00" x2="942" y2="34.00" stroke="#e6ece8" stroke-width="1" /><line x1="40" y1="78.50" x2="942" y2="78.50" stroke="#e6ece8" stroke-width="1" /><line x1="40" y1="123.00" x2="942" y2="123.00" stroke="#e6ece8" stroke-width="1" /><line x1="40" y1="167.50" x2="942" y2="167.50" stroke="#e6ece8" stroke-width="1" /><line x1="40" y1="212.00" x2="942" y2="212.00" stroke="#e6ece8" stroke-width="1" />
      <line x1="40.00" y1="34" x2="40.00" y2="212" stroke="#d1dbd5" stroke-width="1" /><line x1="96.38" y1="34" x2="96.38" y2="212" stroke="#d1dbd5" stroke-width="1" /><line x1="152.75" y1="34" x2="152.75" y2="212" stroke="#d1dbd5" stroke-width="1" /><line x1="209.13" y1="34" x2="209.13" y2="212" stroke="#d1dbd5" stroke-width="1" /><line x1="265.50" y1="34" x2="265.50" y2="212" stroke="#d1dbd5" stroke-width="1" /><line x1="321.88" y1="34" x2="321.88" y2="212" stroke="#d1dbd5" stroke-width="1" /><line x1="378.25" y1="34" x2="378.25" y2="212" stroke="#d1dbd5" stroke-width="1" /><line x1="434.63" y1="34" x2="434.63" y2="212" stroke="#d1dbd5" stroke-width="1" /><line x1="491.00" y1="34" x2="491.00" y2="212" stroke="#d1dbd5" stroke-width="1" /><line x1="547.38" y1="34" x2="547.38" y2="212" stroke="#d1dbd5" stroke-width="1" /><line x1="603.75" y1="34" x2="603.75" y2="212" stroke="#d1dbd5" stroke-width="1" /><line x1="660.13" y1="34" x2="660.13" y2="212" stroke="#d1dbd5" stroke-width="1" /><line x1="716.50" y1="34" x2="716.50" y2="212" stroke="#d1dbd5" stroke-width="1" /><line x1="772.88" y1="34" x2="772.88" y2="212" stroke="#d1dbd5" stroke-width="1" /><line x1="829.25" y1="34" x2="829.25" y2="212" stroke="#d1dbd5" stroke-width="1" /><line x1="885.63" y1="34" x2="885.63" y2="212" stroke="#d1dbd5" stroke-width="1" /><line x1="942.00" y1="34" x2="942.00" y2="212" stroke="#d1dbd5" stroke-width="1.2" />
      <rect x="40" y="34" width="902" height="128.16" fill="transparent" />
      <line
        x1="40"
        y1="83.84"
        x2="942"
        y2="83.84"
        stroke="#c79a91"
        stroke-width="1"
        stroke-dasharray="5 5"
      />
      <path d="M 40.00 120.53 L 41.00 101.09 L 42.00 99.16 L 43.00 100.53 L 44.00 113.52 L 45.00 114.76 L 46.00 116.53 L 47.00 146.20 L 48.00 173.11 L 49.00 150.71 L 50.00 128.86 L 51.00 123.26 L 52.00 120.90 L 53.00 149.44 L 54.00 151.17 L 55.00 149.25 L 56.00 152.34 L 57.00 161.04 L 58.00 175.24 L 59.00 129.63 L 60.00 129.55 L 61.00 131.06 L 62.00 137.77 L 63.00 150.16 L 64.00 150.16 L 65.00 150.16 L 66.00 174.44 L 67.00 190.62 L 68.00 147.33 L 69.00 160.71 L 70.00 160.57 L 71.00 160.57 L 72.00 175.94 L 73.00 176.97 L 74.00 176.97 L 75.00 176.97 L 76.00 187.97 L 77.00 172.72 L 78.00 146.72 L 79.00 142.30 L 80.00 140.29 L 81.00 166.23 L 82.00 168.43 L 83.00 163.04 L 84.00 165.45 L 85.00 177.15 L 86.00 192.47 L 87.00 169.99 L 88.00 169.93 L 89.00 170.17 L 90.00 171.12 L 91.00 176.49 L 92.00 176.49 L 93.00 176.49 L 94.00 176.49 L 95.00 190.96 L 96.00 171.36 L 97.00 183.02 L 98.00 182.95 L 99.00 182.95 L 100.00 188.92 L 101.00 191.09 L 102.00 193.07 L 103.00 205.95 L 104.00 205.95 L 105.00 199.30 L 106.00 184.43 L 107.00 182.81 L 108.00 181.71 L 109.00 183.62 L 110.00 194.27 L 111.00 187.50 L 112.00 188.06 L 113.00 189.53 L 114.00 202.61 L 115.00 191.86 L 116.00 189.70 L 117.00 189.77 L 118.00 189.85 L 119.00 191.93 L 120.00 192.08 L 121.00 192.08 L 122.00 192.08 L 123.00 192.08 L 124.00 180.64 L 125.00 194.75 L 126.00 194.64 L 127.00 194.64 L 128.00 198.24 L 129.00 201.38 L 130.00 201.38 L 131.00 201.38 L 132.00 204.70 L 133.00 204.46 L 134.00 189.35 L 135.00 187.81 L 136.00 186.96 L 137.00 190.56 L 138.00 202.33 L 139.00 199.69 L 140.00 200.13 L 141.00 202.18 L 142.00 205.10 L 143.00 197.17 L 144.00 192.97 L 145.00 193.11 L 146.00 193.71 L 147.00 199.20 L 148.00 201.19 L 149.00 201.19 L 150.00 201.19 L 151.00 201.29 L 152.00 194.09 L 153.00 164.93 L 154.00 164.14 L 155.00 164.10 L 156.00 171.05 L 157.00 171.79 L 158.00 164.55 L 159.00 164.55 L 160.00 164.37 L 161.00 164.88 L 162.00 147.72 L 163.00 139.39 L 164.00 136.78 L 165.00 135.93 L 166.00 168.00 L 167.00 171.46 L 168.00 172.42 L 169.00 174.28 L 170.00 179.92 L 171.00 175.65 L 172.00 165.38 L 173.00 166.25 L 174.00 172.04 L 175.00 177.83 L 176.00 182.85 L 177.00 182.85 L 178.00 183.03 L 179.00 191.26 L 180.00 190.77 L 181.00 184.12 L 182.00 185.60 L 183.00 185.56 L 184.00 186.52 L 185.00 192.81 L 186.00 192.81 L 187.00 192.81 L 188.00 192.81 L 189.00 203.49 L 190.00 191.85 L 191.00 186.07 L 192.00 177.64 L 193.00 166.12 L 194.00 188.34 L 195.00 173.63 L 196.00 173.27 L 197.00 174.79 L 198.00 189.84 L 199.00 198.93 L 200.00 196.23 L 201.00 196.15 L 202.00 196.29 L 203.00 197.36 L 204.00 199.09 L 205.00 199.09 L 206.00 199.09 L 207.00 201.66 L 208.00 205.95 L 209.00 188.42 L 210.00 171.61 L 211.00 161.76 L 212.00 161.76 L 213.00 176.83 L 214.00 177.91 L 215.00 177.91 L 216.00 177.91 L 217.00 177.91 L 218.00 163.44 L 219.00 126.82 L 220.00 42.33 L 221.00 34.00 L 222.00 41.50 L 223.00 50.82 L 224.00 88.05 L 225.00 55.16 L 226.00 58.51 L 227.00 69.23 L 228.00 121.90 L 229.00 166.63 L 230.00 156.73 L 231.00 157.80 L 232.00 163.66 L 233.00 163.66 L 234.00 163.66 L 235.00 165.65 L 236.00 193.55 L 237.00 163.91 L 238.00 195.28 L 239.00 195.21 L 240.00 195.21 L 241.00 200.30 L 242.00 201.57 L 243.00 201.57 L 244.00 201.66 L 245.00 205.45 L 246.00 201.37 L 247.00 189.66 L 248.00 188.01 L 249.00 187.39 L 250.00 195.31 L 251.00 201.17 L 252.00 199.79 L 253.00 200.48 L 254.00 203.19 L 255.00 205.31 L 256.00 194.27 L 257.00 193.44 L 258.00 193.75 L 259.00 194.18 L 260.00 200.86 L 261.00 201.34 L 262.00 201.34 L 263.00 201.34 L 264.00 202.45 L 265.00 182.29 L 266.00 151.02 L 267.00 151.00 L 268.00 150.87 L 269.00 150.87 L 270.00 150.87 L 271.00 163.31 L 272.00 165.22 L 273.00 165.22 L 274.00 165.22 L 275.00 146.98 L 276.00 159.52 L 277.00 157.86 L 278.00 155.83 L 279.00 147.53 L 280.00 108.98 L 281.00 110.27 L 282.00 114.72 L 283.00 129.26 L 284.00 173.41 L 285.00 164.32 L 286.00 165.48 L 287.00 165.20 L 288.00 165.18 L 289.00 165.18 L 290.00 165.18 L 291.00 181.12 L 292.00 183.58 L 293.00 159.88 L 294.00 159.20 L 295.00 161.57 L 296.00 161.52 L 297.00 161.56 L 298.00 161.59 L 299.00 171.04 L 300.00 176.55 L 301.00 177.11 L 302.00 177.11 L 303.00 177.11 L 304.00 175.90 L 305.00 151.03 L 306.00 167.52 L 307.00 162.02 L 308.00 158.29 L 309.00 163.47 L 310.00 157.30 L 311.00 158.78 L 312.00 160.00 L 313.00 186.63 L 314.00 184.72 L 315.00 178.64 L 316.00 178.64 L 317.00 178.64 L 318.00 178.64 L 319.00 178.64 L 320.00 178.64 L 321.00 192.86 L 322.00 167.85 L 323.00 164.73 L 324.00 164.73 L 325.00 164.73 L 326.00 153.19 L 327.00 148.95 L 328.00 162.00 L 329.00 161.49 L 330.00 159.45 L 331.00 159.45 L 332.00 157.95 L 333.00 157.00 L 334.00 156.09 L 335.00 176.95 L 336.00 174.44 L 337.00 174.80 L 338.00 123.69 L 339.00 100.38 L 340.00 102.66 L 341.00 107.98 L 342.00 116.56 L 343.00 124.72 L 344.00 125.00 L 345.00 125.00 L 346.00 149.87 L 347.00 187.17 L 348.00 187.17 L 349.00 187.17 L 350.00 195.53 L 351.00 200.27 L 352.00 200.27 L 353.00 200.27 L 354.00 200.27 L 355.00 201.22 L 356.00 203.83 L 357.00 203.83 L 358.00 203.83 L 359.00 203.83 L 360.00 203.42 L 361.00 202.98 L 362.00 202.78 L 363.00 202.37 L 364.00 183.79 L 365.00 180.96 L 366.00 181.59 L 367.00 182.52 L 368.00 183.90 L 369.00 187.27 L 370.00 201.35 L 371.00 203.83 L 372.00 203.83 L 373.00 203.22 L 374.00 202.31 L 375.00 202.31 L 376.00 202.31 L 377.00 202.31 L 378.00 162.99 L 379.00 136.94 L 380.00 145.22 L 381.00 157.64 L 382.00 156.72 L 383.00 143.76 L 384.00 143.71 L 385.00 143.66 L 386.00 143.00 L 387.00 151.06 L 388.00 167.27 L 389.00 164.81 L 390.00 165.73 L 391.00 179.23 L 392.00 177.91 L 393.00 177.12 L 394.00 178.91 L 395.00 179.32 L 396.00 181.33 L 397.00 182.25 L 398.00 182.41 L 399.00 183.39 L 400.00 183.40 L 401.00 183.40 L 402.00 183.40 L 403.00 190.87 L 404.00 192.59 L 405.00 192.59 L 406.00 176.94 L 407.00 134.59 L 408.00 134.59 L 409.00 134.59 L 410.00 135.65 L 411.00 151.49 L 412.00 151.49 L 413.00 151.49 L 414.00 151.49 L 415.00 143.38 L 416.00 160.69 L 417.00 162.26 L 418.00 136.26 L 419.00 125.14 L 420.00 129.80 L 421.00 104.00 L 422.00 105.85 L 423.00 111.72 L 424.00 154.14 L 425.00 153.89 L 426.00 146.18 L 427.00 146.14 L 428.00 146.69 L 429.00 149.01 L 430.00 155.97 L 431.00 155.97 L 432.00 155.97 L 433.00 155.97 L 434.00 182.20 L 435.00 196.27 L 436.00 192.72 L 437.00 192.69 L 438.00 192.69 L 439.00 198.97 L 440.00 200.54 L 441.00 200.54 L 442.00 204.01 L 443.00 204.57 L 444.00 190.03 L 445.00 188.44 L 446.00 187.26 L 447.00 186.63 L 448.00 194.93 L 449.00 198.19 L 450.00 198.59 L 451.00 199.25 L 452.00 201.88 L 453.00 195.55 L 454.00 187.38 L 455.00 187.40 L 456.00 188.87 L 457.00 189.18 L 458.00 200.18 L 459.00 200.42 L 460.00 200.42 L 461.00 202.65 L 462.00 189.24 L 463.00 160.28 L 464.00 156.39 L 465.00 156.37 L 466.00 156.37 L 467.00 156.45 L 468.00 170.80 L 469.00 184.76 L 470.00 180.58 L 471.00 143.63 L 472.00 129.10 L 473.00 122.97 L 474.00 169.21 L 475.00 168.87 L 476.00 171.46 L 477.00 137.71 L 478.00 138.38 L 479.00 141.19 L 480.00 149.67 L 481.00 166.61 L 482.00 122.49 L 483.00 122.49 L 484.00 122.49 L 485.00 122.49 L 486.00 122.49 L 487.00 122.49 L 488.00 122.49 L 489.00 122.49 L 490.00 135.22 L 491.00 209.21 L 492.00 212.00 L 493.00 212.00 L 494.00 212.00 L 495.00 212.00 L 496.00 212.00 L 497.00 212.00 L 498.00 212.00 L 499.00 212.00 L 500.00 212.00 L 501.00 212.00 L 502.00 212.00 L 503.00 212.00 L 504.00 212.00 L 505.00 212.00 L 506.00 212.00 L 507.00 212.00 L 508.00 212.00 L 509.00 212.00 L 510.00 212.00 L 511.00 212.00 L 512.00 212.00 L 513.00 212.00 L 514.00 212.00 L 515.00 212.00 L 516.00 212.00 L 517.00 212.00 L 518.00 212.00 L 519.00 212.00 L 520.00 212.00 L 521.00 212.00 L 522.00 212.00 L 523.00 212.00 L 524.00 212.00 L 525.00 212.00 L 526.00 212.00 L 527.00 212.00 L 528.00 212.00 L 529.00 212.00 L 530.00 212.00 L 531.00 212.00 L 532.00 212.00 L 533.00 212.00 L 534.00 212.00 L 535.00 212.00 L 536.00 212.00 L 537.00 212.00 L 538.00 212.00 L 539.00 212.00 L 540.00 212.00 L 541.00 212.00 L 542.00 212.00 L 543.00 212.00 L 544.00 212.00 L 545.00 212.00 L 546.00 212.00 L 547.00 212.00 L 548.00 212.00 L 549.00 212.00 L 550.00 212.00 L 551.00 212.00 L 552.00 212.00 L 553.00 212.00 L 554.00 212.00 L 555.00 212.00 L 556.00 212.00 L 557.00 212.00 L 558.00 212.00 L 559.00 212.00 L 560.00 212.00 L 561.00 212.00 L 562.00 212.00 L 563.00 212.00 L 564.00 212.00 L 565.00 212.00 L 566.00 212.00 L 567.00 212.00 L 568.00 212.00 L 569.00 212.00 L 570.00 212.00 L 571.00 212.00 L 572.00 212.00 L 573.00 212.00 L 574.00 212.00 L 575.00 212.00 L 576.00 212.00 L 577.00 212.00 L 578.00 212.00 L 579.00 212.00 L 580.00 212.00 L 581.00 212.00 L 582.00 212.00 L 583.00 212.00 L 584.00 212.00 L 585.00 212.00 L 586.00 212.00 L 587.00 212.00 L 588.00 212.00 L 589.00 212.00 L 590.00 212.00 L 591.00 212.00 L 592.00 212.00 L 593.00 212.00 L 594.00 212.00 L 595.00 212.00 L 596.00 212.00 L 597.00 212.00 L 598.00 212.00 L 599.00 212.00 L 600.00 212.00 L 601.00 212.00 L 602.00 212.00 L 603.00 212.00 L 604.00 212.00 L 605.00 212.00 L 606.00 212.00 L 607.00 212.00 L 608.00 212.00 L 609.00 212.00 L 610.00 212.00 L 611.00 212.00 L 612.00 212.00 L 613.00 212.00 L 614.00 212.00 L 615.00 212.00 L 616.00 212.00 L 617.00 212.00 L 618.00 212.00 L 619.00 212.00 L 620.00 212.00 L 621.00 212.00 L 622.00 212.00 L 623.00 212.00 L 624.00 212.00 L 625.00 212.00 L 626.00 212.00 L 627.00 212.00 L 628.00 212.00 L 629.00 212.00 L 630.00 212.00 L 631.00 212.00 L 632.00 212.00 L 633.00 212.00 L 634.00 212.00 L 635.00 212.00 L 636.00 212.00 L 637.00 212.00 L 638.00 212.00 L 639.00 212.00 L 640.00 212.00 L 641.00 212.00 L 642.00 212.00 L 643.00 212.00 L 644.00 212.00 L 645.00 212.00 L 646.00 212.00 L 647.00 212.00 L 648.00 212.00 L 649.00 212.00 L 650.00 212.00 L 651.00 212.00 L 652.00 212.00 L 653.00 212.00 L 654.00 212.00 L 655.00 212.00 L 656.00 212.00 L 657.00 212.00 L 658.00 212.00 L 659.00 212.00 L 660.00 212.00 L 661.00 212.00 L 662.00 212.00 L 663.00 212.00 L 664.00 212.00 L 665.00 212.00 L 666.00 212.00 L 667.00 212.00 L 668.00 212.00 L 669.00 212.00 L 670.00 212.00 L 671.00 212.00 L 672.00 212.00 L 673.00 212.00 L 674.00 212.00 L 675.00 212.00 L 676.00 212.00 L 677.00 212.00 L 678.00 212.00 L 679.00 212.00 L 680.00 212.00 L 681.00 212.00 L 682.00 212.00 L 683.00 212.00 L 684.00 212.00 L 685.00 212.00 L 686.00 212.00 L 687.00 212.00 L 688.00 212.00 L 689.00 212.00 L 690.00 212.00 L 691.00 212.00 L 692.00 212.00 L 693.00 212.00 L 694.00 212.00 L 695.00 212.00 L 696.00 212.00 L 697.00 212.00 L 698.00 212.00 L 699.00 212.00 L 700.00 212.00 L 701.00 212.00 L 702.00 212.00 L 703.00 212.00 L 704.00 212.00 L 705.00 212.00 L 706.00 212.00 L 707.00 212.00 L 708.00 212.00 L 709.00 212.00 L 710.00 212.00 L 711.00 212.00 L 712.00 212.00 L 713.00 212.00 L 714.00 212.00 L 715.00 212.00 L 716.00 212.00 L 717.00 212.00 L 718.00 212.00 L 719.00 212.00 L 720.00 212.00 L 721.00 212.00 L 722.00 212.00 L 723.00 212.00 L 724.00 212.00 L 725.00 212.00 L 726.00 212.00 L 727.00 212.00 L 728.00 212.00 L 729.00 212.00 L 730.00 212.00 L 731.00 212.00 L 732.00 212.00 L 733.00 212.00 L 734.00 212.00 L 735.00 212.00 L 736.00 212.00 L 737.00 212.00 L 738.00 212.00 L 739.00 212.00 L 740.00 212.00 L 741.00 212.00 L 742.00 212.00 L 743.00 212.00 L 744.00 212.00 L 745.00 212.00 L 746.00 212.00 L 747.00 212.00 L 748.00 212.00 L 749.00 212.00 L 750.00 212.00 L 751.00 212.00 L 752.00 212.00 L 753.00 212.00 L 754.00 212.00 L 755.00 212.00 L 756.00 212.00 L 757.00 212.00 L 758.00 212.00 L 759.00 212.00 L 760.00 212.00 L 761.00 212.00 L 762.00 212.00 L 763.00 212.00 L 764.00 212.00 L 765.00 212.00 L 766.00 212.00 L 767.00 212.00 L 768.00 212.00 L 769.00 212.00 L 770.00 212.00 L 771.00 212.00 L 772.00 212.00 L 773.00 212.00 L 774.00 212.00 L 775.00 212.00 L 776.00 212.00 L 777.00 212.00 L 778.00 212.00 L 779.00 212.00 L 780.00 212.00 L 781.00 212.00 L 782.00 212.00 L 783.00 212.00 L 784.00 212.00 L 785.00 212.00 L 786.00 212.00 L 787.00 212.00 L 788.00 212.00 L 789.00 212.00 L 790.00 212.00 L 791.00 212.00 L 792.00 212.00 L 793.00 212.00 L 794.00 212.00 L 795.00 212.00 L 796.00 212.00 L 797.00 212.00 L 798.00 212.00 L 799.00 212.00 L 800.00 212.00 L 801.00 212.00 L 802.00 212.00 L 803.00 212.00 L 804.00 212.00 L 805.00 212.00 L 806.00 212.00 L 807.00 212.00 L 808.00 212.00 L 809.00 212.00 L 810.00 212.00 L 811.00 212.00 L 812.00 212.00 L 813.00 212.00 L 814.00 212.00 L 815.00 212.00 L 816.00 212.00 L 817.00 212.00 L 818.00 212.00 L 819.00 212.00 L 820.00 212.00 L 821.00 212.00 L 822.00 212.00 L 823.00 212.00 L 824.00 212.00 L 825.00 212.00 L 826.00 212.00 L 827.00 212.00 L 828.00 212.00 L 829.00 212.00 L 830.00 212.00 L 831.00 212.00 L 832.00 212.00 L 833.00 212.00 L 834.00 212.00 L 835.00 212.00 L 836.00 212.00 L 837.00 212.00 L 838.00 212.00 L 839.00 212.00 L 840.00 212.00 L 841.00 212.00 L 842.00 212.00 L 843.00 212.00 L 844.00 212.00 L 845.00 212.00 L 846.00 212.00 L 847.00 212.00 L 848.00 212.00 L 849.00 212.00 L 850.00 212.00 L 851.00 212.00 L 852.00 212.00 L 853.00 212.00 L 854.00 212.00 L 855.00 212.00 L 856.00 212.00 L 857.00 212.00 L 858.00 212.00 L 859.00 212.00 L 860.00 212.00 L 861.00 212.00 L 862.00 212.00 L 863.00 212.00 L 864.00 212.00 L 865.00 212.00 L 866.00 212.00 L 867.00 212.00 L 868.00 212.00 L 869.00 212.00 L 870.00 212.00 L 871.00 212.00 L 872.00 212.00 L 873.00 212.00 L 874.00 212.00 L 875.00 212.00 L 876.00 212.00 L 877.00 212.00 L 878.00 212.00 L 879.00 212.00 L 880.00 212.00 L 881.00 212.00 L 882.00 212.00 L 883.00 212.00 L 884.00 212.00 L 885.00 212.00 L 886.00 212.00 L 887.00 212.00 L 888.00 212.00 L 889.00 212.00 L 890.00 212.00 L 891.00 212.00 L 892.00 212.00 L 893.00 212.00 L 894.00 212.00 L 895.00 212.00 L 896.00 212.00 L 897.00 212.00 L 898.00 212.00 L 899.00 212.00 L 900.00 212.00 L 901.00 212.00 L 902.00 212.00 L 903.00 212.00 L 904.00 212.00 L 905.00 212.00 L 906.00 212.00 L 907.00 212.00 L 908.00 212.00 L 909.00 212.00 L 910.00 212.00 L 911.00 212.00 L 912.00 212.00 L 913.00 212.00 L 914.00 212.00 L 915.00 212.00 L 916.00 212.00 L 917.00 212.00 L 918.00 212.00 L 919.00 212.00 L 920.00 212.00 L 921.00 212.00 L 922.00 212.00 L 923.00 212.00 L 924.00 212.00 L 925.00 212.00 L 926.00 212.00 L 927.00 212.00 L 928.00 212.00 L 929.00 212.00 L 930.00 212.00 L 931.00 212.00 L 932.00 212.00 L 933.00 212.00 L 934.00 212.00 L 935.00 212.00 L 936.00 212.00 L 937.00 212.00 L 938.00 212.00 L 939.00 212.00 L 940.00 212.00 L 941.00 212.00" fill="none" stroke="#9a5b4f" stroke-width="1.8" />
      <text x="18" y="22" font-size="14" fill="#51656d">Roughness</text>
      <text x="18" y="40" font-size="11" fill="#7a8a83">Windowed symbolic roughness aligned to the render</text>
      <text x="40.00" y="230" text-anchor="middle" font-size="11" fill="#71827b">0.0s</text><text x="265.50" y="230" text-anchor="middle" font-size="11" fill="#71827b">20.4s</text><text x="491.00" y="230" text-anchor="middle" font-size="11" fill="#71827b">40.8s</text><text x="716.50" y="230" text-anchor="middle" font-size="11" fill="#71827b">61.2s</text><text x="942.00" y="230" text-anchor="middle" font-size="11" fill="#71827b">81.6s</text>
    </svg>