<svg xmlns="http://www.w3.org/2000/svg" viewBox="0 0 760 300" width="760" height="300" role="img">
      <rect width="760" height="300" fill="#f7f9f7" />
      <line x1="44" y1="40.00" x2="740" y2="40.00" stroke="#e6ece8" stroke-width="1" /><line x1="44" y1="96.50" x2="740" y2="96.50" stroke="#e6ece8" stroke-width="1" /><line x1="44" y1="153.00" x2="740" y2="153.00" stroke="#e6ece8" stroke-width="1" /><line x1="44" y1="209.50" x2="740" y2="209.50" stroke="#e6ece8" stroke-width="1" /><line x1="44" y1="266.00" x2="740" y2="266.00" stroke="#e6ece8" stroke-width="1" />
      <line x1="44.00" y1="40" x2="44.00" y2="266" stroke="#d1dbd5" stroke-width="1" /><line x1="87.50" y1="40" x2="87.50" y2="266" stroke="#d1dbd5" stroke-width="1" /><line x1="131.00" y1="40" x2="131.00" y2="266" stroke="#d1dbd5" stroke-width="1" /><line x1="174.50" y1="40" x2="174.50" y2="266" stroke="#d1dbd5" stroke-width="1" /><line x1="218.00" y1="40" x2="218.00" y2="266" stroke="#d1dbd5" stroke-width="1" /><line x1="261.50" y1="40" x2="261.50" y2="266" stroke="#d1dbd5" stroke-width="1" /><line x1="305.00" y1="40" x2="305.00" y2="266" stroke="#d1dbd5" stroke-width="1" /><line x1="348.50" y1="40" x2="348.50" y2="266" stroke="#d1dbd5" stroke-width="1" /><line x1="392.00" y1="40" x2="392.00" y2="266" stroke="#d1dbd5" stroke-width="1" /><line x1="435.50" y1="40" x2="435.50" y2="266" stroke="#d1dbd5" stroke-width="1" /><line x1="479.00" y1="40" x2="479.00" y2="266" stroke="#d1dbd5" stroke-width="1" /><line x1="522.50" y1="40" x2="522.50" y2="266" stroke="#d1dbd5" stroke-width="1" /><line x1="566.00" y1="40" x2="566.00" y2="266" stroke="#d1dbd5" stroke-width="1" /><line x1="609.50" y1="40" x2="609.50" y2="266" stroke="#d1dbd5" stroke-width="1" /><line x1="653.00" y1="40" x2="653.00" y2="266" stroke="#d1dbd5" stroke-width="1" /><line x1="696.50" y1="40" x2="696.50" y2="266" stroke="#d1dbd5" stroke-width="1" /><line x1="740.00" y1="40" x2="740.00" y2="266" stroke="#d1dbd5" stroke-width="1.2" />
      <rect x="54.00" y="90.00" width="23.50" height="176.00" rx="6" fill="#9db8ad" /><rect x="97.50" y="109.12" width="23.50" height="156.88" rx="6" fill="#9db8ad" /><rect x="141.00" y="110.10" width="23.50" height="155.90" rx="6" fill="#9db8ad" /><rect x="184.50" y="103.98" width="23.50" height="162.02" rx="6" fill="#9db8ad" /><rect x="228.00" y="90.74" width="23.50" height="175.26" rx="6" fill="#9db8ad" /><rect x="271.50" y="74.81" width="23.50" height="191.19" rx="6" fill="#9db8ad" /><rect x="315.00" y="93.44" width="23.50" height="172.56" rx="6" fill="#9db8ad" /><rect x="358.50" y="70.64" width="23.50" height="195.36" rx="6" fill="#9db8ad" /><rect x="402.00" y="116.23" width="23.50" height="149.77" rx="6" fill="#9db8ad" /><rect x="445.50" y="119.42" width="23.50" height="146.58" rx="6" fill="#9db8ad" /><rect x="489.00" y="104.22" width="23.50" height="161.78" rx="6" fill="#9db8ad" /><rect x="532.50" y="121.87" width="23.50" height="144.13" rx="6" fill="#9db8ad" /><rect x="576.00" y="96.38" width="23.50" height="169.62" rx="6" fill="#9db8ad" /><rect x="619.50" y="71.38" width="23.50" height="194.62" rx="6" fill="#9db8ad" /><rect x="663.00" y="92.46" width="23.50" height="173.54" rx="6" fill="#9db8ad" /><rect x="706.50" y="40.00" width="23.50" height="226.00" rx="6" fill="#9db8ad" />
      <path d="M 65.75 81.09 L 109.25 142.73 L 152.75 122.18 L 196.25 122.18 L 239.75 81.09 L 283.25 81.09 L 326.75 81.09 L 370.25 81.09 L 413.75 142.73 L 457.25 163.27 L 500.75 122.18 L 544.25 183.82 L 587.75 142.73 L 631.25 60.55 L 674.75 101.64 L 718.25 40.00" fill="none" stroke="#28536a" stroke-width="2" />
      <path d="M 65.75 224.04 L 109.25 202.98 L 152.75 238.86 L 196.25 186.99 L 239.75 241.72 L 283.25 236.03 L 326.75 236.97 L 370.25 178.27 L 413.75 228.81 L 457.25 237.55 L 500.75 239.78 L 544.25 227.36 L 587.75 205.69 L 631.25 215.68 L 674.75 229.36 L 718.25 40.00" fill="none" stroke="#9a5b4f" stroke-width="2" stroke-dasharray="6 4" />
      <text x="18" y="22" font-size="14" fill="#51656d">Bar Density</text>
      <text x="18" y="40" font-size="11" fill="#7a8a83">Density bars, onset contour, and cadence contour</text>
      <text x="65.75" y="290" text-anchor="middle" font-size="11" fill="#71827b">1</text><text x="109.25" y="290" text-anchor="middle" font-size="11" fill="#71827b">2</text><text x="152.75" y="290" text-anchor="middle" font-size="11" fill="#71827b">3</text><text x="196.25" y="290" text-anchor="middle" font-size="11" fill="#71827b">4</text><text x="239.75" y="290" text-anchor="middle" font-size="11" fill="#71827b">5</text><text x="283.25" y="290" text-anchor="middle" font-size="11" fill="#71827b">6</text><text x="326.75" y="290" text-anchor="middle" font-size="11" fill="#71827b">7</text><text x="370.25" y="290" text-anchor="middle" font-size="11" fill="#71827b">8</text><text x="413.75" y="290" text-anchor="middle" font-size="11" fill="#71827b">9</text><text x="457.25" y="290" text-anchor="middle" font-size="11" fill="#71827b">10</text><text x="500.75" y="290" text-anchor="middle" font-size="11" fill="#71827b">11</text><text x="544.25" y="290" text-anchor="middle" font-size="11" fill="#71827b">12</text><text x="587.75" y="290" text-anchor="middle" font-size="11" fill="#71827b">13</text><text x="631.25" y="290" text-anchor="middle" font-size="11" fill="#71827b">14</text><text x="674.75" y="290" text-anchor="middle" font-size="11" fill="#71827b">15</text><text x="718.25" y="290" text-anchor="middle" font-size="11" fill="#71827b">16</text>
      
        <rect x="44" y="274" width="12" height="12" rx="3" fill="#9db8ad" />
        <text x="62" y="284" font-size="11" fill="#51656d">Density</text>
      
        <rect x="166" y="274" width="12" height="12" rx="3" fill="#28536a" />
        <text x="184" y="284" font-size="11" fill="#51656d">Onsets</text>
      
        <rect x="288" y="274" width="12" height="12" rx="3" fill="#9a5b4f" />
        <text x="306" y="284" font-size="11" fill="#51656d">Cadence</text>
      
    </svg>