<svg xmlns="http://www.w3.org/2000/svg" viewBox="0 0 960 400" width="960" height="400" role="img">
      <rect width="960" height="400" fill="#f7f9f7" />
      <rect x="54.00" y="40" width="55.50" height="318" fill="#fafcfa" /><rect x="109.50" y="40" width="55.50" height="318" fill="#f4f7f4" /><rect x="165.00" y="40" width="55.50" height="318" fill="#fafcfa" /><rect x="220.50" y="40" width="55.50" height="318" fill="#f4f7f4" /><rect x="276.00" y="40" width="55.50" height="318" fill="#fafcfa" /><rect x="331.50" y="40" width="55.50" height="318" fill="#f4f7f4" /><rect x="387.00" y="40" width="55.50" height="318" fill="#fafcfa" /><rect x="442.50" y="40" width="55.50" height="318" fill="#f4f7f4" /><rect x="498.00" y="40" width="55.50" height="318" fill="#fafcfa" /><rect x="553.50" y="40" width="55.50" height="318" fill="#f4f7f4" /><rect x="609.00" y="40" width="55.50" height="318" fill="#fafcfa" /><rect x="664.50" y="40" width="55.50" height="318" fill="#f4f7f4" /><rect x="720.00" y="40" width="55.50" height="318" fill="#fafcfa" /><rect x="775.50" y="40" width="55.50" height="318" fill="#f4f7f4" /><rect x="831.00" y="40" width="55.50" height="318" fill="#fafcfa" /><rect x="886.50" y="40" width="55.50" height="318" fill="#f4f7f4" />
      <line x1="54.00" y1="40" x2="54.00" y2="358" stroke="#c7d2cb" stroke-width="1.2" /><line x1="67.88" y1="40" x2="67.88" y2="358" stroke="#e5ebe7" stroke-width="0.8" /><line x1="81.75" y1="40" x2="81.75" y2="358" stroke="#e5ebe7" stroke-width="0.8" /><line x1="95.63" y1="40" x2="95.63" y2="358" stroke="#e5ebe7" stroke-width="0.8" /><line x1="109.50" y1="40" x2="109.50" y2="358" stroke="#c7d2cb" stroke-width="1.2" /><line x1="123.38" y1="40" x2="123.38" y2="358" stroke="#e5ebe7" stroke-width="0.8" /><line x1="137.25" y1="40" x2="137.25" y2="358" stroke="#e5ebe7" stroke-width="0.8" /><line x1="151.13" y1="40" x2="151.13" y2="358" stroke="#e5ebe7" stroke-width="0.8" /><line x1="165.00" y1="40" x2="165.00" y2="358" stroke="#c7d2cb" stroke-width="1.2" /><line x1="178.88" y1="40" x2="178.88" y2="358" stroke="#e5ebe7" stroke-width="0.8" /><line x1="192.75" y1="40" x2="192.75" y2="358" stroke="#e5ebe7" stroke-width="0.8" /><line x1="206.63" y1="40" x2="206.63" y2="358" stroke="#e5ebe7" stroke-width="0.8" /><line x1="220.50" y1="40" x2="220.50" y2="358" stroke="#c7d2cb" stroke-width="1.2" /><line x1="234.38" y1="40" x2="234.38" y2="358" stroke="#e5ebe7" stroke-width="0.8" /><line x1="248.25" y1="40" x2="248.25" y2="358" stroke="#e5ebe7" stroke-width="0.8" /><line x1="262.13" y1="40" x2="262.13" y2="358" stroke="#e5ebe7" stroke-width="0.8" /><line x1="276.00" y1="40" x2="276.00" y2="358" stroke="#c7d2cb" stroke-width="1.2" /><line x1="289.88" y1="40" x2="289.88" y2="358" stroke="#e5ebe7" stroke-width="0.8" /><line x1="303.75" y1="40" x2="303.75" y2="358" stroke="#e5ebe7" stroke-width="0.8" /><line x1="317.63" y1="40" x2="317.63" y2="358" stroke="#e5ebe7" stroke-width="0.8" /><line x1="331.50" y1="40" x2="331.50" y2="358" stroke="#c7d2cb" stroke-width="1.2" /><line x1="345.38" y1="40" x2="345.38" y2="358" stroke="#e5ebe7" stroke-width="0.8" /><line x1="359.25" y1="40" x2="359.25" y2="358" stroke="#e5ebe7" stroke-width="0.8" /><line x1="373.13" y1="40" x2="373.13" y2="358" stroke="#e5ebe7" stroke-width="0.8" /><line x1="387.00" y1="40" x2="387.00" y2="358" stroke="#c7d2cb" stroke-width="1.2" /><line x1="400.88" y1="40" x2="400.88" y2="358" stroke="#e5ebe7" stroke-width="0.8" /><line x1="414.75" y1="40" x2="414.75" y2="358" stroke="#e5ebe7" stroke-width="0.8" /><line x1="428.63" y1="40" x2="428.63" y2="358" stroke="#e5ebe7" stroke-width="0.8" /><line x1="442.50" y1="40" x2="442.50" y2="358" stroke="#c7d2cb" stroke-width="1.2" /><line x1="456.38" y1="40" x2="456.38" y2="358" stroke="#e5ebe7" stroke-width="0.8" /><line x1="470.25" y1="40" x2="470.25" y2="358" stroke="#e5ebe7" stroke-width="0.8" /><line x1="484.13" y1="40" x2="484.13" y2="358" stroke="#e5ebe7" stroke-width="0.8" /><line x1="498.00" y1="40" x2="498.00" y2="358" stroke="#c7d2cb" stroke-width="1.2" /><line x1="511.88" y1="40" x2="511.88" y2="358" stroke="#e5ebe7" stroke-width="0.8" /><line x1="525.75" y1="40" x2="525.75" y2="358" stroke="#e5ebe7" stroke-width="0.8" /><line x1="539.63" y1="40" x2="539.63" y2="358" stroke="#e5ebe7" stroke-width="0.8" /><line x1="553.50" y1="40" x2="553.50" y2="358" stroke="#c7d2cb" stroke-width="1.2" /><line x1="567.38" y1="40" x2="567.38" y2="358" stroke="#e5ebe7" stroke-width="0.8" /><line x1="581.25" y1="40" x2="581.25" y2="358" stroke="#e5ebe7" stroke-width="0.8" /><line x1="595.13" y1="40" x2="595.13" y2="358" stroke="#e5ebe7" stroke-width="0.8" /><line x1="609.00" y1="40" x2="609.00" y2="358" stroke="#c7d2cb" stroke-width="1.2" /><line x1="622.88" y1="40" x2="622.88" y2="358" stroke="#e5ebe7" stroke-width="0.8" /><line x1="636.75" y1="40" x2="636.75" y2="358" stroke="#e5ebe7" stroke-width="0.8" /><line x1="650.63" y1="40" x2="650.63" y2="358" stroke="#e5ebe7" stroke-width="0.8" /><line x1="664.50" y1="40" x2="664.50" y2="358" stroke="#c7d2cb" stroke-width="1.2" /><line x1="678.38" y1="40" x2="678.38" y2="358" stroke="#e5ebe7" stroke-width="0.8" /><line x1="692.25" y1="40" x2="692.25" y2="358" stroke="#e5ebe7" stroke-width="0.8" /><line x1="706.13" y1="40" x2="706.13" y2="358" stroke="#e5ebe7" stroke-width="0.8" /><line x1="720.00" y1="40" x2="720.00" y2="358" stroke="#c7d2cb" stroke-width="1.2" /><line x1="733.88" y1="40" x2="733.88" y2="358" stroke="#e5ebe7" stroke-width="0.8" /><line x1="747.75" y1="40" x2="747.75" y2="358" stroke="#e5ebe7" stroke-width="0.8" /><line x1="761.63" y1="40" x2="761.63" y2="358" stroke="#e5ebe7" stroke-width="0.8" /><line x1="775.50" y1="40" x2="775.50" y2="358" stroke="#c7d2cb" stroke-width="1.2" /><line x1="789.38" y1="40" x2="789.38" y2="358" stroke="#e5ebe7" stroke-width="0.8" /><line x1="803.25" y1="40" x2="803.25" y2="358" stroke="#e5ebe7" stroke-width="0.8" /><line x1="817.13" y1="40" x2="817.13" y2="358" stroke="#e5ebe7" stroke-width="0.8" /><line x1="831.00" y1="40" x2="831.00" y2="358" stroke="#c7d2cb" stroke-width="1.2" /><line x1="844.88" y1="40" x2="844.88" y2="358" stroke="#e5ebe7" stroke-width="0.8" /><line x1="858.75" y1="40" x2="858.75" y2="358" stroke="#e5ebe7" stroke-width="0.8" /><line x1="872.63" y1="40" x2="872.63" y2="358" stroke="#e5ebe7" stroke-width="0.8" /><line x1="886.50" y1="40" x2="886.50" y2="358" stroke="#c7d2cb" stroke-width="1.2" /><line x1="900.38" y1="40" x2="900.38" y2="358" stroke="#e5ebe7" stroke-width="0.8" /><line x1="914.25" y1="40" x2="914.25" y2="358" stroke="#e5ebe7" stroke-width="0.8" /><line x1="928.13" y1="40" x2="928.13" y2="358" stroke="#e5ebe7" stroke-width="0.8" /><line x1="942.00" y1="40" x2="942.00" y2="358" stroke="#c7d2cb" stroke-width="1.2" />
      <rect x="54.00" y="273.50" width="222.00" height="9" rx="3" fill="#8f9e98" opacity="0.82" /><rect x="54.00" y="273.50" width="4.16" height="9" rx="3" fill="#7d5c3c" opacity="0.82" /><rect x="54.00" y="167.50" width="55.50" height="9" rx="3" fill="#a9b8b0" opacity="0.28" /><rect x="54.00" y="88.00" width="6.38" height="9" rx="3" fill="#245464" opacity="0.82" /><rect x="54.00" y="35.00" width="11.38" height="9" rx="3" fill="#4a7d77" opacity="0.82" /><rect x="54.17" y="147.63" width="55.50" height="9" rx="3" fill="#a9b8b0" opacity="0.28" /><rect x="54.34" y="114.50" width="55.50" height="9" rx="3" fill="#a9b8b0" opacity="0.28" /><rect x="64.41" y="88.00" width="3.05" height="9" rx="3" fill="#245464" opacity="0.82" /><rect x="74.81" y="68.12" width="4.72" height="9" rx="3" fill="#245464" opacity="0.82" /><rect x="85.22" y="54.88" width="5.83" height="9" rx="3" fill="#245464" opacity="0.82" /><rect x="88.69" y="306.63" width="3.00" height="9" rx="3" fill="#7d5c3c" opacity="0.82" /><rect x="95.63" y="68.12" width="5.83" height="9" rx="3" fill="#245464" opacity="0.82" /><rect x="109.50" y="293.38" width="4.16" height="9" rx="3" fill="#7d5c3c" opacity="0.82" /><rect x="109.50" y="213.88" width="55.50" height="9" rx="3" fill="#a9b8b0" opacity="0.28" /><rect x="109.50" y="101.25" width="5.00" height="9" rx="3" fill="#245464" opacity="0.82" /><rect x="109.67" y="194.00" width="55.50" height="9" rx="3" fill="#a9b8b0" opacity="0.28" /><rect x="109.84" y="167.50" width="55.50" height="9" rx="3" fill="#a9b8b0" opacity="0.28" /><rect x="110.01" y="147.63" width="55.50" height="9" rx="3" fill="#a9b8b0" opacity="0.28" /><rect x="119.91" y="114.50" width="4.16" height="9" rx="3" fill="#245464" opacity="0.82" /><rect x="133.78" y="134.38" width="5.27" height="9" rx="3" fill="#245464" opacity="0.82" /><rect x="144.19" y="326.50" width="3.00" height="9" rx="3" fill="#7d5c3c" opacity="0.82" /><rect x="147.66" y="147.63" width="11.93" height="9" rx="3" fill="#245464" opacity="0.82" /><rect x="165.00" y="319.88" width="4.16" height="9" rx="3" fill="#7d5c3c" opacity="0.82" /><rect x="165.00" y="213.88" width="55.50" height="9" rx="3" fill="#a9b8b0" opacity="0.28" /><rect x="165.00" y="114.50" width="4.44" height="9" rx="3" fill="#245464" opacity="0.82" /><rect x="165.17" y="194.00" width="55.50" height="9" rx="3" fill="#a9b8b0" opacity="0.28" /><rect x="165.34" y="160.88" width="55.50" height="9" rx="3" fill="#a9b8b0" opacity="0.28" /><rect x="175.41" y="88.00" width="4.44" height="9" rx="3" fill="#245464" opacity="0.82" /><rect x="185.81" y="68.12" width="5.27" height="9" rx="3" fill="#245464" opacity="0.82" /><rect x="196.22" y="114.50" width="7.21" height="9" rx="3" fill="#245464" opacity="0.82" /><rect x="199.69" y="273.50" width="3.00" height="9" rx="3" fill="#7d5c3c" opacity="0.82" /><rect x="206.63" y="54.88" width="4.44" height="9" rx="3" fill="#245464" opacity="0.82" /><rect x="220.50" y="306.63" width="4.16" height="9" rx="3" fill="#7d5c3c" opacity="0.82" /><rect x="220.50" y="227.13" width="55.50" height="9" rx="3" fill="#a9b8b0" opacity="0.28" /><rect x="220.50" y="101.25" width="4.16" height="9" rx="3" fill="#245464" opacity="0.82" /><rect x="220.67" y="213.88" width="55.50" height="9" rx="3" fill="#a9b8b0" opacity="0.28" /><rect x="220.84" y="180.75" width="55.50" height="9" rx="3" fill="#a9b8b0" opacity="0.28" /><rect x="230.91" y="68.12" width="4.72" height="9" rx="3" fill="#245464" opacity="0.82" /><rect x="241.31" y="88.00" width="5.83" height="9" rx="3" fill="#245464" opacity="0.82" /><rect x="255.19" y="260.25" width="3.00" height="9" rx="3" fill="#7d5c3c" opacity="0.82" /><rect x="255.19" y="101.25" width="4.16" height="9" rx="3" fill="#245464" opacity="0.82" /><rect x="265.59" y="114.50" width="13.60" height="9" rx="3" fill="#245464" opacity="0.82" /><rect x="276.00" y="319.88" width="111.00" height="9" rx="3" fill="#8f9e98" opacity="0.82" /><rect x="276.00" y="273.50" width="4.16" height="9" rx="3" fill="#7d5c3c" opacity="0.82" /><rect x="276.00" y="167.50" width="55.50" height="9" rx="3" fill="#a9b8b0" opacity="0.28" /><rect x="276.00" y="88.00" width="4.16" height="9" rx="3" fill="#245464" opacity="0.82" /><rect x="276.17" y="147.63" width="55.50" height="9" rx="3" fill="#a9b8b0" opacity="0.28" /><rect x="276.34" y="114.50" width="55.50" height="9" rx="3" fill="#a9b8b0" opacity="0.28" /><rect x="282.94" y="194.00" width="9.99" height="9" rx="3" fill="#64757d" opacity="0.82" /><rect x="286.41" y="68.12" width="4.72" height="9" rx="3" fill="#245464" opacity="0.82" /><rect x="296.81" y="54.88" width="4.72" height="9" rx="3" fill="#245464" opacity="0.82" /><rect x="307.22" y="114.50" width="6.11" height="9" rx="3" fill="#245464" opacity="0.82" /><rect x="310.69" y="306.63" width="3.00" height="9" rx="3" fill="#7d5c3c" opacity="0.82" /><rect x="317.63" y="54.88" width="3.89" height="9" rx="3" fill="#245464" opacity="0.82" /><rect x="331.50" y="319.88" width="4.16" height="9" rx="3" fill="#7d5c3c" opacity="0.82" /><rect x="331.50" y="213.88" width="55.50" height="9" rx="3" fill="#a9b8b0" opacity="0.28" /><rect x="331.67" y="194.00" width="55.50" height="9" rx="3" fill="#a9b8b0" opacity="0.28" /><rect x="331.84" y="160.88" width="55.50" height="9" rx="3" fill="#a9b8b0" opacity="0.28" /><rect x="334.97" y="81.38" width="3.89" height="9" rx="3" fill="#245464" opacity="0.82" /><rect x="338.44" y="54.88" width="9.43" height="9" rx="3" fill="#4a7d77" opacity="0.82" /><rect x="341.91" y="160.88" width="7.21" height="9" rx="3" fill="#64757d" opacity="0.82" /><rect x="345.38" y="68.12" width="4.72" height="9" rx="3" fill="#245464" opacity="0.82" /><rect x="359.25" y="54.88" width="5.83" height="9" rx="3" fill="#245464" opacity="0.82" /><rect x="366.19" y="273.50" width="3.00" height="9" rx="3" fill="#7d5c3c" opacity="0.82" /><rect x="366.19" y="180.75" width="8.05" height="9" rx="3" fill="#64757d" opacity="0.82" /><rect x="373.13" y="68.12" width="6.66" height="9" rx="3" fill="#245464" opacity="0.82" /><rect x="387.00" y="260.25" width="111.00" height="9" rx="3" fill="#8f9e98" opacity="0.82" /><rect x="387.00" y="260.25" width="4.16" height="9" rx="3" fill="#7d5c3c" opacity="0.82" /><rect x="387.00" y="180.75" width="55.50" height="9" rx="3" fill="#a9b8b0" opacity="0.28" /><rect x="387.00" y="114.50" width="4.44" height="9" rx="3" fill="#245464" opacity="0.82" /><rect x="387.17" y="160.88" width="55.50" height="9" rx="3" fill="#a9b8b0" opacity="0.28" /><rect x="387.34" y="134.38" width="55.50" height="9" rx="3" fill="#a9b8b0" opacity="0.28" /><rect x="387.51" y="114.50" width="55.50" height="9" rx="3" fill="#a9b8b0" opacity="0.28" /><rect x="397.41" y="88.00" width="4.44" height="9" rx="3" fill="#245464" opacity="0.82" /><rect x="400.88" y="167.50" width="9.43" height="9" rx="3" fill="#64757d" opacity="0.82" /><rect x="407.81" y="68.12" width="5.27" height="9" rx="3" fill="#245464" opacity="0.82" /><rect x="418.22" y="114.50" width="7.21" height="9" rx="3" fill="#245464" opacity="0.82" /><rect x="421.69" y="293.38" width="3.00" height="9" rx="3" fill="#7d5c3c" opacity="0.82" /><rect x="428.63" y="54.88" width="4.44" height="9" rx="3" fill="#245464" opacity="0.82" /><rect x="442.50" y="306.63" width="4.16" height="9" rx="3" fill="#7d5c3c" opacity="0.82" /><rect x="442.50" y="227.13" width="55.50" height="9" rx="3" fill="#a9b8b0" opacity="0.28" /><rect x="442.50" y="101.25" width="4.16" height="9" rx="3" fill="#245464" opacity="0.82" /><rect x="442.67" y="213.88" width="55.50" height="9" rx="3" fill="#a9b8b0" opacity="0.28" /><rect x="442.84" y="180.75" width="55.50" height="9" rx="3" fill="#a9b8b0" opacity="0.28" /><rect x="452.91" y="68.12" width="4.72" height="9" rx="3" fill="#245464" opacity="0.82" /><rect x="463.31" y="180.75" width="7.21" height="9" rx="3" fill="#64757d" opacity="0.82" /><rect x="463.31" y="88.00" width="5.83" height="9" rx="3" fill="#245464" opacity="0.82" /><rect x="477.19" y="260.25" width="3.00" height="9" rx="3" fill="#7d5c3c" opacity="0.82" /><rect x="477.19" y="101.25" width="4.16" height="9" rx="3" fill="#245464" opacity="0.82" /><rect x="484.13" y="194.00" width="11.65" height="9" rx="3" fill="#64757d" opacity="0.82" /><rect x="487.59" y="114.50" width="13.60" height="9" rx="3" fill="#245464" opacity="0.82" /><rect x="498.00" y="293.38" width="111.00" height="9" rx="3" fill="#8f9e98" opacity="0.82" /><rect x="498.00" y="293.38" width="4.44" height="9" rx="3" fill="#7d5c3c" opacity="0.82" /><rect x="498.00" y="213.88" width="55.50" height="9" rx="3" fill="#a9b8b0" opacity="0.28" /><rect x="498.17" y="194.00" width="55.50" height="9" rx="3" fill="#a9b8b0" opacity="0.28" /><rect x="498.34" y="167.50" width="55.50" height="9" rx="3" fill="#a9b8b0" opacity="0.28" /><rect x="498.51" y="147.63" width="55.50" height="9" rx="3" fill="#a9b8b0" opacity="0.28" /><rect x="504.94" y="114.50" width="4.99" height="9" rx="3" fill="#245464" opacity="0.82" /><rect x="525.75" y="88.00" width="4.16" height="9" rx="3" fill="#245464" opacity="0.82" /><rect x="539.63" y="326.50" width="3.00" height="9" rx="3" fill="#7d5c3c" opacity="0.82" /><rect x="539.63" y="147.63" width="9.71" height="9" rx="3" fill="#245464" opacity="0.82" /><rect x="553.50" y="319.88" width="4.44" height="9" rx="3" fill="#7d5c3c" opacity="0.82" /><rect x="553.50" y="213.88" width="55.50" height="9" rx="3" fill="#a9b8b0" opacity="0.28" /><rect x="553.67" y="194.00" width="55.50" height="9" rx="3" fill="#a9b8b0" opacity="0.28" /><rect x="553.84" y="160.88" width="55.50" height="9" rx="3" fill="#a9b8b0" opacity="0.28" /><rect x="567.38" y="147.63" width="4.72" height="9" rx="3" fill="#245464" opacity="0.82" /><rect x="584.72" y="114.50" width="4.72" height="9" rx="3" fill="#245464" opacity="0.82" /><rect x="595.13" y="273.50" width="3.00" height="9" rx="3" fill="#7d5c3c" opacity="0.82" /><rect x="595.13" y="88.00" width="10.82" height="9" rx="3" fill="#245464" opacity="0.82" /><rect x="609.00" y="306.63" width="111.00" height="9" rx="3" fill="#8f9e98" opacity="0.82" /><rect x="609.00" y="260.25" width="4.44" height="9" rx="3" fill="#7d5c3c" opacity="0.82" /><rect x="609.00" y="180.75" width="55.50" height="9" rx="3" fill="#a9b8b0" opacity="0.28" /><rect x="609.00" y="68.12" width="9.99" height="9" rx="3" fill="#4a7d77" opacity="0.82" /><rect x="609.17" y="160.88" width="55.50" height="9" rx="3" fill="#a9b8b0" opacity="0.28" /><rect x="609.34" y="134.38" width="55.50" height="9" rx="3" fill="#a9b8b0" opacity="0.28" /><rect x="609.51" y="114.50" width="55.50" height="9" rx="3" fill="#a9b8b0" opacity="0.28" /><rect x="615.94" y="114.50" width="4.99" height="9" rx="3" fill="#245464" opacity="0.82" /><rect x="636.75" y="88.00" width="4.16" height="9" rx="3" fill="#245464" opacity="0.82" /><rect x="650.63" y="293.38" width="3.00" height="9" rx="3" fill="#7d5c3c" opacity="0.82" /><rect x="650.63" y="147.63" width="9.71" height="9" rx="3" fill="#245464" opacity="0.82" /><rect x="664.50" y="306.63" width="4.44" height="9" rx="3" fill="#7d5c3c" opacity="0.82" /><rect x="664.50" y="227.13" width="55.50" height="9" rx="3" fill="#a9b8b0" opacity="0.28" /><rect x="664.67" y="213.88" width="55.50" height="9" rx="3" fill="#a9b8b0" opacity="0.28" /><rect x="664.84" y="180.75" width="55.50" height="9" rx="3" fill="#a9b8b0" opacity="0.28" /><rect x="685.31" y="147.63" width="7.22" height="9" rx="3" fill="#245464" opacity="0.82" /><rect x="706.13" y="260.25" width="3.00" height="9" rx="3" fill="#7d5c3c" opacity="0.82" /><rect x="706.13" y="114.50" width="11.66" height="9" rx="3" fill="#245464" opacity="0.82" /><rect x="720.00" y="319.88" width="55.50" height="9" rx="3" fill="#8f9e98" opacity="0.82" /><rect x="720.00" y="319.88" width="6.38" height="9" rx="3" fill="#7d5c3c" opacity="0.82" /><rect x="720.00" y="213.88" width="55.50" height="9" rx="3" fill="#a9b8b0" opacity="0.28" /><rect x="720.17" y="194.00" width="55.50" height="9" rx="3" fill="#a9b8b0" opacity="0.28" /><rect x="720.34" y="160.88" width="55.50" height="9" rx="3" fill="#a9b8b0" opacity="0.28" /><rect x="730.41" y="160.88" width="7.22" height="9" rx="3" fill="#64757d" opacity="0.82" /><rect x="740.81" y="147.63" width="7.22" height="9" rx="3" fill="#245464" opacity="0.82" /><rect x="754.69" y="180.75" width="8.05" height="9" rx="3" fill="#64757d" opacity="0.82" /><rect x="761.63" y="114.50" width="11.66" height="9" rx="3" fill="#245464" opacity="0.82" /><rect x="775.50" y="273.50" width="166.50" height="9" rx="3" fill="#8f9e98" opacity="0.82" /><rect x="775.50" y="273.50" width="4.72" height="9" rx="3" fill="#7d5c3c" opacity="0.82" /><rect x="775.50" y="167.50" width="55.50" height="9" rx="3" fill="#a9b8b0" opacity="0.28" /><rect x="775.50" y="88.00" width="6.38" height="9" rx="3" fill="#245464" opacity="0.82" /><rect x="775.50" y="35.00" width="11.38" height="9" rx="3" fill="#4a7d77" opacity="0.82" /><rect x="775.67" y="147.63" width="55.50" height="9" rx="3" fill="#a9b8b0" opacity="0.28" /><rect x="775.84" y="114.50" width="55.50" height="9" rx="3" fill="#a9b8b0" opacity="0.28" /><rect x="782.44" y="194.00" width="9.99" height="9" rx="3" fill="#64757d" opacity="0.82" /><rect x="785.91" y="88.00" width="3.05" height="9" rx="3" fill="#245464" opacity="0.82" /><rect x="796.31" y="68.12" width="4.72" height="9" rx="3" fill="#245464" opacity="0.82" /><rect x="806.72" y="54.88" width="5.83" height="9" rx="3" fill="#245464" opacity="0.82" /><rect x="810.19" y="306.63" width="3.00" height="9" rx="3" fill="#7d5c3c" opacity="0.82" /><rect x="817.13" y="68.12" width="5.83" height="9" rx="3" fill="#245464" opacity="0.82" /><rect x="831.00" y="306.63" width="4.72" height="9" rx="3" fill="#7d5c3c" opacity="0.82" /><rect x="831.00" y="227.13" width="55.50" height="9" rx="3" fill="#a9b8b0" opacity="0.28" /><rect x="831.00" y="114.50" width="4.44" height="9" rx="3" fill="#245464" opacity="0.82" /><rect x="831.17" y="213.88" width="55.50" height="9" rx="3" fill="#a9b8b0" opacity="0.28" /><rect x="831.34" y="180.75" width="55.50" height="9" rx="3" fill="#a9b8b0" opacity="0.28" /><rect x="841.41" y="88.00" width="4.44" height="9" rx="3" fill="#245464" opacity="0.82" /><rect x="844.88" y="167.50" width="9.43" height="9" rx="3" fill="#64757d" opacity="0.82" /><rect x="851.81" y="68.12" width="5.27" height="9" rx="3" fill="#245464" opacity="0.82" /><rect x="862.22" y="114.50" width="7.22" height="9" rx="3" fill="#245464" opacity="0.82" /><rect x="865.69" y="260.25" width="3.00" height="9" rx="3" fill="#7d5c3c" opacity="0.82" /><rect x="872.63" y="54.88" width="4.44" height="9" rx="3" fill="#245464" opacity="0.82" /><rect x="886.50" y="273.50" width="4.72" height="9" rx="3" fill="#7d5c3c" opacity="0.82" /><rect x="886.50" y="167.50" width="55.50" height="9" rx="3" fill="#a9b8b0" opacity="0.28" /><rect x="886.50" y="54.88" width="4.16" height="9" rx="3" fill="#245464" opacity="0.82" /><rect x="886.67" y="147.63" width="55.50" height="9" rx="3" fill="#a9b8b0" opacity="0.28" /><rect x="886.84" y="114.50" width="55.50" height="9" rx="3" fill="#a9b8b0" opacity="0.28" /><rect x="896.91" y="68.12" width="4.72" height="9" rx="3" fill="#245464" opacity="0.82" /><rect x="907.31" y="180.75" width="7.22" height="9" rx="3" fill="#64757d" opacity="0.82" /><rect x="907.31" y="88.00" width="5.83" height="9" rx="3" fill="#245464" opacity="0.82" /><rect x="921.19" y="306.63" width="3.00" height="9" rx="3" fill="#7d5c3c" opacity="0.82" /><rect x="921.19" y="101.25" width="4.44" height="9" rx="3" fill="#245464" opacity="0.82" /><rect x="924.66" y="353.00" width="6.10" height="9" rx="3" fill="#7d5c3c" opacity="0.82" /><rect x="928.13" y="194.00" width="11.66" height="9" rx="3" fill="#64757d" opacity="0.82" /><rect x="931.59" y="114.50" width="18.04" height="9" rx="3" fill="#245464" opacity="0.82" /><rect x="931.59" y="54.88" width="11.93" height="9" rx="3" fill="#4a7d77" opacity="0.82" />
      <text x="18" y="22" font-size="14" fill="#51656d">Piano Roll</text>
      <text x="18" y="40" font-size="11" fill="#7a8a83">Raw notes + expanded chord tones</text>
      <text x="81.75" y="26" text-anchor="middle" font-size="11" fill="#71827b">Bar 1</text><text x="137.25" y="26" text-anchor="middle" font-size="11" fill="#71827b">Bar 2</text><text x="192.75" y="26" text-anchor="middle" font-size="11" fill="#71827b">Bar 3</text><text x="248.25" y="26" text-anchor="middle" font-size="11" fill="#71827b">Bar 4</text><text x="303.75" y="26" text-anchor="middle" font-size="11" fill="#71827b">Bar 5</text><text x="359.25" y="26" text-anchor="middle" font-size="11" fill="#71827b">Bar 6</text><text x="414.75" y="26" text-anchor="middle" font-size="11" fill="#71827b">Bar 7</text><text x="470.25" y="26" text-anchor="middle" font-size="11" fill="#71827b">Bar 8</text><text x="525.75" y="26" text-anchor="middle" font-size="11" fill="#71827b">Bar 9</text><text x="581.25" y="26" text-anchor="middle" font-size="11" fill="#71827b">Bar 10</text><text x="636.75" y="26" text-anchor="middle" font-size="11" fill="#71827b">Bar 11</text><text x="692.25" y="26" text-anchor="middle" font-size="11" fill="#71827b">Bar 12</text><text x="747.75" y="26" text-anchor="middle" font-size="11" fill="#71827b">Bar 13</text><text x="803.25" y="26" text-anchor="middle" font-size="11" fill="#71827b">Bar 14</text><text x="858.75" y="26" text-anchor="middle" font-size="11" fill="#71827b">Bar 15</text><text x="914.25" y="26" text-anchor="middle" font-size="11" fill="#71827b">Bar 16</text>
      <text x="18" y="46" font-size="11" fill="#71827b">High: 86</text>
      <text x="18" y="358" font-size="11" fill="#71827b">Low: 38</text>
      
        <rect x="54" y="376" width="12" height="12" rx="3" fill="#245464" />
        <text x="72" y="386" font-size="11" fill="#51656d">Lead</text>
      
        <rect x="176" y="376" width="12" height="12" rx="3" fill="#4a7d77" />
        <text x="194" y="386" font-size="11" fill="#51656d">Accent</text>
      
        <rect x="298" y="376" width="12" height="12" rx="3" fill="#7d5c3c" />
        <text x="316" y="386" font-size="11" fill="#51656d">Bass</text>
      
        <rect x="420" y="376" width="12" height="12" rx="3" fill="#a9b8b0" />
        <text x="438" y="386" font-size="11" fill="#51656d">Pad/Drone</text>
      
    </svg>