<svg xmlns="http://www.w3.org/2000/svg" viewBox="0 0 960 240" width="960" height="240" role="img">
      <rect width="960" height="240" fill="#f7f9f7" />
      <line x1="40" y1="34.00" x2="942" y2="34.00" stroke="#e6ece8" stroke-width="1" /><line x1="40" y1="78.50" x2="942" y2="78.50" stroke="#e6ece8" stroke-width="1" /><line x1="40" y1="123.00" x2="942" y2="123.00" stroke="#e6ece8" stroke-width="1" /><line x1="40" y1="167.50" x2="942" y2="167.50" stroke="#e6ece8" stroke-width="1" /><line x1="40" y1="212.00" x2="942" y2="212.00" stroke="#e6ece8" stroke-width="1" />
      <line x1="40.00" y1="34" x2="40.00" y2="212" stroke="#d1dbd5" stroke-width="1" /><line x1="96.38" y1="34" x2="96.38" y2="212" stroke="#d1dbd5" stroke-width="1" /><line x1="152.75" y1="34" x2="152.75" y2="212" stroke="#d1dbd5" stroke-width="1" /><line x1="209.13" y1="34" x2="209.13" y2="212" stroke="#d1dbd5" stroke-width="1" /><line x1="265.50" y1="34" x2="265.50" y2="212" stroke="#d1dbd5" stroke-width="1" /><line x1="321.88" y1="34" x2="321.88" y2="212" stroke="#d1dbd5" stroke-width="1" /><line x1="378.25" y1="34" x2="378.25" y2="212" stroke="#d1dbd5" stroke-width="1" /><line x1="434.63" y1="34" x2="434.63" y2="212" stroke="#d1dbd5" stroke-width="1" /><line x1="491.00" y1="34" x2="491.00" y2="212" stroke="#d1dbd5" stroke-width="1" /><line x1="547.38" y1="34" x2="547.38" y2="212" stroke="#d1dbd5" stroke-width="1" /><line x1="603.75" y1="34" x2="603.75" y2="212" stroke="#d1dbd5" stroke-width="1" /><line x1="660.13" y1="34" x2="660.13" y2="212" stroke="#d1dbd5" stroke-width="1" /><line x1="716.50" y1="34" x2="716.50" y2="212" stroke="#d1dbd5" stroke-width="1" /><line x1="772.88" y1="34" x2="772.88" y2="212" stroke="#d1dbd5" stroke-width="1" /><line x1="829.25" y1="34" x2="829.25" y2="212" stroke="#d1dbd5" stroke-width="1" /><line x1="885.63" y1="34" x2="885.63" y2="212" stroke="#d1dbd5" stroke-width="1" /><line x1="942.00" y1="34" x2="942.00" y2="212" stroke="#d1dbd5" stroke-width="1.2" />
      <rect x="40" y="34" width="902" height="128.16" fill="transparent" />
      <line
        x1="40"
        y1="83.84"
        x2="942"
        y2="83.84"
        stroke="#c79a91"
        stroke-width="1"
        stroke-dasharray="5 5"
      />
      <path d="M 40.00 160.99 L 41.00 158.19 L 42.00 166.61 L 43.00 195.49 L 44.00 202.02 L 45.00 186.76 L 46.00 194.68 L 47.00 205.03 L 48.00 205.03 L 49.00 205.03 L 50.00 194.11 L 51.00 182.37 L 52.00 184.49 L 53.00 203.58 L 54.00 203.58 L 55.00 192.27 L 56.00 157.37 L 57.00 153.38 L 58.00 161.81 L 59.00 204.94 L 60.00 205.03 L 61.00 190.12 L 62.00 187.99 L 63.00 187.99 L 64.00 203.96 L 65.00 205.03 L 66.00 205.03 L 67.00 205.03 L 68.00 118.53 L 69.00 96.84 L 70.00 142.43 L 71.00 195.07 L 72.00 195.07 L 73.00 183.84 L 74.00 175.11 L 75.00 183.84 L 76.00 195.07 L 77.00 195.07 L 78.00 195.07 L 79.00 194.11 L 80.00 160.69 L 81.00 129.90 L 82.00 129.69 L 83.00 184.32 L 84.00 192.95 L 85.00 193.41 L 86.00 189.89 L 87.00 174.43 L 88.00 155.09 L 89.00 155.09 L 90.00 155.09 L 91.00 155.09 L 92.00 155.09 L 93.00 172.58 L 94.00 195.07 L 95.00 195.07 L 96.00 171.68 L 97.00 174.05 L 98.00 190.20 L 99.00 205.92 L 100.00 205.92 L 101.00 185.86 L 102.00 152.43 L 103.00 162.46 L 104.00 205.92 L 105.00 205.92 L 106.00 202.67 L 107.00 153.61 L 108.00 149.20 L 109.00 172.91 L 110.00 204.74 L 111.00 204.86 L 112.00 189.69 L 113.00 186.28 L 114.00 181.96 L 115.00 190.27 L 116.00 205.92 L 117.00 201.12 L 118.00 197.38 L 119.00 200.05 L 120.00 205.92 L 121.00 205.92 L 122.00 205.92 L 123.00 205.92 L 124.00 183.55 L 125.00 159.04 L 126.00 172.78 L 127.00 195.68 L 128.00 195.68 L 129.00 191.69 L 130.00 174.41 L 131.00 174.41 L 132.00 191.69 L 133.00 195.68 L 134.00 195.68 L 135.00 161.55 L 136.00 156.03 L 137.00 154.78 L 138.00 192.00 L 139.00 192.95 L 140.00 194.08 L 141.00 194.84 L 142.00 170.87 L 143.00 173.38 L 144.00 192.86 L 145.00 195.68 L 146.00 195.68 L 147.00 173.34 L 148.00 155.97 L 149.00 155.97 L 150.00 155.97 L 151.00 155.97 L 152.00 131.96 L 153.00 118.34 L 154.00 154.48 L 155.00 201.99 L 156.00 197.47 L 157.00 195.25 L 158.00 162.46 L 159.00 161.75 L 160.00 181.13 L 161.00 200.11 L 162.00 201.99 L 163.00 165.60 L 164.00 146.05 L 165.00 161.82 L 166.00 200.48 L 167.00 200.48 L 168.00 189.66 L 169.00 175.35 L 170.00 165.47 L 171.00 174.83 L 172.00 201.99 L 173.00 197.28 L 174.00 164.26 L 175.00 168.97 L 176.00 201.99 L 177.00 201.99 L 178.00 201.99 L 179.00 201.99 L 180.00 201.02 L 181.00 201.12 L 182.00 199.01 L 183.00 198.78 L 184.00 197.26 L 185.00 202.97 L 186.00 197.76 L 187.00 192.99 L 188.00 39.53 L 189.00 104.32 L 190.00 189.88 L 191.00 205.82 L 192.00 205.32 L 193.00 205.04 L 194.00 204.33 L 195.00 193.37 L 196.00 193.52 L 197.00 195.27 L 198.00 190.91 L 199.00 176.69 L 200.00 191.47 L 201.00 191.59 L 202.00 156.37 L 203.00 167.56 L 204.00 167.56 L 205.00 189.08 L 206.00 205.82 L 207.00 205.82 L 208.00 205.82 L 209.00 110.04 L 210.00 90.03 L 211.00 157.91 L 212.00 191.75 L 213.00 191.75 L 214.00 126.46 L 215.00 87.29 L 216.00 94.88 L 217.00 159.56 L 218.00 156.06 L 219.00 110.29 L 220.00 34.00 L 221.00 74.48 L 222.00 144.93 L 223.00 187.41 L 224.00 186.45 L 225.00 107.40 L 226.00 104.61 L 227.00 96.99 L 228.00 143.47 L 229.00 191.75 L 230.00 176.62 L 231.00 171.58 L 232.00 181.66 L 233.00 191.75 L 234.00 191.75 L 235.00 191.75 L 236.00 191.75 L 237.00 159.78 L 238.00 165.77 L 239.00 183.43 L 240.00 196.76 L 241.00 196.76 L 242.00 187.32 L 243.00 175.19 L 244.00 175.64 L 245.00 196.31 L 246.00 196.76 L 247.00 186.06 L 248.00 107.90 L 249.00 102.62 L 250.00 116.93 L 251.00 189.87 L 252.00 194.10 L 253.00 194.98 L 254.00 195.15 L 255.00 180.19 L 256.00 186.20 L 257.00 196.34 L 258.00 185.20 L 259.00 176.22 L 260.00 132.95 L 261.00 122.97 L 262.00 122.97 L 263.00 122.97 L 264.00 138.10 L 265.00 157.34 L 266.00 161.01 L 267.00 188.83 L 268.00 196.11 L 269.00 180.46 L 270.00 180.10 L 271.00 187.25 L 272.00 196.45 L 273.00 196.45 L 274.00 196.45 L 275.00 196.45 L 276.00 196.24 L 277.00 194.58 L 278.00 193.85 L 279.00 186.42 L 280.00 177.83 L 281.00 184.35 L 282.00 195.48 L 283.00 196.45 L 284.00 196.45 L 285.00 196.45 L 286.00 182.53 L 287.00 154.63 L 288.00 161.10 L 289.00 160.98 L 290.00 160.98 L 291.00 176.50 L 292.00 196.45 L 293.00 192.90 L 294.00 200.98 L 295.00 201.47 L 296.00 207.00 L 297.00 207.00 L 298.00 207.00 L 299.00 207.00 L 300.00 192.23 L 301.00 159.76 L 302.00 159.76 L 303.00 198.14 L 304.00 206.99 L 305.00 206.45 L 306.00 206.25 L 307.00 205.95 L 308.00 205.95 L 309.00 201.15 L 310.00 194.70 L 311.00 195.88 L 312.00 207.00 L 313.00 207.00 L 314.00 198.80 L 315.00 163.20 L 316.00 168.41 L 317.00 170.16 L 318.00 170.16 L 319.00 170.16 L 320.00 193.18 L 321.00 203.16 L 322.00 164.18 L 323.00 160.17 L 324.00 172.74 L 325.00 146.86 L 326.00 127.78 L 327.00 162.94 L 328.00 193.72 L 329.00 193.72 L 330.00 193.72 L 331.00 193.72 L 332.00 193.72 L 333.00 192.12 L 334.00 191.25 L 335.00 188.38 L 336.00 123.16 L 337.00 123.92 L 338.00 183.88 L 339.00 193.71 L 340.00 193.72 L 341.00 193.72 L 342.00 192.09 L 343.00 116.86 L 344.00 126.32 L 345.00 135.14 L 346.00 135.14 L 347.00 138.80 L 348.00 193.72 L 349.00 193.72 L 350.00 188.66 L 351.00 190.39 L 352.00 195.90 L 353.00 199.21 L 354.00 199.21 L 355.00 199.21 L 356.00 199.21 L 357.00 199.21 L 358.00 199.21 L 359.00 199.21 L 360.00 190.39 L 361.00 174.81 L 362.00 172.31 L 363.00 170.95 L 364.00 188.66 L 365.00 197.30 L 366.00 197.81 L 367.00 199.15 L 368.00 199.21 L 369.00 199.21 L 370.00 199.21 L 371.00 166.33 L 372.00 161.32 L 373.00 172.11 L 374.00 172.11 L 375.00 172.11 L 376.00 172.11 L 377.00 195.82 L 378.00 201.72 L 379.00 203.27 L 380.00 203.27 L 381.00 204.90 L 382.00 206.52 L 383.00 204.56 L 384.00 202.60 L 385.00 202.60 L 386.00 202.60 L 387.00 205.54 L 388.00 198.82 L 389.00 144.56 L 390.00 140.25 L 391.00 137.80 L 392.00 171.41 L 393.00 205.34 L 394.00 205.74 L 395.00 204.56 L 396.00 192.33 L 397.00 192.38 L 398.00 194.03 L 399.00 163.45 L 400.00 192.72 L 401.00 192.72 L 402.00 192.72 L 403.00 192.72 L 404.00 192.72 L 405.00 201.35 L 406.00 170.82 L 407.00 148.96 L 408.00 149.47 L 409.00 171.89 L 410.00 195.16 L 411.00 184.89 L 412.00 168.39 L 413.00 190.83 L 414.00 198.91 L 415.00 203.91 L 416.00 203.71 L 417.00 178.63 L 418.00 176.69 L 419.00 191.24 L 420.00 202.64 L 421.00 202.71 L 422.00 164.88 L 423.00 147.91 L 424.00 136.37 L 425.00 183.69 L 426.00 204.25 L 427.00 196.65 L 428.00 183.98 L 429.00 183.98 L 430.00 192.85 L 431.00 204.25 L 432.00 204.25 L 433.00 204.25 L 434.00 185.86 L 435.00 113.60 L 436.00 117.19 L 437.00 191.65 L 438.00 193.03 L 439.00 190.62 L 440.00 154.45 L 441.00 148.33 L 442.00 168.53 L 443.00 175.55 L 444.00 174.07 L 445.00 137.58 L 446.00 141.40 L 447.00 160.00 L 448.00 188.29 L 449.00 188.32 L 450.00 162.49 L 451.00 131.84 L 452.00 105.69 L 453.00 109.55 L 454.00 183.27 L 455.00 190.20 L 456.00 177.93 L 457.00 177.93 L 458.00 192.09 L 459.00 193.03 L 460.00 193.03 L 461.00 193.03 L 462.00 184.79 L 463.00 144.97 L 464.00 148.61 L 465.00 201.72 L 466.00 203.14 L 467.00 203.14 L 468.00 183.21 L 469.00 178.61 L 470.00 189.34 L 471.00 203.14 L 472.00 203.14 L 473.00 142.95 L 474.00 91.09 L 475.00 86.51 L 476.00 136.34 L 477.00 199.11 L 478.00 201.89 L 479.00 202.26 L 480.00 139.41 L 481.00 91.46 L 482.00 130.65 L 483.00 201.19 L 484.00 194.95 L 485.00 181.17 L 486.00 136.33 L 487.00 134.51 L 488.00 133.33 L 489.00 133.60 L 490.00 144.36 L 491.00 194.76 L 492.00 212.00 L 493.00 212.00 L 494.00 212.00 L 495.00 212.00 L 496.00 212.00 L 497.00 212.00 L 498.00 212.00 L 499.00 212.00 L 500.00 212.00 L 501.00 212.00 L 502.00 212.00 L 503.00 212.00 L 504.00 212.00 L 505.00 212.00 L 506.00 212.00 L 507.00 212.00 L 508.00 212.00 L 509.00 212.00 L 510.00 212.00 L 511.00 212.00 L 512.00 212.00 L 513.00 212.00 L 514.00 212.00 L 515.00 212.00 L 516.00 212.00 L 517.00 212.00 L 518.00 212.00 L 519.00 212.00 L 520.00 212.00 L 521.00 212.00 L 522.00 212.00 L 523.00 212.00 L 524.00 212.00 L 525.00 212.00 L 526.00 212.00 L 527.00 212.00 L 528.00 212.00 L 529.00 212.00 L 530.00 212.00 L 531.00 212.00 L 532.00 212.00 L 533.00 212.00 L 534.00 212.00 L 535.00 212.00 L 536.00 212.00 L 537.00 212.00 L 538.00 212.00 L 539.00 212.00 L 540.00 212.00 L 541.00 212.00 L 542.00 212.00 L 543.00 212.00 L 544.00 212.00 L 545.00 212.00 L 546.00 212.00 L 547.00 212.00 L 548.00 212.00 L 549.00 212.00 L 550.00 212.00 L 551.00 212.00 L 552.00 212.00 L 553.00 212.00 L 554.00 212.00 L 555.00 212.00 L 556.00 212.00 L 557.00 212.00 L 558.00 212.00 L 559.00 212.00 L 560.00 212.00 L 561.00 212.00 L 562.00 212.00 L 563.00 212.00 L 564.00 212.00 L 565.00 212.00 L 566.00 212.00 L 567.00 212.00 L 568.00 212.00 L 569.00 212.00 L 570.00 212.00 L 571.00 212.00 L 572.00 212.00 L 573.00 212.00 L 574.00 212.00 L 575.00 212.00 L 576.00 212.00 L 577.00 212.00 L 578.00 212.00 L 579.00 212.00 L 580.00 212.00 L 581.00 212.00 L 582.00 212.00 L 583.00 212.00 L 584.00 212.00 L 585.00 212.00 L 586.00 212.00 L 587.00 212.00 L 588.00 212.00 L 589.00 212.00 L 590.00 212.00 L 591.00 212.00 L 592.00 212.00 L 593.00 212.00 L 594.00 212.00 L 595.00 212.00 L 596.00 212.00 L 597.00 212.00 L 598.00 212.00 L 599.00 212.00 L 600.00 212.00 L 601.00 212.00 L 602.00 212.00 L 603.00 212.00 L 604.00 212.00 L 605.00 212.00 L 606.00 212.00 L 607.00 212.00 L 608.00 212.00 L 609.00 212.00 L 610.00 212.00 L 611.00 212.00 L 612.00 212.00 L 613.00 212.00 L 614.00 212.00 L 615.00 212.00 L 616.00 212.00 L 617.00 212.00 L 618.00 212.00 L 619.00 212.00 L 620.00 212.00 L 621.00 212.00 L 622.00 212.00 L 623.00 212.00 L 624.00 212.00 L 625.00 212.00 L 626.00 212.00 L 627.00 212.00 L 628.00 212.00 L 629.00 212.00 L 630.00 212.00 L 631.00 212.00 L 632.00 212.00 L 633.00 212.00 L 634.00 212.00 L 635.00 212.00 L 636.00 212.00 L 637.00 212.00 L 638.00 212.00 L 639.00 212.00 L 640.00 212.00 L 641.00 212.00 L 642.00 212.00 L 643.00 212.00 L 644.00 212.00 L 645.00 212.00 L 646.00 212.00 L 647.00 212.00 L 648.00 212.00 L 649.00 212.00 L 650.00 212.00 L 651.00 212.00 L 652.00 212.00 L 653.00 212.00 L 654.00 212.00 L 655.00 212.00 L 656.00 212.00 L 657.00 212.00 L 658.00 212.00 L 659.00 212.00 L 660.00 212.00 L 661.00 212.00 L 662.00 212.00 L 663.00 212.00 L 664.00 212.00 L 665.00 212.00 L 666.00 212.00 L 667.00 212.00 L 668.00 212.00 L 669.00 212.00 L 670.00 212.00 L 671.00 212.00 L 672.00 212.00 L 673.00 212.00 L 674.00 212.00 L 675.00 212.00 L 676.00 212.00 L 677.00 212.00 L 678.00 212.00 L 679.00 212.00 L 680.00 212.00 L 681.00 212.00 L 682.00 212.00 L 683.00 212.00 L 684.00 212.00 L 685.00 212.00 L 686.00 212.00 L 687.00 212.00 L 688.00 212.00 L 689.00 212.00 L 690.00 212.00 L 691.00 212.00 L 692.00 212.00 L 693.00 212.00 L 694.00 212.00 L 695.00 212.00 L 696.00 212.00 L 697.00 212.00 L 698.00 212.00 L 699.00 212.00 L 700.00 212.00 L 701.00 212.00 L 702.00 212.00 L 703.00 212.00 L 704.00 212.00 L 705.00 212.00 L 706.00 212.00 L 707.00 212.00 L 708.00 212.00 L 709.00 212.00 L 710.00 212.00 L 711.00 212.00 L 712.00 212.00 L 713.00 212.00 L 714.00 212.00 L 715.00 212.00 L 716.00 212.00 L 717.00 212.00 L 718.00 212.00 L 719.00 212.00 L 720.00 212.00 L 721.00 212.00 L 722.00 212.00 L 723.00 212.00 L 724.00 212.00 L 725.00 212.00 L 726.00 212.00 L 727.00 212.00 L 728.00 212.00 L 729.00 212.00 L 730.00 212.00 L 731.00 212.00 L 732.00 212.00 L 733.00 212.00 L 734.00 212.00 L 735.00 212.00 L 736.00 212.00 L 737.00 212.00 L 738.00 212.00 L 739.00 212.00 L 740.00 212.00 L 741.00 212.00 L 742.00 212.00 L 743.00 212.00 L 744.00 212.00 L 745.00 212.00 L 746.00 212.00 L 747.00 212.00 L 748.00 212.00 L 749.00 212.00 L 750.00 212.00 L 751.00 212.00 L 752.00 212.00 L 753.00 212.00 L 754.00 212.00 L 755.00 212.00 L 756.00 212.00 L 757.00 212.00 L 758.00 212.00 L 759.00 212.00 L 760.00 212.00 L 761.00 212.00 L 762.00 212.00 L 763.00 212.00 L 764.00 212.00 L 765.00 212.00 L 766.00 212.00 L 767.00 212.00 L 768.00 212.00 L 769.00 212.00 L 770.00 212.00 L 771.00 212.00 L 772.00 212.00 L 773.00 212.00 L 774.00 212.00 L 775.00 212.00 L 776.00 212.00 L 777.00 212.00 L 778.00 212.00 L 779.00 212.00 L 780.00 212.00 L 781.00 212.00 L 782.00 212.00 L 783.00 212.00 L 784.00 212.00 L 785.00 212.00 L 786.00 212.00 L 787.00 212.00 L 788.00 212.00 L 789.00 212.00 L 790.00 212.00 L 791.00 212.00 L 792.00 212.00 L 793.00 212.00 L 794.00 212.00 L 795.00 212.00 L 796.00 212.00 L 797.00 212.00 L 798.00 212.00 L 799.00 212.00 L 800.00 212.00 L 801.00 212.00 L 802.00 212.00 L 803.00 212.00 L 804.00 212.00 L 805.00 212.00 L 806.00 212.00 L 807.00 212.00 L 808.00 212.00 L 809.00 212.00 L 810.00 212.00 L 811.00 212.00 L 812.00 212.00 L 813.00 212.00 L 814.00 212.00 L 815.00 212.00 L 816.00 212.00 L 817.00 212.00 L 818.00 212.00 L 819.00 212.00 L 820.00 212.00 L 821.00 212.00 L 822.00 212.00 L 823.00 212.00 L 824.00 212.00 L 825.00 212.00 L 826.00 212.00 L 827.00 212.00 L 828.00 212.00 L 829.00 212.00 L 830.00 212.00 L 831.00 212.00 L 832.00 212.00 L 833.00 212.00 L 834.00 212.00 L 835.00 212.00 L 836.00 212.00 L 837.00 212.00 L 838.00 212.00 L 839.00 212.00 L 840.00 212.00 L 841.00 212.00 L 842.00 212.00 L 843.00 212.00 L 844.00 212.00 L 845.00 212.00 L 846.00 212.00 L 847.00 212.00 L 848.00 212.00 L 849.00 212.00 L 850.00 212.00 L 851.00 212.00 L 852.00 212.00 L 853.00 212.00 L 854.00 212.00 L 855.00 212.00 L 856.00 212.00 L 857.00 212.00 L 858.00 212.00 L 859.00 212.00 L 860.00 212.00 L 861.00 212.00 L 862.00 212.00 L 863.00 212.00 L 864.00 212.00 L 865.00 212.00 L 866.00 212.00 L 867.00 212.00 L 868.00 212.00 L 869.00 212.00 L 870.00 212.00 L 871.00 212.00 L 872.00 212.00 L 873.00 212.00 L 874.00 212.00 L 875.00 212.00 L 876.00 212.00 L 877.00 212.00 L 878.00 212.00 L 879.00 212.00 L 880.00 212.00 L 881.00 212.00 L 882.00 212.00 L 883.00 212.00 L 884.00 212.00 L 885.00 212.00 L 886.00 212.00 L 887.00 212.00 L 888.00 212.00 L 889.00 212.00 L 890.00 212.00 L 891.00 212.00 L 892.00 212.00 L 893.00 212.00 L 894.00 212.00 L 895.00 212.00 L 896.00 212.00 L 897.00 212.00 L 898.00 212.00 L 899.00 212.00 L 900.00 212.00 L 901.00 212.00 L 902.00 212.00 L 903.00 212.00 L 904.00 212.00 L 905.00 212.00 L 906.00 212.00 L 907.00 212.00 L 908.00 212.00 L 909.00 212.00 L 910.00 212.00 L 911.00 212.00 L 912.00 212.00 L 913.00 212.00 L 914.00 212.00 L 915.00 212.00 L 916.00 212.00 L 917.00 212.00 L 918.00 212.00 L 919.00 212.00 L 920.00 212.00 L 921.00 212.00 L 922.00 212.00 L 923.00 212.00 L 924.00 212.00 L 925.00 212.00 L 926.00 212.00 L 927.00 212.00 L 928.00 212.00 L 929.00 212.00 L 930.00 212.00 L 931.00 212.00 L 932.00 212.00 L 933.00 212.00 L 934.00 212.00 L 935.00 212.00 L 936.00 212.00 L 937.00 212.00 L 938.00 212.00 L 939.00 212.00 L 940.00 212.00 L 941.00 212.00" fill="none" stroke="#9a5b4f" stroke-width="1.8" />
      <text x="18" y="22" font-size="14" fill="#51656d">Roughness</text>
      <text x="18" y="40" font-size="11" fill="#7a8a83">Windowed symbolic roughness aligned to the render</text>
      <text x="40.00" y="230" text-anchor="middle" font-size="11" fill="#71827b">0.0s</text><text x="265.50" y="230" text-anchor="middle" font-size="11" fill="#71827b">21.3s</text><text x="491.00" y="230" text-anchor="middle" font-size="11" fill="#71827b">42.5s</text><text x="716.50" y="230" text-anchor="middle" font-size="11" fill="#71827b">63.8s</text><text x="942.00" y="230" text-anchor="middle" font-size="11" fill="#71827b">85.1s</text>
    </svg>