<svg xmlns="http://www.w3.org/2000/svg" viewBox="0 0 960 260" width="960" height="260" role="img">
      <rect width="960" height="260" fill="#f7f9f7" />
      <line x1="18" y1="34.00" x2="942" y2="34.00" stroke="#e6ece8" stroke-width="1" /><line x1="18" y1="83.50" x2="942" y2="83.50" stroke="#e6ece8" stroke-width="1" /><line x1="18" y1="133.00" x2="942" y2="133.00" stroke="#e6ece8" stroke-width="1" /><line x1="18" y1="182.50" x2="942" y2="182.50" stroke="#e6ece8" stroke-width="1" /><line x1="18" y1="232.00" x2="942" y2="232.00" stroke="#e6ece8" stroke-width="1" />
      <line x1="18" y1="130" x2="942" y2="130" stroke="#ccd8d1" stroke-width="1.2" />
      <path d="M 18.00 129.98 L 19.00 130.05 L 20.00 129.99 L 21.00 130.00 L 22.00 130.00 L 23.00 130.01 L 24.00 129.99 L 25.00 130.00 L 26.00 130.00 L 27.00 130.00 L 28.00 129.99 L 29.00 130.01 L 30.00 130.01 L 31.00 130.00 L 32.00 130.00 L 33.00 130.00 L 34.00 130.01 L 35.00 129.99 L 36.00 129.99 L 37.00 129.99 L 38.00 130.00 L 39.00 130.01 L 40.00 129.99 L 41.00 130.00 L 42.00 130.00 L 43.00 130.00 L 44.00 130.00 L 45.00 130.00 L 46.00 129.90 L 47.00 130.08 L 48.00 129.97 L 49.00 130.01 L 50.00 130.00 L 51.00 130.00 L 52.00 129.99 L 53.00 130.01 L 54.00 130.00 L 55.00 130.00 L 56.00 130.00 L 57.00 130.00 L 58.00 129.98 L 59.00 130.03 L 60.00 129.99 L 61.00 130.00 L 62.00 130.00 L 63.00 130.00 L 64.00 130.00 L 65.00 129.97 L 66.00 130.01 L 67.00 130.01 L 68.00 130.00 L 69.00 130.00 L 70.00 130.00 L 71.00 130.00 L 72.00 130.00 L 73.00 130.00 L 74.00 130.04 L 75.00 129.94 L 76.00 129.98 L 77.00 129.99 L 78.00 130.00 L 79.00 130.00 L 80.00 130.01 L 81.00 129.99 L 82.00 130.00 L 83.00 130.00 L 84.00 130.00 L 85.00 130.00 L 86.00 130.00 L 87.00 130.00 L 88.00 130.00 L 89.00 130.00 L 90.00 129.98 L 91.00 130.02 L 92.00 129.98 L 93.00 130.02 L 94.00 130.00 L 95.00 130.00 L 96.00 130.01 L 97.00 130.00 L 98.00 130.00 L 99.00 130.00 L 100.00 130.00 L 101.00 130.00 L 102.00 130.00 L 103.00 129.98 L 104.00 129.94 L 105.00 130.02 L 106.00 130.01 L 107.00 129.99 L 108.00 130.01 L 109.00 130.00 L 110.00 130.00 L 111.00 130.00 L 112.00 130.00 L 113.00 130.01 L 114.00 129.99 L 115.00 130.00 L 116.00 130.00 L 117.00 130.00 L 118.00 130.00 L 119.00 130.00 L 120.00 130.01 L 121.00 130.00 L 122.00 130.00 L 123.00 130.00 L 124.00 130.00 L 125.00 130.00 L 126.00 129.99 L 127.00 130.01 L 128.00 130.00 L 129.00 130.00 L 130.00 130.00 L 131.00 130.07 L 132.00 129.93 L 133.00 130.01 L 134.00 129.99 L 135.00 130.00 L 136.00 130.01 L 137.00 129.99 L 138.00 130.01 L 139.00 130.00 L 140.00 130.00 L 141.00 130.00 L 142.00 129.99 L 143.00 130.01 L 144.00 130.00 L 145.00 130.00 L 146.00 130.00 L 147.00 130.01 L 148.00 129.99 L 149.00 129.97 L 150.00 130.00 L 151.00 130.00 L 152.00 129.99 L 153.00 130.01 L 154.00 130.00 L 155.00 130.00 L 156.00 130.00 L 157.00 130.00 L 158.00 130.00 L 159.00 130.03 L 160.00 129.97 L 161.00 129.98 L 162.00 129.98 L 163.00 130.00 L 164.00 130.00 L 165.00 130.00 L 166.00 130.00 L 167.00 130.00 L 168.00 130.00 L 169.00 130.00 L 170.00 130.00 L 171.00 130.00 L 172.00 130.00 L 173.00 130.01 L 174.00 130.00 L 175.00 129.99 L 176.00 130.00 L 177.00 129.99 L 178.00 130.02 L 179.00 130.00 L 180.00 130.00 L 181.00 130.00 L 182.00 130.00 L 183.00 130.00 L 184.00 130.00 L 185.00 130.00 L 186.00 130.00 L 187.00 130.00 L 188.00 130.02 L 189.00 130.00 L 190.00 130.01 L 191.00 130.00 L 192.00 130.00 L 193.00 129.99 L 194.00 130.01 L 195.00 130.00 L 196.00 130.01 L 197.00 130.00 L 198.00 130.01 L 199.00 129.98 L 200.00 130.00 L 201.00 130.00 L 202.00 130.00 L 203.00 130.00 L 204.00 130.01 L 205.00 129.95 L 206.00 130.02 L 207.00 130.00 L 208.00 130.00 L 209.00 130.00 L 210.00 130.00 L 211.00 130.00 L 212.00 130.00 L 213.00 130.00 L 214.00 130.00 L 215.00 130.00 L 216.00 129.98 L 217.00 130.01 L 218.00 129.97 L 219.00 129.98 L 220.00 130.00 L 221.00 129.99 L 222.00 130.01 L 223.00 130.00 L 224.00 130.00 L 225.00 130.00 L 226.00 130.00 L 227.00 130.01 L 228.00 129.99 L 229.00 130.00 L 230.00 130.00 L 231.00 130.00 L 232.00 130.00 L 233.00 130.00 L 234.00 130.02 L 235.00 129.99 L 236.00 130.00 L 237.00 129.99 L 238.00 130.00 L 239.00 129.99 L 240.00 130.01 L 241.00 130.00 L 242.00 130.00 L 243.00 130.00 L 244.00 130.00 L 245.00 129.97 L 246.00 130.01 L 247.00 130.00 L 248.00 129.98 L 249.00 130.01 L 250.00 130.00 L 251.00 130.00 L 252.00 130.01 L 253.00 130.00 L 254.00 130.00 L 255.00 130.00 L 256.00 130.00 L 257.00 130.00 L 258.00 130.01 L 259.00 129.99 L 260.00 130.01 L 261.00 130.00 L 262.00 130.00 L 263.00 130.00 L 264.00 130.00 L 265.00 130.01 L 266.00 129.97 L 267.00 130.02 L 268.00 130.00 L 269.00 130.00 L 270.00 130.00 L 271.00 130.00 L 272.00 130.00 L 273.00 130.00 L 274.00 129.99 L 275.00 129.99 L 276.00 130.00 L 277.00 130.00 L 278.00 130.00 L 279.00 130.00 L 280.00 130.00 L 281.00 130.00 L 282.00 130.00 L 283.00 130.00 L 284.00 130.00 L 285.00 130.00 L 286.00 130.00 L 287.00 130.00 L 288.00 130.00 L 289.00 130.00 L 290.00 130.00 L 291.00 130.00 L 292.00 130.00 L 293.00 130.00 L 294.00 130.01 L 295.00 130.00 L 296.00 130.00 L 297.00 130.00 L 298.00 130.00 L 299.00 130.00 L 300.00 130.00 L 301.00 130.01 L 302.00 129.99 L 303.00 130.01 L 304.00 129.99 L 305.00 130.02 L 306.00 130.00 L 307.00 130.00 L 308.00 130.00 L 309.00 130.00 L 310.00 130.00 L 311.00 130.00 L 312.00 130.00 L 313.00 130.00 L 314.00 130.00 L 315.00 130.01 L 316.00 129.99 L 317.00 130.00 L 318.00 130.00 L 319.00 130.00 L 320.00 130.00 L 321.00 130.00 L 322.00 129.98 L 323.00 130.01 L 324.00 129.99 L 325.00 130.00 L 326.00 130.00 L 327.00 130.00 L 328.00 130.00 L 329.00 129.92 L 330.00 130.02 L 331.00 130.01 L 332.00 130.01 L 333.00 130.00 L 334.00 130.00 L 335.00 130.00 L 336.00 130.00 L 337.00 130.00 L 338.00 130.00 L 339.00 130.00 L 340.00 129.99 L 341.00 130.01 L 342.00 129.99 L 343.00 130.00 L 344.00 130.00 L 345.00 130.00 L 346.00 130.00 L 347.00 130.00 L 348.00 130.00 L 349.00 130.00 L 350.00 129.99 L 351.00 130.00 L 352.00 130.01 L 353.00 130.00 L 354.00 130.00 L 355.00 130.00 L 356.00 130.00 L 357.00 130.00 L 358.00 129.99 L 359.00 129.99 L 360.00 129.99 L 361.00 130.01 L 362.00 130.00 L 363.00 129.99 L 364.00 130.00 L 365.00 130.00 L 366.00 130.00 L 367.00 130.00 L 368.00 130.01 L 369.00 129.98 L 370.00 130.01 L 371.00 130.00 L 372.00 130.00 L 373.00 130.00 L 374.00 130.00 L 375.00 130.00 L 376.00 130.01 L 377.00 130.00 L 378.00 130.00 L 379.00 129.99 L 380.00 130.01 L 381.00 130.00 L 382.00 130.00 L 383.00 130.00 L 384.00 130.00 L 385.00 130.00 L 386.00 130.03 L 387.00 130.00 L 388.00 130.00 L 389.00 130.01 L 390.00 130.00 L 391.00 129.99 L 392.00 130.00 L 393.00 130.01 L 394.00 129.99 L 395.00 130.01 L 396.00 129.99 L 397.00 130.02 L 398.00 129.99 L 399.00 130.00 L 400.00 130.00 L 401.00 130.00 L 402.00 130.01 L 403.00 130.00 L 404.00 129.99 L 405.00 129.99 L 406.00 130.00 L 407.00 130.00 L 408.00 130.00 L 409.00 130.01 L 410.00 130.00 L 411.00 130.00 L 412.00 130.00 L 413.00 130.00 L 414.00 129.87 L 415.00 130.03 L 416.00 130.02 L 417.00 130.01 L 418.00 130.00 L 419.00 129.99 L 420.00 130.01 L 421.00 129.99 L 422.00 129.99 L 423.00 130.00 L 424.00 130.00 L 425.00 130.01 L 426.00 129.99 L 427.00 130.00 L 428.00 130.00 L 429.00 130.00 L 430.00 129.97 L 431.00 130.02 L 432.00 130.02 L 433.00 130.00 L 434.00 130.00 L 435.00 130.00 L 436.00 130.00 L 437.00 130.01 L 438.00 130.00 L 439.00 130.00 L 440.00 130.00 L 441.00 130.00 L 442.00 130.00 L 443.00 130.03 L 444.00 129.98 L 445.00 130.00 L 446.00 130.00 L 447.00 130.00 L 448.00 129.98 L 449.00 130.01 L 450.00 130.00 L 451.00 130.00 L 452.00 130.00 L 453.00 130.03 L 454.00 129.96 L 455.00 130.01 L 456.00 130.00 L 457.00 130.00 L 458.00 130.00 L 459.00 130.00 L 460.00 130.01 L 461.00 129.97 L 462.00 130.00 L 463.00 130.01 L 464.00 130.03 L 465.00 130.00 L 466.00 130.00 L 467.00 130.00 L 468.00 130.00 L 469.00 130.00 L 470.00 130.00 L 471.00 130.02 L 472.00 130.00 L 473.00 129.99 L 474.00 130.00 L 475.00 130.00 L 476.00 130.00 L 477.00 130.01 L 478.00 130.00 L 479.00 129.99 L 480.00 130.01 L 481.00 129.99 L 482.00 130.00 L 483.00 130.00 L 484.00 130.00 L 485.00 130.00 L 486.00 130.00 L 487.00 129.99 L 488.00 130.01 L 489.00 130.00 L 490.00 129.99 L 491.00 130.00 L 492.00 129.99 L 493.00 130.01 L 494.00 130.00 L 495.00 130.00 L 496.00 130.00 L 497.00 130.00 L 498.00 130.00 L 499.00 130.01 L 500.00 129.91 L 501.00 130.03 L 502.00 130.01 L 503.00 130.00 L 504.00 129.99 L 505.00 129.99 L 506.00 130.01 L 507.00 130.00 L 508.00 130.00 L 509.00 130.00 L 510.00 130.00 L 511.00 130.00 L 512.00 130.01 L 513.00 129.99 L 514.00 130.00 L 515.00 130.00 L 516.00 130.00 L 517.00 129.97 L 518.00 130.03 L 519.00 129.98 L 520.00 130.01 L 521.00 130.00 L 522.00 130.00 L 523.00 130.00 L 524.00 130.00 L 525.00 130.00 L 526.00 130.00 L 527.00 130.00 L 528.00 129.95 L 529.00 130.01 L 530.00 129.99 L 531.00 130.00 L 532.00 130.01 L 533.00 129.99 L 534.00 130.01 L 535.00 130.00 L 536.00 130.00 L 537.00 130.00 L 538.00 129.99 L 539.00 130.01 L 540.00 130.00 L 541.00 130.00 L 542.00 130.00 L 543.00 130.00 L 544.00 130.01 L 545.00 129.99 L 546.00 130.00 L 547.00 130.00 L 548.00 130.00 L 549.00 130.00 L 550.00 130.00 L 551.00 130.00 L 552.00 130.00 L 553.00 130.00 L 554.00 130.00 L 555.00 130.00 L 556.00 130.01 L 557.00 129.96 L 558.00 129.97 L 559.00 130.00 L 560.00 130.00 L 561.00 130.01 L 562.00 130.00 L 563.00 129.99 L 564.00 130.00 L 565.00 130.00 L 566.00 130.00 L 567.00 130.01 L 568.00 129.99 L 569.00 130.00 L 570.00 130.00 L 571.00 130.00 L 572.00 130.00 L 573.00 130.00 L 574.00 130.03 L 575.00 129.98 L 576.00 130.00 L 577.00 130.00 L 578.00 130.00 L 579.00 129.98 L 580.00 130.01 L 581.00 130.01 L 582.00 130.00 L 583.00 130.00 L 584.00 130.03 L 585.00 129.97 L 586.00 130.02 L 587.00 129.99 L 588.00 130.00 L 589.00 130.00 L 590.00 130.01 L 591.00 129.99 L 592.00 130.00 L 593.00 130.00 L 594.00 130.00 L 595.00 130.01 L 596.00 130.00 L 597.00 130.00 L 598.00 130.00 L 599.00 130.00 L 600.00 130.02 L 601.00 129.99 L 602.00 129.95 L 603.00 130.02 L 604.00 130.00 L 605.00 130.00 L 606.00 129.99 L 607.00 130.00 L 608.00 130.00 L 609.00 130.00 L 610.00 130.00 L 611.00 130.00 L 612.00 130.00 L 613.00 129.95 L 614.00 130.00 L 615.00 130.02 L 616.00 129.99 L 617.00 130.00 L 618.00 130.00 L 619.00 130.00 L 620.00 130.00 L 621.00 130.00 L 622.00 130.00 L 623.00 130.00 L 624.00 130.00 L 625.00 130.00 L 626.00 130.00 L 627.00 130.00 L 628.00 130.00 L 629.00 130.00 L 630.00 130.00 L 631.00 130.02 L 632.00 129.99 L 633.00 130.00 L 634.00 130.00 L 635.00 130.00 L 636.00 130.00 L 637.00 130.00 L 638.00 130.00 L 639.00 130.00 L 640.00 130.00 L 641.00 129.99 L 642.00 130.04 L 643.00 130.00 L 644.00 130.01 L 645.00 130.00 L 646.00 130.01 L 647.00 129.98 L 648.00 130.02 L 649.00 130.00 L 650.00 129.99 L 651.00 130.00 L 652.00 130.01 L 653.00 130.00 L 654.00 130.00 L 655.00 130.00 L 656.00 130.00 L 657.00 130.00 L 658.00 129.99 L 659.00 129.99 L 660.00 130.00 L 661.00 130.00 L 662.00 130.00 L 663.00 130.00 L 664.00 130.00 L 665.00 130.00 L 666.00 130.00 L 667.00 130.00 L 668.00 130.00 L 669.00 129.92 L 670.00 130.04 L 671.00 129.98 L 672.00 130.00 L 673.00 130.00 L 674.00 129.99 L 675.00 129.99 L 676.00 130.01 L 677.00 130.00 L 678.00 130.00 L 679.00 130.00 L 680.00 129.98 L 681.00 130.02 L 682.00 130.00 L 683.00 130.00 L 684.00 130.00 L 685.00 130.00 L 686.00 130.00 L 687.00 130.04 L 688.00 129.98 L 689.00 130.00 L 690.00 130.00 L 691.00 130.00 L 692.00 129.99 L 693.00 130.02 L 694.00 129.99 L 695.00 130.00 L 696.00 130.00 L 697.00 130.00 L 698.00 129.97 L 699.00 130.01 L 700.00 130.00 L 701.00 129.98 L 702.00 130.01 L 703.00 130.00 L 704.00 130.00 L 705.00 130.00 L 706.00 130.00 L 707.00 130.00 L 708.00 129.99 L 709.00 130.00 L 710.00 130.00 L 711.00 130.00 L 712.00 130.00 L 713.00 130.00 L 714.00 130.00 L 715.00 130.00 L 716.00 130.00 L 717.00 130.00 L 718.00 130.00 L 719.00 129.99 L 720.00 130.00 L 721.00 130.00 L 722.00 130.00 L 723.00 130.00 L 724.00 130.00 L 725.00 130.00 L 726.00 129.96 L 727.00 130.00 L 728.00 130.01 L 729.00 130.01 L 730.00 130.00 L 731.00 130.00 L 732.00 130.00 L 733.00 130.01 L 734.00 129.98 L 735.00 130.01 L 736.00 130.00 L 737.00 130.00 L 738.00 130.00 L 739.00 130.00 L 740.00 130.00 L 741.00 130.00 L 742.00 129.99 L 743.00 130.00 L 744.00 130.00 L 745.00 130.00 L 746.00 130.00 L 747.00 130.02 L 748.00 129.98 L 749.00 130.00 L 750.00 130.00 L 751.00 130.00 L 752.00 130.00 L 753.00 130.00 L 754.00 129.99 L 755.00 130.02 L 756.00 130.00 L 757.00 130.00 L 758.00 130.00 L 759.00 130.00 L 760.00 130.00 L 761.00 130.00 L 762.00 130.00 L 763.00 130.00 L 764.00 130.00 L 765.00 130.00 L 766.00 130.00 L 767.00 130.00 L 768.00 130.01 L 769.00 130.00 L 770.00 130.00 L 771.00 130.00 L 772.00 130.00 L 773.00 130.00 L 774.00 130.00 L 775.00 129.98 L 776.00 129.99 L 777.00 130.01 L 778.00 130.00 L 779.00 130.00 L 780.00 130.00 L 781.00 130.00 L 782.00 130.00 L 783.00 129.94 L 784.00 130.02 L 785.00 130.01 L 786.00 130.00 L 787.00 130.00 L 788.00 130.00 L 789.00 130.00 L 790.00 130.00 L 791.00 130.00 L 792.00 130.00 L 793.00 129.99 L 794.00 130.00 L 795.00 130.01 L 796.00 130.00 L 797.00 130.00 L 798.00 130.00 L 799.00 130.00 L 800.00 130.00 L 801.00 130.00 L 802.00 130.00 L 803.00 130.00 L 804.00 130.01 L 805.00 130.00 L 806.00 130.00 L 807.00 130.00 L 808.00 130.00 L 809.00 130.00 L 810.00 130.00 L 811.00 129.95 L 812.00 130.00 L 813.00 130.01 L 814.00 130.01 L 815.00 130.00 L 816.00 130.00 L 817.00 129.99 L 818.00 130.00 L 819.00 130.00 L 820.00 130.00 L 821.00 130.00 L 822.00 130.01 L 823.00 129.99 L 824.00 130.00 L 825.00 130.00 L 826.00 130.00 L 827.00 130.00 L 828.00 130.00 L 829.00 130.00 L 830.00 130.00 L 831.00 130.00 L 832.00 129.99 L 833.00 130.01 L 834.00 129.99 L 835.00 130.00 L 836.00 130.00 L 837.00 130.00 L 838.00 130.00 L 839.00 130.06 L 840.00 129.92 L 841.00 130.03 L 842.00 130.00 L 843.00 129.99 L 844.00 130.00 L 845.00 130.00 L 846.00 130.00 L 847.00 130.00 L 848.00 130.00 L 849.00 130.00 L 850.00 130.01 L 851.00 130.00 L 852.00 130.00 L 853.00 130.00 L 854.00 130.00 L 855.00 130.00 L 856.00 130.01 L 857.00 129.97 L 858.00 130.01 L 859.00 130.00 L 860.00 130.01 L 861.00 129.99 L 862.00 130.00 L 863.00 130.00 L 864.00 130.00 L 865.00 130.00 L 866.00 130.00 L 867.00 130.00 L 868.00 129.85 L 869.00 130.05 L 870.00 130.03 L 871.00 130.00 L 872.00 130.00 L 873.00 130.01 L 874.00 130.00 L 875.00 129.99 L 876.00 130.00 L 877.00 130.00 L 878.00 130.00 L 879.00 130.01 L 880.00 129.99 L 881.00 130.00 L 882.00 130.00 L 883.00 130.00 L 884.00 130.01 L 885.00 130.02 L 886.00 129.98 L 887.00 130.00 L 888.00 130.00 L 889.00 130.00 L 890.00 130.00 L 891.00 130.00 L 892.00 130.00 L 893.00 130.00 L 894.00 130.00 L 895.00 130.00 L 896.00 129.96 L 897.00 130.08 L 898.00 129.98 L 899.00 129.99 L 900.00 130.00 L 901.00 130.01 L 902.00 129.98 L 903.00 130.01 L 904.00 130.00 L 905.00 130.00 L 906.00 130.00 L 907.00 130.02 L 908.00 129.98 L 909.00 130.00 L 910.00 130.00 L 911.00 130.00 L 912.00 130.00 L 913.00 130.00 L 914.00 130.00 L 915.00 129.95 L 916.00 130.05 L 917.00 130.01 L 918.00 130.00 L 919.00 129.99 L 920.00 130.00 L 921.00 130.01 L 922.00 130.00 L 923.00 130.00 L 924.00 130.00 L 925.00 130.00 L 926.00 130.00 L 927.00 130.00 L 928.00 130.00 L 929.00 130.00 L 930.00 130.00 L 931.00 130.00 L 932.00 130.00 L 933.00 130.00 L 934.00 130.00 L 935.00 130.00 L 936.00 130.00 L 937.00 130.00 L 938.00 130.00 L 939.00 130.00 L 940.00 130.00 L 941.00 130.00" fill="none" stroke="#28536a" stroke-width="1.5" />
      <text x="18" y="22" font-size="14" fill="#51656d">Waveform</text>
      <text x="18" y="40" font-size="11" fill="#7a8a83">Trimmed offline render with release tail</text>
      <text x="18.00" y="250" text-anchor="middle" font-size="11" fill="#71827b">0.0s</text><text x="249.00" y="250" text-anchor="middle" font-size="11" fill="#71827b">21.3s</text><text x="480.00" y="250" text-anchor="middle" font-size="11" fill="#71827b">42.5s</text><text x="711.00" y="250" text-anchor="middle" font-size="11" fill="#71827b">63.8s</text><text x="942.00" y="250" text-anchor="middle" font-size="11" fill="#71827b">85.1s</text>
    </svg>